<svg width="295" height="180" fill="none" xmlns="http://www.w3.org/2000/svg">
  <mask id="prefix__a" style="mask-type:alpha" maskUnits="userSpaceOnUse" x="0" y="0" width="295" height="180">
    <path
      d="M5.595 35.545C-22.85 97.638 86.251 178.016 160.647 179.92c63.744 1.631 129.006-22.487 133.991-93.216 2.26-32.07-13.796-70.88-46.364-82.401-34.21-12.103-68.102 11.788-101.99 14.655-31.567 2.66-62.776-20.443-94.689-16.566-23.686 2.877-37.549 14.706-46 33.153z"
      fill="#000" />
  </mask>
  <g mask="url(#prefix__a)">
    <mask id="prefix__b" style="mask-type:luminance" maskUnits="userSpaceOnUse" x="-112" y="-40" width="408"
      height="272">
      <path d="M295.012-39.853h-406.909V231.42h406.909V-39.853z" fill="#fff" />
    </mask>
    <g mask="url(#prefix__b)">
      <path fill="#EDE3E3" d="M-7.763-19.096h273.312v150.63H-7.763z" />
      <path opacity=".1"
        d="M58.957 80.682c18.84 0 34.114-15.273 34.114-34.114 0-18.84-15.273-34.113-34.114-34.113-18.84 0-34.113 15.273-34.113 34.113s15.273 34.114 34.113 34.114z"
        fill="#fff" />
      <path opacity=".1"
        d="M86.81 52.81c3.447-15.38-6.227-30.644-21.608-34.091-15.38-3.447-30.644 6.227-34.091 21.608-3.447 15.38 6.227 30.644 21.608 34.09 15.38 3.448 30.643-6.226 34.09-21.607z"
        fill="#FFE6C8" />
      <path
        d="M-136.687 52.48c3.868.61 8.555.958 12.386 0 5.281-1.32 10.721-4.516 15.201-6.756 4.118-2.059 9.183 1.443 13.512 0 6.625-2.208 10.43-4.788 17.453-6.193 3.509-.702 9.294 3.75 12.387 1.689 8.329-5.553 19.073-9.42 29.84-7.882 7.842 1.12 13.913 6.14 20.83 8.445 4.679 1.56 9.817-2.17 14.639-.563 2.311.77 3.077 2.614 5.067 3.94 4.31 2.875 7.876 1.69 12.948 1.69 2.42 0 3.969 1.51 6.194 2.252 5.367 1.79 23.258.563 29.84.563.576 0 10.697.97 10.697.563 0-.593-1.114.42-1.69.563-1.407.353-2.44.063-3.94.564-2.704.9-6.145 1.689-9.009 1.689-9.325 0-18.522 2.252-28.15 2.252-7.826 0-18.378-1.88-25.899 0-2.658.664-6.14 1.604-9.008 1.126-3.946-.658-8.857-2.15-12.95-1.126-4.933 1.233-11.515 3.327-16.89 2.252-5.873-1.175-12.47-2.562-18.579-1.69-3.563.51-7.536 2.058-11.26 1.127-4.23-1.058-7.58-3.617-12.386-2.816-17.635 2.94-34.232 1.126-51.797 1.126-1.481 0-9.124 1.01-10.134 0-.192-.193 5.974-1.24 10.698-2.815zM136.935 22.078c2.265.197 4.077.041 6.193-.563 5.724-1.636 10.585-3.904 15.764-5.63 3.554-1.185 7.65 2.93 11.26 1.125 5.12-2.56 9.271-4.331 15.765-5.63 4.044-.809 8.904 3.43 12.386 1.69 4.849-2.425 10.563-5.095 16.327-3.942 6.102 1.22 10.117 5.514 16.328 6.756 4.322.864 7.977-2.228 12.386-1.126 2.189.548 4.715 2.92 6.756 3.941 3.454 1.727 9.497-1.726 12.949 0 4.792 2.396 23.691 2.816 29.277 2.816 2.064 0-4.136-.172-6.194 0-5.711.475-11.197 1.683-16.89 2.252-7.662.766-16.211-.733-23.646 1.126-7.583 1.896-17.033 4.762-25.335 3.378-4.51-.752-17.636-3.13-21.958-1.69-2.121.708-7.093 2.366-9.571 1.127-6.232-3.117-15.488-2.953-21.394 0-3.623 1.811-7.389-2.98-11.26-1.69-6.177 2.06-17.654 2.438-24.209 1.127-2.245-.45-22.52-2.322-22.52-.564 0 .578 3.077-.487 3.378-.563 2.359-.59 5.036-.473 7.318-1.126 2.176-.621 5.451-1.317 7.319-2.252 3.206-1.602 6.225 1.669 9.571-.562z"
        fill="#fff" fill-opacity=".295" />
      <path
        d="M72.933 64.643c1.085-6.961-3.678-13.484-10.639-14.57-6.96-1.085-13.484 3.678-14.57 10.639-1.085 6.96 3.678 13.484 10.639 14.57 6.96 1.085 13.484-3.678 14.57-10.639z"
        fill="#FADE7E" />
      <path
        d="M35.108 62.858c10.923 1.004 21.189-1.246 31.849-3.184 17.68-3.215 32.27-13.369 50.162-15.925 20.015-2.859 38.734 2.444 58.123-6.37 13.921-6.327 27.005-13.9 40.607-20.7 7.029-3.515 14.628-12.003 22.294-13.536 11.793-2.359 26.001-1.002 35.83 6.37 2.572 1.929 3.793 5.104 6.369 7.165 5.467 4.374 16.127 8.17 19.109 15.128 1.599 3.73 1.484 8.818 2.389 12.74 6.819 29.547 8.883 60.688 12.739 90.768 2.852 22.24 2.554 44.641 4.778 66.882 1.038 10.379 3.555 20.671 4.777 31.052.367 3.121 3.226 13.201-1.593 15.128-3.786 1.514-63.194-.633-67.678-.796-23.402-.851-46.699-2.633-70.067-3.982-14.113-.814-47.025 1.755-58.92-7.166-5.357-4.018-26.259-42.72-31.848-50.957-15.998-23.577-30.186-49.468-41.404-75.64-5.842-13.633-17.516-31.407-17.516-46.977z"
        fill="#8D81B0" />
      <path
        d="M82.085 80.773c2.324-.29 3.498-.226 5.574-1.194 6.015-2.807 12.068-6.233 17.914-9.157 1.495-.747 3.207-.403 4.778-.796 4.071-1.018 8.255-2.164 12.341-3.185 1.149-.287 2.433-.11 3.583-.398 4.613-1.154 8.918-4.167 13.137-5.574 1.17-.39 2.756.204 3.981 0 1.575-.262 3.28-.422 4.777-.796.465-.116.741-.645 1.195-.796 1.291-.43 2.733-.38 3.981-.797 1.826-.608 3.793-1.676 5.573-2.388 2.257-.903 4.9-1.256 7.166-2.39a122.061 122.061 0 0116.323-6.767c1.537-.512 9.72-5.573 10.35-5.573.318 0-1.037 1.037-1.194 1.194-1.339 1.339-3.237 2.505-4.777 3.583-2.081 1.456-7.163 4.975-9.555 5.573-1.824.456-3.826 1.117-5.573 1.99-2.242 1.122-5.139 3.376-7.564 3.982-1.438.36-4.415 1.23-5.574 2.389-1.182 1.181-5.884 4.755-7.564 5.175-3.408.852-6.988 1.666-10.351 2.787-1.581.526-4.477 1.243-5.972 1.99-.654.328-1.211 1-1.99 1.195-3.126.78-6.731 1.464-9.555 3.582-.155.117-4.021 3.962-3.185 4.38 5.007 2.504 12.769-1.998 17.517-3.185 2.623-.656 5.737.656 8.36 0 .945-.236 1.842-.56 2.787-.796 1.513-.379 3.259-.417 4.777-.796 3.101-.775 8.353-3.712 11.147-5.574 1.334-.89 3.291-2.84 4.777-3.583 2.766-1.383 5.851-2.497 8.36-4.38.98-.734 1.458-2.165 2.389-2.786 1.519-1.013 2.532-2.026 3.981-3.185 2.399-1.919 5.467-2.781 7.962-4.777 1.827-1.462 2.712-3.4 4.778-4.777 2.201-1.468 4.887-2.217 7.166-3.583 3.695-2.218 5.209-5.044 8.36-7.564 3.08-2.465 6.896-3.925 9.952-6.37 4.224-3.379 7.778-7.731 11.147-11.943.16-.2.727-1.592 1.194-1.592 1.134 0-4.327 8.642-4.378 8.758-2.062 4.639-2.521 5.396-6.37 7.962-.721.481-.869 1.412-1.592 1.991-.968.774-2.204 1.515-2.787 2.389-.627.94-1.816 1.131-2.389 1.99-.902 1.353-.053.214-.398 1.593-.339 1.357-1.799 3.391-2.786 4.38-.584.583-5.407 6.253-4.379 6.767 1.084.542 2.729.694 3.981 1.194.442.177.765.582 1.194.796 1.62.81 4.47-2.244 5.175-3.185.338-.45 1.017-.66 1.194-1.194.285-.853.175-1.162.797-1.99 1.256-1.675 3.564-.967 4.777-2.787 1.435-2.153 1.684-4.653 2.389-6.768.374-1.12 1.497-1.8 1.991-2.786.559-1.12.815-3.602 1.592-4.38.965-.965 2.509-1.434 3.185-2.786.76-1.522 2.141-2.389 1.99-2.389-.128 0-.317 2.066-.398 2.389-.535 2.14-2.128 3.994-2.787 5.972-.351 1.054-.346 2.06-.796 3.184-.697 1.742-1.267 4.088-.796 5.972.233.933.782 2.43.398 3.583-.319.957-1.078 1.219-1.593 1.99-.612.919-.89 2.274-1.194 3.185-.314.944.232 1.955.399 2.787.16.8.562 6.579.398 7.564-.43 2.58-1.874 5.129-2.787 7.564-1.035 2.76-1.514 5.9-1.99 8.759-.179 1.075 0 2.5 0 3.583 0 2.52 1.645 1.471 3.583 1.194.327-.047 2.853.332 3.184 0 .699-.699.841-2.3 1.194-3.185 2.17-5.425 2.568-11.065 3.982-16.72.393-1.573 1.575-2.362 2.389-3.583 1.206-1.81 2.891-4.693 3.582-6.768 1.6-4.798.797-9.386.797-14.332 0-3.152-.262-6.416 0-9.555.27-3.244.796-6.691.796-9.952 0-.412-.322-2.787.399-2.787.133 0-.043.273 0 .399.187.563.633 1.021.796 1.592 1.054 3.689 1.934 7.45 2.787 11.147.208.905 0 1.858 0 2.787 0 1.964.618 3.612.796 5.573.12 1.322-.188 2.668 0 3.982.084.587.68 1.01.797 1.592.495 2.478-.213 5.123.398 7.564.782 3.13 3.811 4.836 5.175 7.564 1.177 2.354-1.435-.851.398 1.593.785 1.046 1.488 1.927 1.991 3.184.584 1.46 1.498 2.902 1.991 4.38.589 1.768 1.452 5.948 4.379 4.777 2.39-.956.163-.496 1.991-1.592.995-.597 2.439-.604 2.786-1.991.323-1.292-3.352-8.696-3.981-9.952-1.113-2.226.161-.156-.398-2.39-.824-3.296-1.414-6.7-2.389-9.952-.873-2.912-1.167-5.784-1.592-8.758-.07-.489.051-5.176 0-5.176-.479 0 .509.812.796 1.195 1.061 1.414 1.723 4.02 2.389 5.573 1.145 2.671 1.895 5.78 3.185 8.36 2.372 4.744 7.243 8.224 9.953 12.74.463.772.512 2.105 1.194 2.786.215.216 3.629 3.514 4.379 2.39.791-1.187 3.98-7.168 3.583-8.36-.876-2.626-3.268-4.902-4.778-7.167-1.142-1.714-1.694-3.826-2.786-5.573-1.521-2.434-4.067-4.358-5.574-6.768-.994-1.59-.68-2.837-1.194-4.38-.338-1.015-1.042-1.869-1.592-2.786-1.514-2.524-7.166-5.959-7.166-9.157 0-.12.505.673 2.389 1.991 2.266 1.586 5.069 2.91 6.767 5.175 2.893 3.857-.843-.046 1.593 2.39 1.774 1.774 4.69 2.3 6.369 3.98 1.122 1.122 2.307 4.11 3.185 5.574.497.828.501 2.492 1.194 3.185.827.826 2.777 2.546 3.981 2.786 1.952.39 5.152 1.05 5.574 3.583.411 2.467-.213 5.161-.398 7.564-.181 2.347-.521 7.264 0 9.555.409 1.803 1.364 3.437 1.99 5.175 1.855 5.151 3.92 10.496 4.777 15.925.27 1.704-.114 3.454 0 5.175.043.644 1.234 6.69.797 7.564-.2.4-3.983-.177-5.972-.398-10.42-1.158-20.989-.994-31.45-1.592-7.179-.41-14.325-.334-21.498-.797-9.294-.6-18.564-1.536-27.867-1.99-11.126-.543-22.39-.763-33.441-1.991-4.74-.527-9.638.503-14.332.797-4.864.303-9.853 0-14.73 0-7.968 0-15.935.069-23.887-.399-3.335-.196-6.197-.756-9.554-1.194-2.515-.328-5.089-.246-7.565-.796-1.106-.246-2.091-.896-3.184-1.194-2.14-.584-4.632-.792-6.768-1.593-5.849-2.195-14.752-8.656-20.703-7.168z"
        fill="#867AAC" />
      <path
        d="M-116.171 69.228c8.568-4.477 22.659 3.4 31.053-.797 3.413-1.707 6.545-2.233 10.35-3.185 5.076-1.269 11.162-5.58 15.925-7.961 15.53-7.766 28.572-15.128 45.384-15.128 1.665 0 6.445-.759 7.962 0 5.395 2.697 11.903 1.97 17.517 4.777 6.935 3.467 15.604 7.06 23.09 9.555 4.842 1.614 11.033-.038 15.924 1.592C58.178 60.462 65 66.656 71.736 70.024c6.495 3.248 15.33-.148 22.293 1.592 4.8 1.2 8.994 4.666 13.536 5.574 5.722 1.144 14.941-2.482 19.905 0 3.786 1.892 7.668 1.676 11.943 2.389 4.527.755 10.462 2.046 14.332 3.981 5.196 2.598 22.279-1.202 32.645 3.981 4.9 2.45 12.73-2.192 18.313-.796 11.496 2.874 30.2 3.734 41.403 0 4.268-1.423 8.873 1.962 13.535.796 6.729-1.682 13.323-1.592 20.702-1.592 2.068 0 16.271-2.838 18.312-.797 2.759 2.76.849 14.646 1.593 19.109 2.716 16.296 8.26 32.357 6.369 49.366-1.093 9.841-4.153 19.487-4.777 29.459-.598 9.57 3.061 53.595 0 59.716-1.673 3.346-9.362 1.119-11.943.797-18.265-2.283-37.347-.353-55.735.796-39.748 2.484-79.695 3.235-119.432 5.573-17.722 1.043-35.51 2.531-53.346 1.593-40.8-2.148-81.784-4.614-122.617-7.166-7.541-.472-60.786-.274-63.698-3.185-.574-.575 2.197-9.005 2.389-10.351.799-5.594 0-11.866 0-17.516 0-28.811-3.168-60.61 1.593-89.177.643-3.858-.767-8.111 0-11.943 1.248-6.241.35-12.895 1.592-19.109 1.538-7.686 3.186-16.235 3.186-23.886z"
        fill="#786EA4" />
      <path
        d="M170.465 114.612c-13.562 1.013-28.341 3.324-42.199 1.592-14.85-1.856-29.367-8.993-42.996-13.535-6.685-2.229-14.452-1.776-21.498-3.185-9.923-1.985-18.403-4.011-27.867-7.166-4.55-1.516-10.471.135-15.128-.797-11.5-2.3-23.29-2.837-34.237-5.573-7.496-1.874-16.3 1.517-23.887 0-6.838-1.368-13.88-3.413-20.701-4.777-1.538-.308-54.266-1.47-55.735 0-5.572 5.572-3.566 69.269-3.981 78.825-.708 16.265 2.899 33.132 3.981 49.365.461 6.911-2.587 32.446 1.592 36.626 2.56 2.559 55.849 5.995 59.716 6.369 79.221 7.667 158.621 7.464 238.068 9.555 22.217.585 44.629 1.646 66.882 2.389 11.104.37 26.256 3.588 37.422.796 7.364-1.841 11.219-13.062 12.739-19.905 2.544-11.449 1.747-21.886 2.389-33.441 1.808-32.544.536-64.974-2.389-97.138-.406-4.474-1.496-30.16-3.981-32.645-.382-.382-6.311 2.971-7.166 3.185-6.604 1.65-14.455 4.839-20.701 7.962-8.663 4.331-18.854 2.764-27.867 6.37-7.505 3.001-15.465 6.652-23.887 8.758-6.865 1.716-19.933.275-26.275 2.388-6.702 2.235-16.148 3.982-22.294 3.982z"
        fill="#645B96" />
      <path
        d="M257.651 42.156c-.692 0-.566 1.76-.797 1.99-.094.095-.265 0-.398 0l-.795 1.195c-.382 2.04-.362 3.906-1.195 5.573-.478.955.477 2.628 0 3.583-.168.336-.628.461-.797.797-.419.84.638 3.343 0 3.98-.225.226-1.296.5-1.592.797-.73.73.331 3.251-.399 3.98-.94.94 1.426 2.954.797 3.584-.73.73-3.251-.332-3.981.398-1.075 1.075 1.32 1.32 1.592 1.593.824.823-1.258-.032.399.796.252.127 3.81.17 3.184.796-.973.973-3.108.72-3.98 1.593-.199.199.199.995 0 1.194-.013.013-.035.008-.054.012.448-.018 1.187-.073 1.248-.012.178.179 2.069 1.435 1.99 1.593-.764 1.528-3.705 1.315-4.777 2.388-1.293 1.293 3.416 1.362 2.389 2.39-1.305 1.303-3.731 1.74-4.777 2.786-.679.678 4.616.636 4.777.796 1.319 1.32-3.558 3.557-3.982 3.98-1.356 1.357 4.035 2.337 3.185 3.186-.166.167-.953.277-1.194.397-.587.294-.798 1.196-1.195 1.593-.133.133-1.062.266-1.195.398-.331.332.332 1.66 0 1.991-.859.859-1.261 3.252-1.99 3.98-.59.591.716 1.115.797 1.195.144.145-2.123 3.119-1.195 3.583.625.313 3.142-.042 3.582.399.386.385.512 2.9.797 3.184.639.64 3.955 1.169 3.98 1.195l1.991 1.991c1.022 1.021-.268 6.897.398 7.563.188.188.531 0 .797 0 3.398 0 .129-5.24 2.388-6.37a7.191 7.191 0 003.185-3.184c.121-.241-.184-1.011 0-1.195.199-.199.995.199 1.194 0a7.117 7.117 0 011.078-.893c.128.116.259.233.376.348.983.874 2.156 1.519 3.241 2.227.714 1.098 1.281 2.431 2.532 3.024 1.201.95 1.36 2.637 1.149 4.049.026.758.649 1.752 1.517 1.47.859-.382.793-1.505.581-2.265-.228-1.746-.05-3.862 1.48-4.994 1.269-.885 3.146-.78 4.074-2.163.414-.86.821-2.079 1.955-2.133.348-.049.711-.044 1.065-.08-.005.082.005.158.061.216.381.38 3.351 1.077 4.379 1.592 1.086.542 3.59 0 4.778 0 6.905 0 9.156-.855 9.156-8.759 0-.443.323-3.333 0-3.98-.169-.336-.629-.461-.797-.797-1.595-3.19-1.16-7.033-1.99-10.35-.26-1.04-.889-1.87-1.195-2.788-.701-2.102.914-6.93 0-8.758-.732-1.463-.498-2.589-.796-3.185-.475-.95-1.173-.752-1.593-1.593-.527-1.054 0-3.528 0-4.777 0-1.513-.132-2.254-.797-3.583-.383-.766 0-2.776 0-3.583 0-2.232-.276-3.897-.795-5.971-.176-.703-.048-3.584-.398-3.584-.531 0 .104 1.072 0 1.593-.058.291-.265.531-.398.797 0 .53.075 1.067 0 1.593-.107.748-.591 2.1-.729 3.286l-.068-.102c-.698 2.355-1.031 3.654-1.99 5.574-.259.517-1.42.85-1.592 1.194-.378.756 1.384 2.596.795 3.185-.188.188-.558-.119-.795 0-.587.293-.798 1.195-1.195 1.593-.265.265-.929.133-1.195.398-.184.184.121.953 0 1.194-.084.167-.398.21-.398.398 0 .845 4.708-.588 3.583 2.787-.344 1.034-2.222.862-2.786 1.99-.387.773 1.039 2.058.796 2.787-.503 1.51-1.986 1.583-2.787 3.185-.095.19.82 1.943.398 2.787-.18.36-1.255 1.133-.796 1.592.039.04.889.305.398.796-.231.23-1.361.566-1.592.797-.624.624-.769 4.365-.796 4.379-.238.118-.559-.12-.797 0-.062.03-.087.27-.094.587-.535-.164-1.033-.382-1.334-.904-.106-.835 1.13-.661 1.306-1.316-.073-.761-1.013-.883-1.595-1.103-.652-.183-1.551-.305-1.805-1.027-.017-.848 1.019-.974 1.494-1.438.304-.732-.585-1.366-1.255-1.28-.468-.094-.966-.218-1.311-.572.561-.765 1.831-.165 2.318-1.027.403-.232.948-.855.455-1.266-.697-.439-1.696.186-2.281-.515-.25-1.097.287-2.28-.257-3.326-.223-1.27-.966-2.37-1.743-3.361-.458-1.35-.285-2.824-.745-4.173-.459-3.336-.325-6.815-1.639-9.98-.116-.233-.365-1.174-.417-.92l-.018.303c-.017 1.056.036 2.12-.14 3.166-.95.893-.925 2.384-.46 3.514-.209 1.974-.33 3.96-.269 5.945-.335.597-1.301.832-1.183 1.655-.091.845.147 1.832-.468 2.531-.741-.082-1.014 1.01-.448 1.404.205.31.467.73.241 1.097-.953.005-1.602 1.456-.697 2.01.975.865.841 2.306.545 3.447-.128.636-.17 1.32-.365 1.94-.943-.102-2.442.353-2.964-.17-.094-.093 0-.264 0-.397-.265-.266-.484-.588-.796-.797-.618-.412-.259.676-.797-.398-.123-.247 0-1.415 0-1.592 0-.42-.398-1.007-.398-1.194 0-.483 3.982 1.37 3.982-.399 0-2.625-1.34-.543-2.389-1.593-.199-.199-.199-.597-.398-.796-.188-.188-.609.188-.797 0-.191-.191-.502-6.663 0-7.165.612-.612 1.019.352 1.593-.797.376-.751-.398-.664-.398-1.195 0-.69-1.218-.446-1.593-1.194-.017-.034 1.525-2.622 1.195-2.787-.238-.119-.545.084-.797 0-1.686-.562-.956-2.31-1.591-3.583-.16-.318.159-.876 0-1.194-.369-.738-1.622-.457-1.991-1.195-.341-.682-.398-4.159-.398-5.176 0-1.061.132.133-.398-.398-.863-.862.862-4.313 0-5.175-.469-.469-.797-.168-.797-1.194.004-1.51.541-3.183.403-3.183zm-8.016 31.86l-.073.003c.029.006.05 0 .073-.002zm-.073.003c-.122-.025-.271-.108-.271-.014 0 .018.112.02.271.014zM266.45 86.64c.124 1.552-1.161 2.757-2.553 3.221-.137-1.205-.182-2.489.035-2.975a.84.84 0 00.306.04c.723-.136 1.471-.209 2.212-.286zm12.646 3.828c.023.411.052.916.052 1.053 0 .332-.063.655-.152.973-.584-.25-1.3-.643-1.241-1.37.336-.475.82-.612 1.341-.656zm-.65 5.297c.025.06.055.12.086.18-.039-.04-.082-.075-.119-.117.01-.023.022-.041.033-.063z"
        fill="#4E4884" />
      <path
        d="M171.261 140.887s20.701-3.185 31.849-7.962c11.147-4.777 23.09-9.554 30.256-13.535s47.773-9.555 47.773-9.555l22.293-2.389-1.592 132.968H-87.508s-36.626-1.592-35.83-5.574c.796-3.981 2.389-128.986 2.389-128.986s54.142 5.573 85.99 10.351c31.85 4.777 92.362 13.535 105.897 19.905 13.536 6.37 31.052 12.74 40.607 14.332 9.554 1.592 59.716-9.555 59.716-9.555z"
        fill="#4E4884" />
      <path
        d="M55.81 194.233c-4.914-1.751-8.251-7.455-11.147-10.351-.686-.685-3.115-.363-3.981-.796-4.652-2.326-7.343-6.959-12.74-8.758-3.21-1.07-7.283-.855-10.35-2.389-8.522-4.261-17.55-9.173-26.276-13.536-6.879-3.439-16.49-3.904-23.886-6.369-4.27-1.424-8.945-6.616-14.332-7.962-12.717-3.179-25.408-5.556-38.218-8.758-2.487-.622-26.656-5.989-28.664-3.982-4.775 4.776-4.185 39.077-4.777 46.181-1.708 20.492-4.074 42.527 0 62.9.146.731 2.021 11.29 3.982 11.944 8.903 2.968 21.035.201 30.256.796 31.334 2.022 62.536 2.312 93.953 3.185 46.721 1.298 93.428 4.016 140.134 5.573 34.922 1.165 69.338 4.777 104.304 4.777 7.133 0 41.017 1.979 46.18-3.184 1.643-1.643.955-11.78 1.593-14.332 2.41-9.64.83-20.353 1.592-30.256 1.905-24.771.796-49.19.796-74.048 0-2.782 2.757-12.371.797-14.332-.083-.083-38.593 10.281-43.792 11.147-8.772 1.462-16.407 5.204-24.682 7.962-3.87 1.291-23.049 3.939-24.683 5.574-2.224 2.224-13.29 5.958-17.517 7.166-12.639 3.611-29.768-1.04-41.402 4.777-9.348 4.674-19.348 10.633-29.46 15.128-8.589 3.816-58.722 14.183-67.68 11.943z"
        fill="#443F73" />
      <path
        d="M3.987 112.525c-.675-.308-5.347 2.506-5.747 3.055a23.09 23.09 0 00-1.47.358c.301-.413.578-.967.912-1.364.66-.788 2.325-1.593 2.749-2.464.052-.108-.236.056-.339.116-.895.524-1.742.933-2.416 1.781-.617.776-1.293 1.489-1.929 2.243-.647.217-1.268.46-1.868.732.087-.209.164-.431.198-.501l2.772-5.693c.158-.325-.566.457-.785.744-.64.842-1.152 1.748-1.728 2.68-.597.968-.88 2.107-1.273 3.162-.344.176-.68.362-1.01.558.796-1.071.965-2.859 1.318-4.049.212-.718.385-1.369.714-2.046.037-.076.19-.255.11-.228-.452.156-1.178 1.358-1.397 1.714-.5.812-.835 1.807-1.047 2.729-.172.748-.29 1.52-.354 2.286-.593.385-1.165.802-1.72 1.253.913-1.39.88-3.674 1.093-5.284.112-.851.195-1.668.37-2.496.036-.171.184-.668.108-.511-1.457 2.99-2.21 4.83-1.79 8.47a24.148 24.148 0 00-2.105 1.991h-.02c1.416-1.546.7-2.894.857-5.049.016-.22.052-2.884.073-3.266-.031.155-.144.501-.158.549-.738 2.491-.084 5.371-.88 7.882l.065-.069c.005.005.005.01.005.015a35.391 35.391 0 00-2.473 2.968c-.081.108-.237.328-.392.549.1-.458.306-1.071.155-1.509-.3-.872-.477-2.21-.489-3.337a21.098 21.098 0 00-.196-2.49c-.012-.093.038-.368-.004-.283-1.12 2.302-.965 5.854.198 8.108-.609.918-1.312 2.116-1.161 2.55.302.878 1.147-.956 1.557-1.94 1.03.667 3.73 1.474 4.614 1.705.54.142 1.231.163 1.602.179-.77-.248-2.927-1.387-2.974-1.411-.922-.448-.38-.252-1.195-.44-1.439-.332-.856-.275-1.94-.302l.122-.302c.285-.586.699-1.308 1.178-2.005 1.51 1.877 2.816 1.837 5.005 2.902.678.331 1.633.384 2.055.452-1.033-.519-5.757-3.302-6.93-3.542.412-.58.866-1.132 1.338-1.558.073.24.136.285.207.492.2.58 4.95 1.613 5.801 2.261.211.161 1.274.887 1.594.776.101-.035-1.462-1.628-1.775-1.851-.6-.426-1.42-.717-1.939-1.225-.877-.858-2.236-.847-3.44-.819a3.3 3.3 0 01.258-.168c.589-.345 1.08-.683 1.53-1.016.53.093 1.284.555 1.696.756 1.496.728 3.763 2.115 4.794 3.46.09.117.475.389.79.666-.075-.255-.15-.517-.224-.672-.607-1.28-1.43-2.081-2.692-2.86-1.208-.745-2.493-1.209-3.813-1.715l-.13.045c.518-.404.99-.8 1.497-1.189 1.006.764 4.76 2.374 6.07 2.651.885.187 1.68.919 2.56 1.106.026.005.417.095.694.185-.42-.309-1.187-.989-1.27-1.029-2.427-1.181-5.165-3.524-7.913-3.017 1.082-.816 2.375-1.602 4.654-2.37 4.534 1.12 5.052 2.221 6.887 3.508a4.44 4.44 0 00-.66-1.323c-1.085-1.416-3.84-2.093-5.89-2.297.393-.126.807-.253 1.26-.379.326-.09.664-.161 1.01-.22 1.405.641 3.598 1.481 5.02 1.466.152-.002 1.564-.028 2.168.071-.318-.159-.813-.408-.869-.425-1.63-.482-3.149-1.108-4.767-1.323 1.8-.208 3.642-.383 4.965-1.397-1.538.113-3 .734-4.522.897-.144.016-.285.034-.427.051.934-.622 1.962-1.607 2.617-1.943.201-.104.881-.745.881-.745zm-11.03 14.693c.122.062.21.102.215.091.02-.041-.067-.067-.216-.091zm-2.252 1.106c.152.048.251.063.27.027.006-.013-.11-.02-.27-.027zm-2.443-14.877c.008-.042.013-.073.005-.076-.004-.001-.004.046-.005.076zm10.987 5.802c-1.698-.849-3.614-1.43-5.105-1.749 1.356.661 3.896 1.453 4.785 2.612a4.53 4.53 0 001.714 1.398c.695.338 1.334.79 1.994 1.111.252.123.742.403 1.073.603-.405-.376-.928-1.158-1.196-1.508-.754-.985-1.944-1.806-3.265-2.467zm-13.042-3.953c-.004 0-.007.008-.015.023-1.178 2.418-1.293 5.631-.594 8.162.939-1.928.635-3.703.448-5.839-.054-.625.048-1.295.093-1.926.008-.117.088-.426.068-.42z"
        fill="#4E4884" />
      <path
        d="M281.219 89.747c.187.004.668.93.775 1.098 1.358 2.118 1.731 4.121.807 6.57v.016c.395-.551 2.64-1.463 3.157-1.962.094-.091.521-.641.662-.639.198.004-.109.382-.155.576-.138.571-.411 1.204-.681 1.722-.57 1.088-1.718 2.177-2.963 2.483.02 1.493.046 3.002-.09 4.462 1.045-.945 2.434-2.125 3.278-3.4.228-.345.639-.892.745-1.287.018-.065.068-.153.117-.238a.588.588 0 01.027.24c-.158.724-.442 1.319-.686 2.011-.688 1.946-1.833 2.944-3.471 4.128-.026.018-.137.086-.23.143-.082.477-.163.954-.267 1.428.87-.43 1.748-.862 2.447-1.536.255-.246.548-.479.737-.782.074-.119.125-.458.223-.357.089.092-.545 2.255-.625 2.59a2.498 2.498 0 01-.382.84c.005.007.005.013.006.021.231 1.138.309 2.363.734 3.454.077-.278.147-.565.23-.835.149-.49.335-1.017.497-1.541l.04-.184c.127-.583.041-1.279.106-1.877.129-1.185.701-2.468 1.004-3.595.009-.033.072.04.071.074-.005.302.019.71.054 1.013.126 1.093.321 1.774.02 2.891-.246.912-.605 1.798-.962 2.676a11.807 11.807 0 01-.435 2.086c.593-.392 1.082-1.117 1.415-1.727.317-.58.672-1.343.758-2.01.016-.12.173-1.37.242-1.368.03 0 .199.695.203.726.103.826.058 1.472-.103 2.042.193.122.389.253.423.277.871.604 1.694 1.467 2.516 1.959.018-.81.04-1.574.068-2.258a5.608 5.608 0 01-.763-.536c-.702-.607-3.166-3.689-2.523-4.309.009-.008.475.474.568.516 1.488.67 1.955 2.049 2.775 3.26.048-.851.102-1.57.164-1.906.048-.258.109-.537.159-.803-.992-1.054-2.012-2.247-2.537-3.576-.043-.11-.366-1.137-.34-1.162.033-.032.158.119.214.148 1.044.546 1.942 1.629 2.553 2.647.073.121.07.363.21.365.011 0 .024-1.991.038-2.095.179-1.25.583-2.197 1.001-3.378.03-.087.401-1.248.517-1.225.005 0 .008.003.011.006.28.29.274.764.34 1.162.296 1.774-.003 3.568-.985 5.063-.02.183-.027.269-.043.423.706-.241 2.292-1.239 2.547-1.484.213-.206.455-.576.735-.709.043-.021-.132.61-.383 1.149-.174.373-2.462 3.432-3.131 3.385-.081.535-.169 1.066-.257 1.596 2.56-2.163 1.856-1.378 3.502-3.245.367-.417.469-.593.504-.584.005.001.009.007.012.015.086.276.007.579-.016.867-.147 1.826-1.416 2.823-2.742 3.78-.255.185-1.19.297-1.308.411-.005.005-.084.061-.132.098-.074.682-.129 1.37-.163 2.064.806-.791 1.768-1.371 2.677-2.047.371-.277.67-.678 1.1-.847a.135.135 0 01.037-.011c.15-.014-.24.506-.34.728-.162.358-.354.619-.595.929-.227.292-.36.646-.594.929-.617.743-1.72 1.315-2.329 1.892-.004.488.004.976.02 1.466.029.001.059.003.08-.002.258-.388.54-.9.889-1.213.257-.23 2.72-1.883 2.978-1.834a.025.025 0 01.018.01c.129.188-.152.43-.229.646-.571 1.615-1.727 2.263-3.021 3.197-.116.085-.463.503-.638.653.05.656.121 1.308.208 1.957l.023-.016c.503-.934 1.534-1.342 2.289-1.998a.726.726 0 01.062-.2c.005-.004.029.029.066.078.051-.049.105-.094.152-.146.501-.548.946-1.146 1.441-1.697a3.603 3.603 0 01-.102-.448c-.028-.301.012-.633.017-.939.004-.072-.068-.217.004-.216.079.002.561.654.637.734.707.733 1.378 1.489 1.755 2.471a61.4 61.4 0 00.558-1.049c-.774-1.337-1.758-4.445-1.315-4.656.28-.134 1.565 1.549 2.306 2.682.194-.409.434-.89.558-1.185.109-.258.227-.617.351-1.021-.672-.386-1.5-2.044-1.729-2.689-.152-.428-.855-2.015-.389-2.464.057-.056.743.982.776 1.025.55.735 1.125 1.529 1.402 2.41.019.062.153.416.248.654.233-.844.48-1.799.732-2.729-.161.035-.318.104-.439.062-.711-.252-.832-1.741-1.041-2.332-.041-.116-.624-1.457-.624-1.457.583-.562 2.215 2.308 2.417 2.212.264-.126.585-3.446.646-3.746.137-.683.592-1.101.825-1.72.009-.022.56-1.847.611-1.795 1.047 1.087-.175 6.521-1.413 7.61l-.029.121c.841-.762 2.225-.692 3.275-1.194.427-.204.787-.367 1.168-.629.046-.032.137-.078.21-.12-.145.218-.408.777-.44.839-.461.881-2.219 2.291-3.223 2.398-.396.043-.849-.019-1.256-.125-.1.475-.202.955-.284 1.398-.054.294-.13.582-.198.872.829-.585 1.748-1.063 2.665-1.478.534-.241.558-.164 1.017-.271.075-.017.273-.122.218-.068-1.783 1.77-2.2 2.688-4.101 3.033-.032.006-.08.019-.133.035a32.259 32.259 0 01-1.178 3.229c1.125-.321 2.047-1.058 3.156-1.424.392-.129 1.394-.501 1.231-.122-.603 1.404-1.55 1.699-2.713 2.191-.281.119-1.651.765-2.391.978-.246.543-.483 1.088-.731 1.63a13.54 13.54 0 011.427-.76 7.26 7.26 0 011.309-.482c.589-.152 1.174-.055 1.738-.186.023-.005.232-.126.29-.066.121.125-.709.787-.81.852-1.303.836-2.851 1.597-4.369 1.872-.033.006-.089.027-.154.051-.172.389-.354.775-.518 1.165-.01.024-.023.045-.034.068.819-.237 1.644-.279 2.564-.167.366.045 1.391.04 1.08.237-2.461 1.559-2.455 1.813-4.375 2.161-.124.022-.508.106-.863.151-.399.473-.808.943-1.189 1.402-1.304 1.57-2.25 3.589-3.703 4.991-1.057 1.02-2.381 1.628-3.515 2.538-2.289 1.838-4.691 3.673-6.456 5.375-1.372 1.323-2.06 8.279-2.35 10.075-.149.926-.423 6.018-.264 6.643.216.853.976 1.635 1.697 2.054-.032 1.76-6.461 1.103-7.374.156-.724-.751 2.633-1.97 2.934-2.403 1.004-1.45 2.355-11.394 1.38-12.405-1.956-2.029-4.172-5.208-6.368-7.486a66.923 66.923 0 01-1.58-1.689c-.093-.015-.238-.038-.268-.046-.803-.195-1.779-.199-2.595-.306-.812-.106-1.805-.584-2.787-1.128-.216.099-.285.04-.592.137-1.694.531-3.175.685-4.916.128-1.218-.39-1.614-.654-1.578-.679 1.169-.803 2.774-.512 3.981-1.313-.053-.026-.104-.057-.157-.084a3.127 3.127 0 01-.185.018c-.649.029-1.301-.002-1.95-.035-2.347-.121-3.87-.614-5.762-1.901.195.04.393.07.592.074 1.108.02 2.218.055 3.324-.012.42-.026.77-.105 1.013-.18-.119-.101-.231-.209-.347-.313l-.007-.001c-1.607-.352-3.091-.32-4.53-1.238a13.285 13.285 0 01-1.141-.816c-.254-.202-.476-.44-.711-.662-.025-.023-.101-.09-.071-.074 1.258.658 3.068.672 4.462 1.02l.267.063a41.743 41.743 0 01-1.403-1.612 7.292 7.292 0 00-.28-.066c-2.693-.563-5.426-1.163-6.723-3.879-.102-.215.44.182.645.3 1.419.822 2.508 1.49 4.16 1.738.188.028.419.047.651.062a15.304 15.304 0 01-.469-.571c-1.377-.598-2.628-1.211-3.671-2.373-1.202-1.338-.819-1.148-1.615-2.631-.105-.196-.621-.616-.424-.514 1.034.541 1.564.108 3.09.924 1.576.842 2.686 1.975 3.623 3.461 1.265 2.005.057.182.652 1.251l.267.304c.12-.655-.359-3.085-.521-3.643-.163-.567-.709-1.226.153-.431.276.254.564.503.78.809 1.352 1.916 1.286 4.42 2.559 6.406.015.024.032.047.048.071.257.208.504.38.736.494.3.147.575.315.85.482-.28-.432-.748-.873-.835-1.322-.275-1.426.008-1.275.117-2.455.031-.336.06-.677.018-1.011-.025-.204-.412-.586-.206-.582 1.636.03 2.272 4.831 2.976 6.805.816.619 1.642 1.246 2.646 1.8-.242-.633-1.055-1.589-1.257-2.167-.413-1.177-.202-.992-.392-2.319-.122-.857-1.437-3.733 1.304-.194.667.862 1.197 1.838 1.61 2.847.283.69.443 1.773.575 2.667.755.269 1.604.491 2.581.643-.8-1.044-1.523-2.139-2.073-3.29-2.034-4.259-2.023-9.219-3.769-13.569l-.077-.026c-.441-.119-.94-.096-1.376-.23-.756-.231-1.459-.643-2.126-1.06-.715-.447-1.251-1.047-1.862-1.617-.383-.358-.715-.627-.653-.625.331.006.832.185 1.17.276 1.481.399 2.912.925 4.163 1.775-.326-.602-.742-1.347-1.175-2.118-2.117-.042-3.962-1.307-5.349-2.951-.106-.125-.926-.734-.923-.883.004-.171.335.057.504.081.454.065.919.215 1.368.314 1.183.258 2.183.584 3.16 1.227-.144-.254-2.645-2.763-3.189-3.613-.075-.117-1.108-2.026-1.048-2.042 2.264-.616 4.311 4.169 5.103 5.535.198.266.399.552.599.83a3.235 3.235 0 01-.1-.411c.006-.318-.556-5.393 1.157-4.026.336.269-.135 4.616-.174 5.71 1.063 1.587 2.06 3.298 2.697 5.031.126-.569.341-1.141.566-1.706-.823-1.178-2.151-3.42-2.383-4.109-.017-.047-.302-1.233-.267-1.233.141.002.494.43.641.518 1.289.768 2.128 1.796 2.677 3.096.095-.274.188-.546.245-.803.08-.369.139-.739.197-1.11-.935-.656-3.05-2.84-3.296-3.355-.005-.005.336.066.36.079.391.204.813.295 1.22.456.682.27 1.3.394 1.716 1.043.055.086.121.178.187.274.039-.43.068-.862.089-1.295-.322-.172-.76-.499-1.039-.727-1.187-.968-2.044-1.917-2.832-3.231-.124-.206-.403-.318-.497-.515-.098-.206.428.162.647.229.622.19 1.198.56 1.792.827.705.318 1.457.722 1.996 1.172a31.493 31.493 0 00-.066-2.458c-.307-.041-.672.041-.968.003-1.232-.159-2-.97-2.786-1.784-.19-.198-.646-.243-.641-.518.008-.484 4.142 1.448 4.309 1.451l.014-.001c-.004-.016-.004-.032-.004-.048-.049-.062-.186-.17-.221-.244-.208-.435-.339-.935-.553-1.383-.612-1.28-.748-2.58-.723-3.988l.016-.939c.005-.072-.067-.217.005-.216 1.59.03 2.204 4.773 2.061 5.89l-.079.175.009.05c.526-.797 1.644-1.37 2.483-1.77.04-.02.839-.6 1.047-.788-.011.051-.017.118-.025.155-.078.361-.212.722-.308 1.079-.299 1.108-.629 2.035-1.639 2.716-.646.434-.915.458-1.28.361.124.908.216 1.746.273 2.423.7-.528 3.163-3.035 3.604-2.52.481.562-1.161 2.319-1.642 2.86-.434.488-.813.94-1.397 1.275-.173.1-.361.164-.545.23-.04.604-.075 1.188-.118 1.524 1.259-.799 4.399-2.443 4.575-2.261.236.244-.501 1.089-.601 1.217-1.245 1.599-2.163 2.172-4.021 2.601-.07.016-.146.04-.224.063-.032.183-.033.202-.074.438-.097.551-.191 1.096-.291 1.636 1.009-.641 2.14-.905 3.386-.93.409-.009 1.512-.273 1.228.022-1.429 1.484-2.49 2.193-4.241 2.741-.092.029-.461.156-.816.24-.265 1.06-.601 2.097-1.088 3.111 1.921 5.905 4.224 11.451 8.051 16.416 1.034 1.342 2.739 2.172 3.988 3.251.958.828 1.326 2.258 2.112 3.073.349.362.292-.963.46-1.437.28-.792.664-3.907.942-4.174.176-.169-.068-.904.021-1.156.649-1.835-.225-3.938-.62-5.648-.364-1.577-.052-3.309-.344-4.92-.132-.725-.166-1.588-.142-2.507-.099-.279-.117-.711-.109-1.148-1.433-.843-2.124-1.645-2.729-3.408-.05-.145-.681-1.963-.398-1.959.152.003.071.299.136.436.253.53.496 1.103.912 1.534.621.644 1.4 1.21 2.146 1.763.031-1.187.098-1.994.195-2.612-1.098-1.258-2.164-2.852-2.317-4.497-.026-.28.011-.585.016-.867.004-.073-.068-.218.004-.217.108.002.071.209.139.292.618.747-.056-.202.566.66.41.568 1.373 1.85 1.963 2.943.096-.341.199-.697.318-1.167.104-.415.198-.757.291-1.09-.595-1.138-1.367-2.287-1.942-3.493-.114-.237-.757-2.903-.526-2.899.056.001.656 1.101.701 1.168.318.473.434.997.769 1.46.485.671 1.103 1.26 1.557 1.908.169-.52.326-1.004.445-1.46-.979-.951-1.896-2.967-2.3-3.922-.283-.668-.726-1.231-.978-1.896-.081-.214-.433-.658-.204-.655.16.003 1.209 1.083 1.35 1.253.23.279.495.587.706.88.375.519.815 1.004 1.202 1.539.235.326.402.697.533 1.081.044-.371.084-.785.121-1.285.042-.575-.021-1.674-.06-2.797a2.564 2.564 0 01-.179-.026c-2.649-.49-2.961-2.344-3.674-4.619-.06-.19-.189-.545-.349-.656-.045-.031-.192-.052-.144-.075.495-.236 3.775 2.74 4.34 3.323.004-.064.005-.13.009-.19-.042-.135-.103-.297-.135-.383-.154-.404-.353-.821-.484-1.237-.346-1.105-.044-2.772.071-3.9.053-.521.062-1.15-.042-1.664-.034-.163-.234-.506-.064-.504zm-28.124 35.994l-.057-.01c-.034-.007-.1-.094-.071-.074.043.03.085.055.128.084zm54.674-22.053c.035-.053.065-.092.082-.092.065.002.004.044-.082.092zm-20.898-4.539c-.033-.138-.067-.267.037-.266.108.002.04.13-.037.266zm-16.697-2.962c.005 0 .011.003.017.01.005.004-.017.028-.052.06.008-.04.019-.07.035-.07zm13.923 12.26a3.705 3.705 0 01-2.358.821c-.194.779-.382 1.559-.563 2.34.958-.602 2.34-1.728 2.989-2.094a28.79 28.79 0 01-.068-1.067zm4.276 1.692c-.312.761-.839 1.418-1.492 2.256-.081.103-.877.944-1.354 1.287-.199.686-.404 1.384-.585 2.002a18.61 18.61 0 01-.557 1.628.237.237 0 00.094.026l.078-.36.293-.212c.123-.118.231-.253.368-.354.853-.632 1.762-1.224 2.635-1.831.431-.3.679-.492.826-.614a1.432 1.432 0 01-.162-.169c-.324-.42-.448-1.201-.767-1.532-.072-.074.364.389.926.74.386.241 1.841 1.096 2.754 1.474.004-.481.008-.952.016-1.418-.9-.56-2.522-2.243-2.797-2.586-.011-.014-.14-.163-.276-.337zm-4.08.594c-.902 1.437-1.823 2.07-3.424 2.484-.044.747-.084 1.502-.115 2.258.657-.436 1.198-.995 1.687-1.606-.009-.278-.038-1.193.242-1.188.025 0 .123.3.212.587.173-.238.346-.477.514-.719.126-.182.316-.315.442-.498.065-.093.127-.397.146-.385.004.002.004.01.005.026.077 1.983.18 2.302-.283 3.681-.043.126-.09.239-.14.344.065.209.134.412.206.602.038-.066.116-.169.137-.22.38-.904.668-1.874.935-2.855-.257-.62-.44-1.555-.564-2.511zm4.492 3.329c-.252.674-.574 1.322-.914 1.958.155.235.329.456.595.595.653.342 2.123.566 2.974 1.037-.009-.599-.01-1.207-.012-1.815-.823-.484-2.05-1.265-2.643-1.775zm7.628.243c-.069.13-.146.272-.179.356-.241.593-.577 1.093-.897 1.645-.022.037-.109.146-.153.209.28.388.583.815.639.884.338.421.709.969.974 1.492.255-.393.512-.808.774-1.246-.371-.89-.896-2.435-1.158-3.34zm-8.586 1.795l-.152.284c-.206.377-.736.639-1.099.848-1.018.586-1.464.899-2.621 1.108-.007.001-.016.005-.024.007-.631 1.312-1.454 2.532-2.54 3.514.205.577.416 1.152.518 1.717.414 2.284.783 4.711.74 7.095-.021 1.164-.517 2.158-.473 2.16.737.013 3.738-3.063 4.691-3.673 2.429-1.557 3.474-2.706 4.991-4.632-.202-1.057-.317-3.01-.378-5.215-.72-.415-1.786-1.077-1.885-1.16-.377-.32-.712-.812-1.063-1.176-.26-.269-.471-.585-.705-.877zm-5.141.566c-.444.228-.982.324-1.6.467-.058.013-.22.072-.36.121.005.921.042 1.831.171 2.701a92.215 92.215 0 001.987-2.379 8.508 8.508 0 01-.198-.91zm11.99.499c-.641.783-1.574 1.834-2.151 2.278.199 1.127.454 2.236.77 3.311.618-.662 1.36-1.247 1.959-1.825.084-.081.186-.218.279-.322-.169-.506-.308-1.049-.394-1.341a17.481 17.481 0 01-.463-2.101zM221.997 97.203c.385-.953 4.803-3.648 5.828-2.623.833.833-1.287 4.054-1.894 4.662-.801.8-2.254 1.088-2.914 1.748-.344.344 2.708 3.469 2.04 4.808-.454.907-2.17.697-2.477 1.311-.728 1.457-.467 5.886 1.165 6.702.657.328 6.188-.423 7.576-.145 2.124.424 3.953 1.466 5.682 2.331.383.191.399.709.729.874.575.287 1.489-.402 2.04-.291 1.149.23 2.082.895 2.914 1.311.261.131 1.612 2.166 1.457 2.477-.484.966-2.011.64-2.768 1.02-.195.097-.728-.146-.874 0-.087.086.408 1.572.437 1.748.167 1.002 0 2.196 0 3.205 0 1.183-.384 2.464-.729 3.497-.591 1.774.037 4.043.583 5.682.134.401.59.749.729 1.165.685 2.056 1.456 3.569 1.456 5.828 0 .326.159 2.502-.291 1.602.157 3.514-.829 7.073-.146 10.49.135.675 1.047 2.569.729 3.205-.41.82-2.091 1.003-2.914.729-1.379-.46.509-8.891 0-10.927-.423-1.692-.791-3.184-1.603-4.808-.137-.274-1.743-3.351-1.311-3.351.27 0-.788 4.811-1.02 5.391-.994 2.484-1.562 5.211-1.894 7.868-.059.472-.146 4.224-.438 4.516-.371.371-2.315 1.246-3.059.874-.991-.496-.156-2.257.145-3.06 1.012-2.698 3.046-9.497 1.748-12.092-.663-1.326-1.806-2.903-2.914-3.788-.143-.115-1.513-2.275-1.602-2.185-.55.55-.707 2.277-1.02 3.059-.612 1.529-1.491 3.05-1.894 4.662-.629 2.515-.292 6.804-.292 9.47 0 .659.273 3.725-.437 4.08-.576.288-2.758 1.029-3.351.437-.491-.491.198-2.935.292-3.497.202-1.214.777-2.428 1.02-3.642.379-1.9-.214-4.048 0-5.973.237-2.138.582-4.255.582-6.411 0-1.053.568-4.371-1.311-4.371-.603 0-.814 4.125-.874 4.662-.489 4.4-.531 8.861-1.02 13.258-.149 1.344.302 4.943-.729 5.973-.072.073-3.431-.18-3.059-2.04.208-1.037.646-2.03.874-3.059.524-2.359.729-6.983.729-9.47 0-2.871.254-5.939-.146-8.742-.262-1.839-1.646-3.73-2.476-5.39-.685-1.369-.924-3.211-1.166-4.662-.459-2.755.146-5.852.146-8.597-.407-2.373.582-5.101 0-7.43-.472-1.887-.914-3.632-.438-5.536.085-.341 1.212-2.722 1.02-2.914-.224-.224-.868-.405-1.165-.583-.963-.577-1.683-1.639-2.186-2.476-.366-.61-1.473-3.335-.874-3.934.938-.937 6.015 2.518 6.702 3.206.056.055 3.656-.526 4.663.145z"
        fill="#443F73" />
      <path
        d="M17 158.418c-12.23 1.177-23.87 5.421-35.257 9.803 4.35 1.589 8.394-1.765 12.702-1.88 3.577-.799 7.279-1.27 10.94-.836-11.306 4.335-24.292 3.765-34.672 10.553-4.211 2.934-8.052 6.351-11.927 9.705 12.422-2.625 25.329-1.481 37.695-4.462-6.096 4.222-13.685 4.982-20.698 6.72-6.732.754-13.58-1.093-20.246.344-1.55.8-1.953 3.758.253 3.921 9.12 3.001 19.233.465 28.129 4.421-.29 1.289-2.094.568-3.034.986-7.463.515-14.771-1.552-22.186-1.99-4.002-.458-8.054-.674-12.07-.265-.98 2.49 2.463 4.29 4.49 3.285 8.187 1.444 16.327 3.268 24.623 3.984-7.313 2.809-15.307 1.884-22.952 1.931-4.637-.843-8.998-3.382-13.827-2.994-2.44 2.37.22 6.778 3.378 6.431 8.632 3.266 17.919 4.58 27.122 4.447-10.923 3.598-23.238 1.557-32.93-4.391-3.347-.361-6.205 4.706-3.209 6.899 4.843 2.483 10.528 1.94 15.571 3.797 2.703.536 5.454.813 8.139 1.442-8.892 1.879-18.292.38-26.486-3.416-1.997 2.37-2.72 5.743-5.384 7.55-1.172-5.065 4.012-9.66 1.761-14.675-3.042-9.569-.277-20.096 5.024-28.332 1.006 1.593-.695 3.347-.175 5.048l-1.397 23.906c8.964-7.143 13.164-18.43 15.363-29.335 1.24-6.048 3.445-11.888 6.416-17.296-3.746 10.713-5.79 21.919-9.265 32.712 6.083-3.574 8.131-10.989 8.761-17.575 2.77-8.967 7.548-17.106 11.927-25.349-3.535 11.84-7.815 23.439-12.169 34.997 6.787-4.684 9.4-12.946 11.845-20.409a122.184 122.184 0 019.124-16.012c-3.182 9.598-6.91 19.008-11.013 28.247 7.772-7.485 9.864-18.579 15.65-27.379 1.124-2.033 2.246-4.074 3.567-5.988-3.99 9.258-7.978 18.517-11.967 27.775 9.897-5.402 13.898-16.897 22.501-23.711 1.452-.172.291 1.553-.388 1.827-3.69 4.274-7.942 8.255-10.307 13.48 9.497-4.206 15.099-14.432 25.315-17.346.548-.54 2.723-1.078 2.28.164-4.245 2.692-9.142 4.871-12.01 9.205 6.227-2.529 12.278-6.187 19.17-6.408-6.465 2.291-13.71 4.837-19.002 8.57 6.775-2.405 14.255-3.977 21.354-2.059l-.53-.042zM5.68 174.827c-2.93 3.209-7.623 1.485-11.34 2.567-7.744 1.06-15.614.817-23.36-.098 11.56-.163 22.896-5.346 34.496-2.825.127.065.24.208.204.356zm-62.337-4.154c-4.858 10.56-4.107 22.635-8.416 33.36-1.659-1.296-.501-3.632-.978-5.375.027-10.329 4.269-20.112 9.705-28.706l-.311.721z"
        fill="#36325B" />
      <path
        d="M106.819 5.206c-2.607.296-10.422 5.095-11.615 5.886-4.96 3.29-9.712 11.79-15.072 13.567-10.739 3.56-20.506.924-30.946 2.085.269-.227.532-.418.802-.657 5.853-5.176 9.147-10.709 15.61-14.995.239-.159 8.074-3.895 8.074-4.285 0-.752-1.064-.531-1.615-.714C61.736 2.67 57.76 15.272 49.45 18.947c-2.146.949-3.502 4.464-5.383 5.712-2.964 1.965-6.944 3.547-10.227 4.999-9.186 4.062-19.165-.142-27.99 5.712-3.29 2.182-6.028 5.757-8.56 9.68-1.773-4.774-4.804-12.659-1.667-16.821.7-.928 8.185-20.278 7.536-20.709-.117-.077-3.208-1.428-3.23-1.428-.516 0-1.95 9.905-2.153 10.711-1.18 4.696-5.556 7.35-6.459 12.139-1.302 6.909 2.064 14.04 2.994 20.936-3.559 6.026-6.91 12.01-11.068 14.768-4.595 3.048-10.672 3.53-15.61 5.713-4.021 1.778-9.495-.486-13.456 2.142-.735.488-6.239 3.862-6.997 2.856-1.055-1.4.826-8.668 1.076-9.997 2.611-13.854 2.692-29.182 2.692-43.558 0-1.367 2.83-89.102-2.647-77.684-3.783 7.887-12.832-15.561-20.825 7.694-6.414 18.663-5.013 25.233-8.61 56.258.076 7.99-4.195 17.33-4.71 24.939-2.859-3.1-6.325-6.357-8.422-11.921-1.784-4.736-3.141-17.553-8.074-14.282-.578.384-1.614.57-1.614 1.429 0 5.209 4.888 11.661 5.92 17.137 1.116 5.919 1.834 12.858 4.845 17.851 1.748 2.899 3.59 5.738 5.668 8.256-2.464 21.999-6.218 43.284-8.36 66.008-1.06 11.263.916 36.131-2.69 45.701-2.761 7.322-6.089 17.314-7.536 24.992-.882 4.682-11.6 38.168-10.228 39.988 5.608 7.44 31.386 3.539 38.755 2.142 3.029-.574 6.668 2.142 8.613 2.142 2.199 0 4.304-1.071 6.459-.714 1.126.186 2.427 2.493 3.23 1.428 1.647-2.186-3.83-20.011-4.307-22.85-5.716-34.124 3.306-64.77 8.075-96.4.571-3.795-1.497-14.002 1.076-15.71 4.073-2.701 9.606-3.771 13.994-5.712 9.124-4.035 21.068-11.344 30.946-17.74 15.881-2.226 32.425-10.458 44.95-21.534 1.608-1.422 14.527-2.15 10.765-7.14-.22-.292-24.244 7.158-26.914 9.283-2.279 1.814-4.352 4.542-6.997 5.712-4.737 2.095-9.76 3.093-14.77 4.129.066-.237.142-.433.237-.559C2.976 57.75 4.785 48.214 12.31 42.51c10.404-7.887 19.892-5.445 30.89-11.59 3.395-.74 8.46-3.726 11.095-1.979 11.428 7.58 30.379 1.117 38.755-9.996 1.819-2.413 16.11-11.475 14.533-13.568-.125-.164-.391-.214-.764-.171z"
        fill="#36325B" />
      <path
        d="M-119.406 182.478c2.865-3.972 7.928-6.329 11.947-4.259 4.814 2.48 12.329 2.425 16.541 5.68 7.947 6.139 17.018 11.131 25.732 15.619 21.336 10.988 60.817 7.099 84.548 7.099 17.02 0 32.902 3.87 49.626 7.1 7.532 1.455 15.462-1.658 22.974 0 12.407 2.738 26.813 5.293 39.517 2.84 13.878-2.68 27.779-5.024 41.355-8.52 17.269-4.447 35.323-.408 52.383-5.68 9.249-2.858 18.733-3.795 28.489-5.679 16.488-3.185 31.752-9.94 48.706-9.94 2.274 0 11.649 67.197 11.028 68.156-1.626 2.512-9.83-2.431-11.947-2.84-11.332-2.188-23.561.585-34.922 0-12.887-.23-25.725-2.153-38.598-2.839-48.823-2.601-97.334-11.851-146.12-15.619-25.117-1.94-50.422.432-75.358 2.84-26.065 2.516-52.913 0-79.033 0-11.766 0-23.283 1.419-34.922 1.419-1.215 0-5.215 3.302-6.433 1.42-.139-.216-5.513-54.15-5.513-56.797z"
        fill="#36325B" />
      <path
        d="M309.782 129.856c-.297 0-1.088 1.46-1.263 1.723-2.219 3.327-2.87 6.502-1.47 10.422v.025c-.612-.889-4.156-2.402-4.963-3.21-.147-.147-.809-1.034-1.034-1.034-.315 0 .161.611.23.919.203.913.619 1.928 1.034 2.757.873 1.747 2.668 3.511 4.638 4.033-.074 2.374-.158 4.771.015 7.096-1.634-1.534-3.807-3.45-5.112-5.5-.353-.555-.991-1.438-1.149-2.068-.026-.104-.104-.245-.179-.381-.035.137-.071.279-.051.381.231 1.156.665 2.11 1.034 3.216 1.038 3.114 2.828 4.734 5.399 6.663.04.03.216.14.362.234.117.76.233 1.521.383 2.278-1.37-.709-2.754-1.42-3.846-2.512-.398-.398-.856-.777-1.148-1.264-.115-.192-.188-.732-.346-.574-.143.144.801 3.6.92 4.135.11.493.315.941.583 1.346-.003.011-.007.021-.009.033-.401 1.803-.559 3.747-1.267 5.469-.114-.442-.217-.901-.34-1.334-.224-.783-.504-1.625-.746-2.464l-.059-.293c-.186-.931-.028-2.034-.115-2.987-.171-1.887-1.043-3.944-1.493-5.743-.013-.053-.115.061-.115.115 0 .48-.051 1.128-.115 1.607-.231 1.735-.56 2.812-.114 4.596.364 1.458.91 2.875 1.453 4.281.101 1.135.321 2.194.632 3.329-.931-.641-1.687-1.807-2.2-2.785-.488-.932-1.03-2.154-1.149-3.218-.021-.191-.235-2.182-.345-2.182-.049 0-.337 1.099-.344 1.149-.187 1.308-.135 2.338.104 3.249-.309.187-.625.39-.678.427-1.403.935-2.737 2.283-4.057 3.042a191.438 191.438 0 00-.043-3.591 8.716 8.716 0 001.227-.831c1.134-.944 5.14-5.773 4.136-6.777-.014-.014-.769.74-.918.804-2.385 1.022-3.167 3.201-4.504 5.102-.053-1.355-.117-2.498-.207-3.034-.068-.412-.156-.857-.229-1.281 1.607-1.648 3.262-3.516 4.136-5.612.072-.174.614-1.797.574-1.838-.052-.051-.255.185-.344.23-1.676.838-3.135 2.533-4.136 4.135-.118.19-.121.575-.344.575-.017 0 .021-3.167 0-3.332-.249-1.992-.863-3.509-1.493-5.399-.046-.139-.603-1.996-.788-1.962a.03.03 0 00-.017.01c-.454.453-.458 1.206-.574 1.837-.521 2.812-.096 5.672 1.422 8.076.026.292.034.429.056.675-1.115-.403-3.608-2.036-4.005-2.432-.333-.334-.707-.928-1.149-1.149-.067-.034.191.974.575 1.838.266.598 3.816 5.526 4.881 5.471.113.852.237 1.699.362 2.544-4.008-3.512-2.911-2.244-5.473-5.259-.572-.672-.73-.956-.785-.942-.008.002-.014.01-.019.024-.145.435-.028.92 0 1.378.182 2.906 2.17 4.527 4.251 6.088.4.3 1.882.506 2.067.69.009.009.132.101.207.159.099 1.087.166 2.182.2 3.287-1.259-1.281-2.772-2.231-4.197-3.332-.583-.45-1.045-1.096-1.724-1.378a.236.236 0 00-.059-.018c-.238-.027.367.811.52 1.166.246.575.544.995.918 1.494.353.47.555 1.038.919 1.493.959 1.199 2.696 2.14 3.647 3.076a58.54 58.54 0 01-.074 2.329c-.046.001-.093.003-.127-.006-.398-.622-.833-1.446-1.378-1.953-.402-.373-4.27-3.071-4.681-3.002-.014.002-.023.007-.029.015-.211.296.229.69.344 1.034.862 2.584 2.68 3.647 4.711 5.17.183.137.721.812.997 1.056a56.235 56.235 0 01-.387 3.105l-.036-.026c-.773-1.499-2.4-2.177-3.583-3.241a1.136 1.136 0 00-.093-.32.585.585 0 00-.107.122c-.079-.079-.164-.153-.238-.236-.781-.885-1.47-1.849-2.242-2.74a5.51 5.51 0 00.175-.707c.053-.479 0-1.007 0-1.494 0-.115.115-.344 0-.344-.124 0-.91 1.025-1.034 1.149-1.145 1.145-2.233 2.327-2.86 3.878-.3-.575-.579-1.125-.858-1.684 1.27-2.103 2.921-7.015 2.224-7.364-.441-.22-2.533 2.417-3.742 4.196-.296-.654-.664-1.426-.853-1.898-.166-.414-.344-.988-.529-1.634 1.08-.594 2.444-3.205 2.827-4.225.253-.675 1.416-3.179.689-3.905-.09-.09-1.21 1.539-1.264 1.607-.896 1.152-1.833 2.397-2.298 3.791-.032.097-.255.656-.414 1.032-.345-1.348-.71-2.874-1.085-4.36.256.061.503.176.696.111 1.139-.379 1.373-2.743 1.723-3.675.069-.184 1.034-2.298 1.034-2.298-.91-.91-3.587 3.606-3.906 3.446-.415-.208-.832-5.495-.919-5.973-.198-1.091-.91-1.767-1.263-2.757-.013-.037-.838-2.955-.919-2.873-1.697 1.697.09 10.372 2.027 12.138l.044.193c-1.316-1.236-3.517-1.164-5.173-1.992-.672-.336-1.239-.606-1.838-1.034-.072-.051-.216-.129-.332-.197.226.351.627 1.248.677 1.347.707 1.414 3.461 3.706 5.054 3.905.629.079 1.351-.007 2.002-.162.145.756.292 1.523.41 2.23.078.469.19.929.289 1.392-1.301-.955-2.748-1.741-4.194-2.426-.842-.399-.881-.278-1.609-.46-.117-.029-.429-.202-.345-.115 2.784 2.865 3.42 4.337 6.434 4.939.051.011.126.033.21.06a51.18 51.18 0 001.78 5.167c-1.779-.543-3.225-1.741-4.977-2.354-.618-.217-2.202-.837-1.954-.23.92 2.248 2.416 2.746 4.252 3.561.443.197 2.602 1.263 3.773 1.623.374.87.736 1.744 1.115 2.613-.714-.472-1.484-.869-2.247-1.25a11.538 11.538 0 00-2.067-.804c-.932-.259-1.865-.122-2.757-.345-.036-.009-.366-.208-.459-.115-.196.196 1.105 1.273 1.263 1.378 2.049 1.366 4.488 2.621 6.893 3.102.052.01.14.045.243.086.263.622.54 1.241.79 1.867.015.037.035.072.05.109-1.294-.401-2.606-.49-4.071-.339-.582.06-2.212.023-1.723.345 3.867 2.549 3.851 2.952 6.893 3.561.197.04.805.183 1.367.265.62.764 1.257 1.522 1.85 2.263 2.027 2.535 3.473 5.771 5.743 8.041 1.651 1.651 3.739 2.657 5.514 4.136 3.586 2.988 7.352 5.973 10.109 8.73 2.143 2.142 3.037 13.219 3.446 16.083.211 1.477.499 9.58.23 10.568-.369 1.35-1.6 2.571-2.757 3.216 0 2.798 10.238 1.938 11.716.46 1.173-1.173-4.129-3.208-4.594-3.906-1.555-2.332-3.417-18.179-1.838-19.759 3.169-3.168 6.781-8.159 10.339-11.717.848-.848 1.71-1.729 2.559-2.639.149-.023.38-.054.428-.065 1.282-.288 2.833-.266 4.135-.412 1.293-.145 2.886-.877 4.462-1.713.341.163.451.072.938.234 2.677.893 5.028 1.18 7.811.345 1.947-.584 2.585-.993 2.528-1.034-1.834-1.31-4.395-.894-6.291-2.202.085-.041.168-.087.252-.129.108.013.227.029.294.033 1.032.064 2.069.034 3.102 0 3.735-.124 6.169-.866 9.214-2.857-.311.058-.627.1-.944.1-1.761 0-3.528.025-5.284-.114a6.99 6.99 0 01-1.605-.315c.191-.158.373-.326.559-.488l.011-.001c2.566-.514 4.923-.42 7.237-1.839.634-.388 1.249-.81 1.839-1.263.408-.314.767-.687 1.149-1.033.04-.036.162-.14.114-.115-2.018 1.009-4.895.979-7.122 1.493-.142.032-.284.062-.426.092a66.335 66.335 0 002.276-2.522c.143-.035.291-.067.447-.097 4.296-.818 8.658-1.693 10.799-5.974.168-.337-.705.276-1.035.46-2.279 1.266-4.028 2.296-6.662 2.643-.301.039-.668.063-1.036.082.267-.3.505-.582.761-.896 2.206-.911 4.212-1.85 5.904-3.667 1.948-2.093 1.335-1.802 2.642-4.136.172-.308 1.004-.962.689-.804-1.66.83-2.491.127-4.94 1.38-2.53 1.292-4.326 3.063-5.859 5.398-2.067 3.151-.095.287-1.073 1.97l-.432.476c-.173-1.045.659-4.895.931-5.777.276-.898 1.163-1.928-.23-.689-.445.395-.911.783-1.263 1.263-2.205 3.006-2.172 6.99-4.251 10.109-.026.039-.053.074-.079.112-.414.324-.812.591-1.184.765-.482.225-.923.484-1.366.741.459-.678 1.215-1.365 1.366-2.077.479-2.26.024-2.028-.115-3.906-.04-.535-.076-1.077 0-1.608.046-.324.672-.92.345-.92-2.601 0-3.75 7.615-4.926 10.734-1.315.96-2.645 1.933-4.258 2.785.403-1 1.723-2.497 2.061-3.409.689-1.86.35-1.571.689-3.676.219-1.358 2.391-5.893-2.067-.345-1.086 1.351-1.957 2.887-2.643 4.48-.468 1.089-.754 2.805-.99 4.222a22.51 22.51 0 01-4.121.949c1.301-1.637 2.481-3.357 3.388-5.171 3.356-6.712 3.482-14.597 6.382-21.462.04-.013.104-.035.123-.039.706-.177 1.497-.127 2.193-.325 1.209-.346 2.338-.981 3.411-1.625 1.149-.689 2.018-1.628 3.006-2.518.619-.557 1.154-.975 1.056-.975-.526 0-1.327.271-1.868.406-2.366.591-4.656 1.387-6.669 2.702a270.29 270.29 0 011.929-3.333c3.366-.005 6.336-1.963 8.588-4.536.172-.197 1.493-1.141 1.493-1.379 0-.271-.535.082-.804.115-.723.09-1.466.316-2.183.459-1.888.378-3.486.867-5.059 1.862.236-.401 4.284-4.317 5.174-5.652.122-.183 1.819-3.189 1.723-3.217-3.581-1.044-6.973 6.503-8.269 8.653-.324.417-.651.865-.977 1.301.093-.314.171-.586.171-.649 0-.506 1.038-8.558-1.723-6.434-.542.417.081 7.343.113 9.082-1.736 2.493-3.37 5.184-4.432 7.921-.185-.909-.51-1.824-.852-2.728 1.343-1.849 3.519-5.375 3.907-6.462.027-.076.516-1.953.46-1.953-.225 0-.797.669-1.033.804-2.073 1.184-3.436 2.794-4.344 4.845a11.13 11.13 0 01-.367-1.284 30.57 30.57 0 01-.282-1.77c1.505-1.015 4.931-4.426 5.337-5.238a6.333 6.333 0 00-.575.115c-.626.314-1.301.445-1.952.689-1.093.41-2.078.589-2.758 1.609-.09.136-.198.28-.306.43a51.921 51.921 0 01-.104-2.062c.518-.264 1.223-.77 1.674-1.125 1.915-1.505 3.304-2.989 4.595-5.054.203-.324.65-.494.804-.804.163-.325-.684.245-1.034.345-.995.284-1.921.856-2.872 1.263-1.132.486-2.338 1.107-3.207 1.806.01-1.265.06-2.586.174-3.905.49-.058 1.067.084 1.539.032 1.963-.218 3.208-1.485 4.48-2.757.309-.309 1.034-.368 1.034-.805 0-.771-6.626 2.183-6.892 2.183-.009 0-.015-.002-.022-.003.004-.025.004-.051.007-.075.08-.098.301-.266.359-.382.342-.685.566-1.477.919-2.183 1.009-2.017 1.264-4.081 1.264-6.317v-1.494c0-.114.114-.342 0-.344-2.53.002-3.64 7.526-3.446 9.306l.12.28-.016.079c-.813-1.283-2.575-2.226-3.896-2.887-.064-.032-1.317-.976-1.641-1.282.015.082.022.189.034.248.115.575.317 1.154.459 1.724.443 1.77.941 3.253 2.528 4.364 1.013.709 1.439.754 2.023.611a77.048 77.048 0 00-.503 3.844c-1.098-.859-4.941-4.915-5.657-4.11-.782.879 1.778 3.721 2.527 4.595.675.787 1.266 1.517 2.184 2.067.272.164.571.272.86.381.045.962.085 1.891.143 2.428-1.978-1.307-6.923-4.012-7.207-3.727-.382.382.764 1.746.919 1.952 1.933 2.577 3.376 3.515 6.319 4.251.11.027.23.066.353.106.047.291.047.322.106.698.138.88.273 1.748.416 2.61-1.585-1.048-3.376-1.5-5.356-1.576-.651-.025-2.396-.477-1.953 0 2.229 2.401 3.896 3.557 6.663 4.48.145.048.728.261 1.29.404.392 1.693.896 3.351 1.641 4.976-3.223 9.333-7.043 18.083-13.27 25.866-1.683 2.103-4.416 3.374-6.433 5.054-1.547 1.289-2.174 3.552-3.446 4.825-.566.565-.437-1.54-.689-2.298-.423-1.266-.945-6.228-1.378-6.662-.275-.275.135-1.434 0-1.839-.979-2.934.472-6.253 1.148-8.96.625-2.498.179-5.26.689-7.811.23-1.149.308-2.519.297-3.982.167-.44.208-1.128.207-1.821 2.302-1.3 3.424-2.554 4.437-5.34.083-.229 1.139-3.101.689-3.101-.242 0-.122.472-.23.689-.417.834-.819 1.739-1.493 2.412-1.006 1.006-2.26 1.884-3.463 2.74-.014-1.888-.098-3.172-.234-4.157 1.781-1.969 3.522-4.472 3.812-7.083.049-.444 0-.93 0-1.379 0-.115.115-.345 0-.345-.172 0-.119.329-.23.46-1.003 1.17.095-.319-.919 1.033-.668.891-2.235 2.902-3.203 4.622-.143-.544-.298-1.114-.472-1.865a68.982 68.982 0 00-.432-1.742c.98-1.791 2.238-3.596 3.188-5.495.186-.374 1.287-4.594.919-4.594-.089 0-1.075 1.731-1.149 1.837-.518.741-.719 1.571-1.263 2.298-.789 1.052-1.79 1.971-2.53 2.988-.255-.831-.49-1.604-.665-2.333 1.583-1.484 3.099-4.661 3.769-6.169.469-1.055 1.188-1.936 1.608-2.987.136-.337.708-1.034.344-1.034-.254 0-1.953 1.686-2.182 1.953-.374.436-.804.919-1.148 1.378-.611.815-1.324 1.573-1.954 2.412-.383.512-.66 1.096-.88 1.703a44.752 44.752 0 01-.154-2.046c-.05-.916.081-2.662.176-4.444.095-.009.19-.021.284-.037 4.226-.704 4.775-3.641 5.973-7.237.101-.302.316-.861.575-1.034.071-.047.306-.076.229-.114-.779-.39-6.079 4.246-6.993 5.156-.004-.101-.005-.206-.01-.303.071-.212.171-.467.226-.603.256-.639.585-1.296.804-1.953.582-1.746.15-4.405 0-6.203-.069-.828-.066-1.829.115-2.642.058-.265.385-.804.115-.804l-.002.003zm43.677 58.026c.029-.006.06-.008.09-.014.053-.011.16-.146.115-.115-.07.046-.136.083-.205.129zm-86.282-36.627c-.055-.085-.102-.148-.128-.148-.103 0-.006.069.128.148zm33.351-6.616c.057-.219.114-.424-.051-.424-.171 0-.068.205.051.424zm26.628-4.229c-.008-.001-.017.004-.028.014-.007.008.027.046.081.096-.011-.061-.027-.108-.053-.11zm-22.484 19.089c1.025.877 2.419 1.371 3.725 1.373.285 1.244.561 2.489.828 3.736-1.506-.984-3.672-2.814-4.692-3.415a44.97 44.97 0 00.139-1.694zm-6.847 2.569c.474 1.217 1.293 2.276 2.308 3.628.124.167 1.367 1.525 2.113 2.084.298 1.097.603 2.212.873 3.201.238.872.517 1.744.839 2.603a.35.35 0 01-.15.04l-.115-.575-.459-.345c-.192-.192-.36-.409-.575-.574-1.336-1.029-2.764-1.997-4.135-2.987a20.512 20.512 0 01-1.297-.999c.108-.097.202-.188.264-.264.526-.658.746-1.896 1.263-2.413.116-.116-.591.608-1.494 1.149-.621.373-2.959 1.69-4.42 2.265.009-.766.014-1.514.016-2.256 1.446-.865 4.072-3.494 4.519-4.03.019-.022.228-.257.45-.527zm6.469 1.06c1.391 2.31 2.838 3.344 5.371 4.047.049 1.19.09 2.39.117 3.594-1.031-.713-1.875-1.618-2.635-2.602.022-.442.094-1.896-.351-1.896-.04 0-.203.474-.353.928a60.858 60.858 0 01-.796-1.158c-.196-.293-.494-.51-.689-.804-.101-.15-.192-.634-.221-.615-.005.002-.008.015-.009.041-.18 3.15-.352 3.654.344 5.859.064.202.136.382.213.552-.11.329-.225.651-.345.95-.058-.106-.179-.272-.212-.353-.579-1.448-1.009-2.999-1.404-4.565.427-.98.745-2.462.97-3.978zm-7.237 5.163c.381 1.08.875 2.118 1.397 3.139-.254.369-.536.716-.963.93-1.049.524-3.392.838-4.756 1.562.03-.951.05-1.918.07-2.884 1.322-.747 3.294-1.953 4.252-2.747zm-12.132.166c.105.209.223.438.274.571.365.95.886 1.754 1.378 2.642.034.06.168.235.238.336-.456.61-.951 1.279-1.042 1.388a14.502 14.502 0 00-1.592 2.343 62.683 62.683 0 01-1.193-2.004c.614-1.403 1.494-3.843 1.937-5.276zm13.596 3.102c.078.152.154.305.234.455.317.606 1.152 1.037 1.723 1.38 1.602.961 2.302 1.47 4.135 1.837.012.002.026.008.038.012.966 2.104 2.239 4.066 3.938 5.659-.343.911-.695 1.82-.874 2.715-.724 3.618-1.379 7.467-1.379 11.258 0 1.85.759 3.446.689 3.446-1.173 0-5.855-4.976-7.352-5.974-3.817-2.544-5.445-4.4-7.802-7.506.352-1.675.591-4.776.752-8.278 1.157-.64 2.87-1.661 3.03-1.791.608-.498 1.156-1.271 1.723-1.838.421-.422.765-.918 1.145-1.375zm8.158 1.046c.698.376 1.551.544 2.529.789.093.023.348.12.569.203-.036 1.463-.12 2.909-.349 4.288-.907-1.098-2.108-2.557-3.091-3.838.132-.43.244-.925.342-1.442zm-19.076.451c.997 1.263 2.449 2.959 3.354 3.682a48.5 48.5 0 01-1.318 5.241c-.964-1.07-2.126-2.021-3.062-2.957-.132-.131-.291-.351-.434-.519.282-.801.519-1.659.664-2.122.169-.542.583-2.02.796-3.325z"
        fill="#36325B" />
      <path
        d="M285.915 191.048c-7.061-5.297-24.119-41.403-32.645-41.403-.531 0 0 1.062 0 1.592 0 8.915 7.056 16.556 11.943 23.887 2.411 3.616 5.825 7.165 5.573 7.165-.751 0-1.061-1.061-1.592-1.592-8.245-8.245-17.021-18.226-27.867-22.294-4.075-1.527-7.332-3.666-11.147-5.573-.475-.238-1.831-.475-1.593 0 3.827 7.653 17.689 21.601 25.479 26.275 2.643 1.586 8.085 5.573 11.147 5.573.593 0 2.186.797 1.592.797-11.779 0-22.753-12.74-41.403-12.74-1.363 0-12.534 1.002-11.147 2.389 7.289 7.289 22.653 10.242 32.644 12.74 7.172 1.793 14.585 2.136 14.332 2.388-2.511 2.511-19.704-.483-23.09 0-1.053.151-18.313 7.393-18.313 7.962 0 .064 6.026-.085 6.369 0 1.546.387 2.554 1.818 3.981 2.389 8.847 3.539 22.937 2.228 31.849 0 12.921-3.23-12.74 8.416-12.74 15.924 0 .84 1.61-.484 2.389-.795 3.348-1.339 6.463-1.64 9.555-3.185 9.671-4.836 21.867-10.232 24.684-21.499z"
        fill="#36325B" />
      <path
        d="M144.987 119.389c3.008 1.362 14.482 2.736 12.74 7.963-1.468 4.403-29.354 9.214-35.034 10.351-7.112 1.422-24.701 4-29.46 8.758-2.9 2.9 22.88 4.485 11.148 10.351-4.675 2.337-13.052 1.073-18.313 2.388-9.952 2.488-44.348 9.926-50.958 14.332-10.38 6.92 19.55 12.299 12.74 19.109-2.139 2.139-29.826 10.717-32.645 13.536-3.148 3.147-11.812-2.853-15.925-.797-2.337 1.169-9.78 3.185-7.166 3.185 10.04 0 13.493 7.653 22.692 9.952 2.234.559 9.928 2.974 11.944 3.982 7.342 3.671 18.023 8.188 26.673 10.35 11.812 2.953 22.92 2.361 35.033 4.38 25.972 4.329 53.525-4.542 78.825-8.758 2.685-.448 8.003.377 10.351-.797.381-.191 28.657-7.558 30.256-9.157 4.568-4.568 4.923-9.7 9.555-14.331.362-.363-24.14-2.341-25.479-2.787-2.789-.929-8.214-1.048-10.351-3.185-1.566-1.565-2.708-6.529-5.574-7.962-5.074-2.537-16.992-3.729-19.905-9.554-1.637-3.274 6.466-5.001 8.758-5.574 8.362-2.09 35.042-9.567 39.811-16.72.659-.988-12.06-2.693-13.535-3.185-4.834-1.611-21.641-2.532-24.683-5.573-2.762-2.763 26.952-10.69 31.052-12.74.751-.375 8.607-4.133 7.963-4.777-3.677-3.677-15.197-4.004-19.906-5.574-5.46-1.819-6.785-4.396-9.555-7.166-3.033-3.034-26.296-2.378-31.052 0z"
        fill="#888BA5" />
      <path
        d="M157.353 119.571c.534-.266 1.144-.519 1.431-.687 1.017-.597 1.866-1.091 3.082-1.213 2.194-.22 4.314.726 6.343 1.413 2.146.726 6.582.252 8.228 1.897.949.949-.82 2.365 0 3.185 1.209 1.208 4.281 3.165 6.37 3.583 1 .2 1.571.922 2.389 1.194 1.621.54 15.252.549 13.933 3.185-1.753 3.505-8.555 3.282-11.545 4.777-2.8 1.4-5.678 2.637-8.571 3.83-1.522.628-3.073 1.2-4.579 1.862-1.233.541-2.438 1.675-3.802 1.759-.559.035-1.128-.066-1.675.053-.714.157-1.289.664-1.886 1.087-2.121 1.499-4.691 1.673-6.976 2.778-.802.387-1.529.913-2.346 1.273-.973.429-2.469.423-3.304 1.031-4.468 3.25 5.464 2.151 6.467 2.252 2.76.276 5.598-.251 8.36 0 4.281.389 8.272 2.167 12.341 3.184 4.484 1.121 12.231-.11 15.526 3.185.53.53-6.426 3.735-7.166 3.981-2.835.946-5.547 2.248-8.36 3.185-6.679 2.227-14.192 2.174-20.701 4.777-2.268.907-4.953 1.976-6.981 3.326-2.046 1.36-3.289 3.139-5.839 3.808-1.073.281-2.207.387-3.197.886-.99.499-1.825 1.558-1.604 2.645.14.685.662 1.226 1.215 1.654a8.223 8.223 0 002.078 1.172c.394.152.808.278 1.147.531.254.189.454.441.684.66 1.669 1.587 4.121 1.041 6.104 1.835.923.37 1.412 1.055 2.244 1.516 1.074.593 2.568.78 3.752 1.076 2.061.516 4.122 1.028 6.134 1.721 1.747.601 6.596 2.309 3.164 4.638-.609.413-1.368.529-2.043.821-.676.293-1.332.9-1.264 1.633.062.674.698 1.139 1.309 1.432.814.392 1.699.651 2.602.706.496.03.994 0 1.491.021 3.802.159 7.572 1.42 11.298 2.165 5.847 1.169 11.923 3.185 17.915 3.185 1.13 0 7.166.65 7.166.796 0 .209-8.783 4.317-9.157 4.379-3.496.583 2.925.391 1.593 2.389-1.305 1.956-4.656 3.534-6.768 4.379-8.81 3.524-17.753 4.936-27.071 5.972-8.683.965-17.066 3.185-25.877 3.185-19.535 0-38.409 4.353-57.726 6.768-10.924 1.365-20.17-5.972-30.654-5.972-8.832 0-24.59-10.726-34.237-13.138-3.24-.81-6.125-1.972-9.157-3.185-2.408-.963-3.981-1.902-3.981-1.592 0 .549 2.846-.748 5.972-1.194 3.88-.555 8.133-.052 11.943-1.194 3.528-1.059 6.014-3.766 9.555-4.777 3.727-1.065 25.667-6.349 27.071-9.157.984-1.968-11.669-.118-6.37-2.389.796-.341 18.313-5.926 18.313-5.972 0-.011-2.295.019-2.389 0-1.988-.397-3.971-.51-5.971-.796-6.99-.998-15.282-2.131-21.897-4.777-.455-.182-5.34-2.622-4.379-3.583 2.871-2.871 26.388-6.881 31.848-7.564 3.445-.431 7.337-.667 10.648-1.746 1.043-.34 2.058-.97 3.15-1.127.708-.101 1.416.174 2.133.076 1.997-.274 1.79-1.992 3.341-2.648a15.635 15.635 0 015.083-1.202c1.19-.076 2.401-.016 3.557-.308 1.021-.258 1.953-.778 2.915-1.208 2.624-1.172 5.488-1.678 8.244-2.492 2.757-.814 5.528-2.021 7.367-4.23 4.853-5.829-13.178-3.6-10.043-7.958.697-.97 1.989-1.261 3.164-1.481l15.224-2.854c2.161-.405 4.324-.811 6.464-1.314 3.151-.74 6.248-1.689 9.343-2.638l12.719-3.898c1.276-.391 2.621-.825 3.504-1.826.669-.758.993-1.756 1.565-2.59.881-1.284 2.303-2.117 3.195-3.394 2.464-3.531-1.598-3.878-3.622-5.13-.345-.213-.694-.632-.484-.978.117-.193.502-.418.938-.634z"
        fill="#fff" fill-opacity=".1" />
      <path
        d="M47.252 183.087c2.916.572 6.018.566 8.957.199 5.857-.732 10.818-4.744 16.92-3.982 7.816.978 15.602 4.395 23.687 3.384 7.005-.875 13.452-4.271 20.503-4.976 9.148-.915 18.639 1.592 27.867 1.592.698 0 9.603-.274 9.754-.199.493.247 1.381 2.728 1.791 3.384.651 1.042 2.037 2.195 2.986 2.986.524.436 3.782 2.147 3.782 2.786 0 .052-.745-.224-1.791-.398-.895-.149-1.886-.086-2.787-.199-2.747-.343-5.601-.29-8.36-.597-2.314-.258-4.47-1.361-6.768-1.792-1.764-.331-3.598-.5-5.374-.796-7.982-1.331-16.19-2.55-24.285-1.394-3.521.503-6.655 2.209-10.151 2.986-4.573 1.016-9.459 1.194-14.133 1.194-1.947 0-4.053.078-5.972.398-.974.163-2.19.399-2.19.399 1.391.695 3.463.779 4.977.995 9.01 1.288 16.323 1.891 25.081-1.393 4.804-1.802 10.922-1.259 15.924-.996 1.571.083 3.229.177 4.777.399.595.085 2.392.199 1.791.199-5.46 0-10.421.916-15.526 3.184-5.139 2.285-10.579 3.328-16.123 4.181-5.728.881-11.862.932-17.517-.199-1.71-.343-3.292-1.371-4.976-1.792-2.932-.733-5.96-1.445-8.957-1.99-5.437-.989-11.65-.522-16.92.796-.46.115-2.637.747-2.985.398-.033-.033.177-2.83-.2-3.583-.896-1.792-3.31-3.285-3.782-5.174z"
        fill="#888BA5" />
      <path
        d="M143.27 164.378c4.168.1 8.404-.965 12.526-.141 4.685.937 7.772-.324 12.105-1.407 2.199-.55 6.085-.022 8.304.422 3.047.609 4.632-.232 7.46-.704.579-.096 1.014-.429 1.549-.563.618-.154 1.352.155 1.97 0 .133-.033 1.367-.322 1.267-.422-.416-.416-2.366-.14-2.956-.14-1.307 0-3.09-.319-4.363 0-2.266.566-4.781 1.042-7.178.563-2.545-.509-5.284-2.097-8.023-1.549-2.202.441-3.893 1.713-6.052 2.253-1.627.406-5.976-.773-7.742-1.126-1.807-.362-4.143-.213-5.911.14-.834.167-1.819.563-2.674.563h1.266c.777 0 1.946-.243 2.675 0 .53.177 5.042.564 5.63.564.559 0-2.51-.03-2.956-.141-2.203-.552-5.492.283-6.897 1.688zM114.415 147.769c2.959-.925 4.255.114 6.615.704 3.016.754 5.324-1.155 8.023-1.83 2.314-.579 5.872-.564 8.305-.564.14 0-.285.028-.422 0a49.937 49.937 0 00-1.549-.281c-1.348-.225-2.751-.2-4.081-.422-1.822-.304-3.86-.253-5.49.563-.503.252-1.116.701-1.689.845-.76.19-1.46.378-2.111.703-1.245.623-3.221-.985-4.504-.985-.999 0-3.097.206-3.097 1.267zM147.773 141.576c.604.105 1.353.278 1.971.14 1.653-.367 3.264-1.074 4.926-1.407 2.689-.538 5.586.961 8.305.282 1.842-.461 4.333-.513 6.193-.141.503.101 5.911.183 5.911.141 0-.332-.67.035-.985.14-1.033.345-2.171.35-3.237.563-3.301.661-6.334-.366-9.571.282-1.8.36-3.926.704-5.772.704-.888 0-1.758.422-2.674.422-.053 0-1.144.053-.985 0 1.27-.424 2.636-1.222 3.941-1.549.026-.006.563-.09.563-.14 0-.219-2.708.198-2.956.281-1.48.494-4.336 1.575-5.63.282zM166.774 134.679c.422-.021.846.027 1.267 0 1.05-.066 2.307-.294 3.378-.141 2.099.3 4.014 1.59 6.334 1.126 1.635-.327 3.275-1.548 5.067-1.548 1.796 0 3.533.14 5.348.14.865 0 2.111.161 2.111.141 0-.059-.704.046-1.267-.141-1.059-.353-2.804-.985-3.941-.985-1.231 0-3.029-.726-4.363-.282-1.454.485-2.658 1.215-4.081 1.689-.67.224-3.897-.399-4.505-.703-1.144-.573-4.42.395-5.348.704zM161.004 130.316c.786.196.992.345 1.689.281 3.65-.332 7.12-.472 10.697.422.703.176 1.715-.004 2.393-.14.068-.014.845.01.845 0 0-.094-.188 0-.282 0-1.163 0-2.607.21-3.659-.141-3.5-1.166-5.901-2.021-9.431-.844-.831.276-1.398-.005-2.252.422zM127.646 156.214c3.645.071 6.823-1.829 10.415-1.829 2.593 0 4.776.862 7.179 1.548 3.045.871 6.203.704 9.43.704.479 0-.938.188-1.407.282-.632.126-1.235.133-1.83.281-1.616.404-3.37.282-5.067.282-1.211 0-2.485.094-3.659-.141-3.813-.762-4.676-2.209-9.008-1.126-.911.227-6.053 2.038-6.053-.001zM95.272 166.629c2.553.269 5.156.658 7.742.423 3.309-.301 6.526-1.779 9.853-2.111 3.517-.352 7.448.307 10.838.985 2.215.443 4.837 0 7.037 0h-1.548c-1.04 0-2.187-.273-3.238-.422-3.127-.447-6.363-1.83-9.571-1.83-5.494 0-8.834 1.258-13.934 2.533-2.186.547-4.893.422-7.178.422zM56.285 175.075c1.908 1.32 4.511 1.125 6.757 1.125 3.285 0 6.453-1.034 9.712-1.266 3.075-.22 6.369-.115 9.43.14 3.187.266 6.215.985 9.43.985 3.322 0 6.556.018 9.853-.422.986-.131 1.973-.271 2.956-.422.42-.064 1.692-.141 1.267-.141-4.571 0-9.299.327-13.794-.422-2.117-.353-4.334-.704-6.475-.704-.469 0-1.407-.469-1.407 0 0 .074 1.571-.264 1.69-.281 1.205-.173 2.432-.341 3.659-.422 1.283-.086 9.42.009 9.852-.422.26-.26-1.025-.282-2.252-.282-1.322 0-2.636-.141-3.94-.141-2.034 0-4.159-.366-6.194-.14-1.12.124-2.142.594-3.237.704-2.866.286-5.427.381-8.305.14-2.87-.239-5.82-.14-8.727-.14-1.225 0-2.307.171-3.519.281-.33.03-1.316.141-.985.141 1.242 0 10.017-.117 10.556.422.268.267-.755.067-1.125.14-1.22.244-2.444.22-3.66.422-2.073.346-4.21.564-6.333.564-1.738 0-3.556-.41-5.209.141z"
        fill="#fff" fill-opacity=".2" />
      <path
        d="M184.354 96.587c-.527.223-.968.595-1.46.876-.835.477-2.079.56-2.803 1.285-1.408 1.408-1.63 2.381-2.336 4.145-.382.955-.854 1.861-1.167 2.803-.116.347-.144.691-.234 1.051-.034.137-.117.551-.117.408 0-.787-.004-1.988-.584-2.569-.042-.042-.633-.719-.701-.584-.361.723-.8 1.934-.583 2.803.081.326.542 1.835.408 2.102-1.145 2.289-.104 2.472.233 4.496.075.445-.007 1.569.351 1.927.469.469 1.393-.242 1.577-.701.196-.491.223-1.009.35-1.518.074-.298.475-.626.584-1.168.09-.454.059-.939.116-1.401.123-.983.716-2.064 1.285-2.862.464-.649 1.088-1.165 1.518-1.81.236-.354.523-.695.643-.934.019-.039.102-.117.058-.117-.005 0 .007.324 0 .351-.048.191-.127.393-.175.584-.144.577-.27 1.194-.409 1.751-.216.864.011 1.972-.116 2.862-.243 1.697-.626 2.753-1.168 4.379-.087.26-.529.697-.292.935.174.174 1.151-.009 1.226-.234.085-.254.114-.52.233-.759.192-.384.606-.532.759-.993.064-.19-.039-.447 0-.642.106-.529.262-1.044.351-1.577.076-.458 0-.942.058-1.401.055-.436.129-.924.234-1.343.104-.417.477-.739.583-1.168.067-.267.223-1.279.468-1.401.064-.032.611 1.586.701 1.81.186.465.425.926.583 1.401.244.731.299 1.648.643 2.336.152.305-.026 1.701.292 2.335.051.103-.013.164.058.234.061.06 1.008.16 1.11.058.12-.12-.343-1.261-.409-1.46-.165-.495.232-1.582 0-2.277-.182-.546-.27-1.137-.408-1.693-.419-1.674-1.314-3.649.058-5.022.114-.114.993-.212 1.168-.233.298-.038 3.007-.381 3.095-.292.531.531 1.038 1.574 1.343 2.335.17.424.705.804.526 1.343-.094.282-.272.544-.409.818-.141.281-.179.593-.292.876-.446 1.116-.923 2.184-1.285 3.27-.078.234-.689 2.75-.583 2.802.155.078 1.476.217 1.576.117.083-.083-.292-.818-.175-1.051.389-.779.759-.23.759-1.577 0-.767.663-1.308.934-1.985.136-.34.238-.708.409-1.051.412-.823 1.196-2.013 1.46-2.802.112-.336 1.387 1.416 1.518 1.635.177.295.401.525.584.817.576.922.875 2.217 1.05 3.27.073.434-.99 2.397-.583 2.803.045.045.991.235 1.051.175.204-.204.099-.783.233-1.051.164-.329.465-.461.584-.817.279-.838-.089-3.041-.234-3.912-.099-.595.074-1.913-.408-2.395-.824-.823-1.893-1.488-2.511-2.569-.557-.974-.207-2.234 0-3.27.073-.364-.177-1.105-.059-1.342.056-.112.195.155.292.233.154.123 1.25.561 1.46.351.093-.093.024-.85 0-.993-.314-1.89-1.135-2.028-2.686-2.803-.587-.293-1.229-.693-1.868-.875-2.848-.814-5.887-.157-8.467.875z"
        fill="#645B96" />
      <path
        d="M61.052 98.067c-.115-1.245 2.85-4.357 4.047-3.159 1.37 1.369-.42 4.591-1.678 5.429-.591.394-1.396.53-1.678 1.283-.704 1.879 1.048 6.722.888 9.28-.186 2.984-1.966 5.56-1.777 8.588.12 1.926.65 3.82.89 5.725.28 2.24.222 4.595.592 6.811.13.783 1.007 2.231.592 3.06-.264.529-1.512.626-1.974.494-.95-.271-.395-2.758-.395-3.455 0-2.591-.754-5.382-1.283-7.897-.234-1.108-.623-5.483-1.58-6.121-.683-.456-.703 2.591-.69 2.863.2 4.39.493 8.74.493 13.129 0 .559.21 1.431-.395 1.777-.588.335-1.722.174-1.875-.593-.264-1.321.416-2.831.493-4.146.204-3.465.054-7.189-.79-10.562-.064-.256-1.146-4.283-1.381-4.048-.61.609-.587 1.855-1.087 2.567-.334.479-.875.769-1.184 1.283-.64 1.066-.953 3.019-.79 4.245.163 1.223 1.027 2.259 1.283 3.455.25 1.162 0 2.661 0 3.85 0 .184.172 1.803 0 1.974-.448.449-1.767.055-1.875-.592-.23-1.373.684-2.898.395-4.344-.313-1.564-1.587-2.785-2.073-4.245-.537-1.61-.593-3.334-.593-5.034 0-.532-.415.979-.592 1.481-.483 1.366-1.283 2.971-1.283 4.442 0 1.156.023 8.558-.297 8.983-.292.39-1.607.29-2.073.197-.26-.052.172-4.59.198-5.034.038-.655.252-1.316.197-1.974-.142-1.704-1.253-3.61-.79-5.232.868-3.038 3.685-6.023 2.567-9.378-.214-.641 0 .107-.099-.79-.025-.232.03-1.155-.098-1.283-.118-.118-1.573.698-1.876.395-.03-.029.742-1.017.79-1.184.26-.913.296-1.975.691-2.863 1.098-2.471 4.897-3.135 7.305-2.765.392.061 4.305.511 4.442.099.206-.619-6.264-.135-5.429-2.863.227-.742 1.498-.644 1.777-.691.506-.084.452-.734.79-.987.585-.439 1.342-.631 1.777-1.283.057-.086-.747-.915-.79-.988-.223-.371-.704-3.454-.296-3.454 1.123 0 2.897 1.039 3.356 2.073.167.376.115 1.299.395 1.579.287.29 2.237-.097 2.763-.097z"
        fill="#4E4884" />
      <path
        d="M5.754 123.419c.305-3.435 4.634-1.257 4.786-1.408.759-.759.255-1.541 1.97-1.97.605-.151 1.59.944 1.97.563.29-.289.469-1.313.845-1.689 1.11-1.109 3.528-.149 3.66-.281.204-.204.411-.921 1.126-.564.523.262.372.745.563 1.126.194.387 1.848-.664 2.252-.563.966.241.48.521 1.126.845.511.255 1.433-.691 2.252-.282.22.11.738.951 1.126.563.094-.093.187-.751.281-.844.652-.652 1.734 0 1.97 0 .556 0 .664-2.202 2.253-1.408.303.152.225.845.563.845.855 0 .446-1.431 1.97-1.126 1.353.27.83 1.675 1.408 2.252.328.329 1.642-.328 1.97 0 .376.376-.375 1.877 0 2.252.47.47 1.502-.75 1.971-.281.597.597-.138 1.832.282 2.252.312.312 2.823 1.223 3.377 1.407 1.13.376.554 1.68 1.127 2.252.89.89 2.747 1.01 3.94 1.408.437.145 1.564 2.408 1.971 2.815.372.371 1.69.763 1.69 1.407 0 .181-3.554-1.045-5.912-1.688-5.517-1.505-11.211-1.495-16.89-2.253-5.445-.726-10.636-2.701-16.046-3.378-1.324-.165-5.191.158-6.193-.844-.501-.501-.569-.289-1.408-1.408z"
        fill="#4E4884" />
      <path
        d="M236.024 149.881c4.182.909 2.857-3.849 4.786-5.349 2.048-1.593 3.08.428 3.378-2.252.316-2.841 2.514-2.369 4.504-1.971.618.124.431-1.215.845-1.688.831-.95 3.841-1.962 5.067-1.689.388.086.475.696.845.844.645.258 1.669-2.274 2.533-2.534 2.144-.643 2.245 1.62 3.941 1.407 1.004-.125 1.829-.906 2.816-1.125.641-.143 1.383.293 1.97 0 1.55-.776-.267-.296.282-.845.86-.86 2.309 1.452 2.533 1.407.509-.102 2.924-1.185 3.378-.844.504.377.341 1.311.845 1.688.334.251 8.757-.03 6.193 2.534-1.129 1.129-6.249.592-7.6.844-1.901.357-3.757.926-5.63 1.408-3.595.924-6.391 2.505-9.853 3.659-6.935 2.312-14.668 2.658-21.394 5.349"
        fill="#443F73" />
    </g>
  </g>
</svg>
