<svg width="354" height="164" viewBox="0 0 354 164" fill="none" xmlns="http://www.w3.org/2000/svg">
<g filter="url(#filter0_d_12_2670)">
<rect x="216.558" y="1.9502" width="141.029" height="67.358" rx="10.6465" transform="rotate(20.1251 216.558 1.9502)" fill="#CAB1EA"/>
<rect x="216.558" y="1.9502" width="141.029" height="67.358" rx="10.6465" transform="rotate(20.1251 216.558 1.9502)" stroke="white" stroke-width="4.25862"/>
</g>
<path d="M244.474 44.0423C242.299 43.2463 241.197 41.3567 241.803 39.4526L243.575 40.1011C243.33 41.1326 243.936 42.1098 245.049 42.5172C246.308 42.9781 247.499 42.4256 247.954 41.1807C248.407 39.9432 247.847 38.7502 246.603 38.2946C245.695 37.9623 244.837 38.1051 244.171 38.6753L242.524 38.0724L245.278 32.1135L251.766 34.4879L251.2 36.033L246.221 34.2106L244.762 37.2888L244.799 37.3022C245.52 36.7608 246.544 36.6623 247.606 37.0509C249.62 37.7878 250.533 39.783 249.796 41.7968C248.995 43.9863 246.817 44.8999 244.474 44.0423ZM252.768 46.8368L255.609 39.0746L257.359 39.7151L256.866 41.0625L256.902 41.0759C257.569 40.2985 258.606 40.0055 259.661 40.3914C260.759 40.7934 261.336 41.644 261.257 42.7444L261.301 42.7605C262.026 41.9379 263.168 41.6751 264.289 42.0851C265.819 42.6452 266.444 44.0449 265.876 45.5973L263.928 50.921L262.105 50.2537L263.889 45.3767C264.238 44.4247 263.938 43.7006 263.045 43.3736C262.166 43.0521 261.33 43.4767 260.989 44.4067L259.234 49.2031L257.462 48.5546L259.282 43.5824C259.598 42.7183 259.266 41.9908 258.417 41.6799C257.538 41.3584 256.674 41.8143 256.331 42.7516L254.591 47.5041L252.768 46.8368ZM265.437 51.473L268.277 43.7109L270.101 44.3782L267.26 52.1403L265.437 51.473ZM269.607 42.8688C269.057 42.6678 268.774 42.0577 268.973 41.5158C269.174 40.9666 269.781 40.6907 270.33 40.8917C270.894 41.098 271.173 41.6982 270.972 42.2474C270.773 42.7893 270.171 43.0752 269.607 42.8688ZM268.79 52.7004L271.631 44.9383L273.381 45.5788L272.893 46.9115L272.93 46.9249C273.685 46.155 274.716 45.9013 275.91 46.3381C277.623 46.9652 278.195 48.42 277.539 50.2141L275.703 55.2302L273.88 54.5629L275.581 49.913C275.983 48.8146 275.696 48.0118 274.656 47.6313C273.609 47.2481 272.667 47.7585 272.259 48.8715L270.614 53.3677L268.79 52.7004ZM286.892 50.5232L284.051 58.2853L282.294 57.6422L282.787 56.2948L282.75 56.2814C281.994 57.0759 281.012 57.3311 279.833 56.8996C278.149 56.2832 277.479 54.8009 278.136 53.0068L279.972 47.9907L281.795 48.658L280.093 53.3079C279.686 54.421 280.008 55.2198 281.033 55.595C282.088 55.9809 283.013 55.4725 283.426 54.3448L285.068 49.8559L286.892 50.5232ZM289.555 49.4387L291.379 50.106L290.714 51.9221L292.179 52.4581L291.664 53.864L290.2 53.3281L288.723 57.3629C288.49 58 288.676 58.4001 289.32 58.6359C289.488 58.6976 289.728 58.7687 289.853 58.7896L289.344 60.1809C289.13 60.1525 288.761 60.0505 288.373 59.9085C286.696 59.2948 286.254 58.4604 286.806 56.9519L288.376 52.6608L287.263 52.2534L287.778 50.8474L288.891 51.2548L289.555 49.4387ZM296.165 55.337C295.14 54.9618 294.114 55.4747 293.644 56.5316L297.269 57.8582C297.634 56.7464 297.213 55.7202 296.165 55.337ZM296.427 60.1822L298.133 60.8066C297.363 62.1854 295.631 62.6975 293.793 62.0248C291.464 61.1726 290.618 59.1276 291.524 56.6525C292.422 54.1994 294.435 53.1009 296.675 53.921C298.88 54.7276 299.696 56.7619 298.833 59.1199L298.616 59.713L293.19 57.7272L293.15 57.837C292.694 59.0819 293.15 60.1954 294.344 60.6323C295.193 60.9431 295.993 60.7542 296.427 60.1822ZM300.422 57.9992C300.942 56.5786 302.534 56.0649 304.408 56.751C306.297 57.4424 307.126 58.8998 306.631 60.3877L304.932 59.766C305.116 59.0362 304.76 58.3992 303.918 58.091C303.112 57.7963 302.438 57.9814 302.229 58.5526C302.066 58.9993 302.276 59.4247 303.021 59.9053L304.206 60.6625C305.685 61.6109 306.08 62.4612 305.667 63.5889C305.131 65.0534 303.422 65.5489 301.518 64.8521C299.49 64.1098 298.643 62.7037 299.046 61.1489L300.84 61.8055C300.703 62.6107 301.083 63.1817 302.006 63.5194C302.892 63.8437 303.575 63.6785 303.787 63.1C303.958 62.6313 303.777 62.2659 303.031 61.7854L301.846 61.0281C300.481 60.1546 300.002 59.1489 300.422 57.9992ZM252.342 65.4935C253.375 65.8713 254.454 65.4858 254.797 64.5485L255.014 63.9554L253.18 63.4086C252.28 63.1456 251.63 63.3561 251.405 63.9712C251.172 64.6083 251.551 65.204 252.342 65.4935ZM251.289 66.6692C249.788 66.1198 249.043 64.7758 249.555 63.3772C250.058 62.0005 251.423 61.5616 253.355 62.1359L255.449 62.7691L255.652 62.2125C255.95 61.3997 255.572 60.73 254.671 60.4004C253.807 60.0842 253.105 60.3006 252.752 60.9021L251.061 60.2831C251.672 58.8626 253.29 58.2757 255.267 58.9993C257.193 59.7041 258.073 61.1802 257.502 62.74L255.545 68.0856L253.788 67.4424L254.241 66.2049L254.204 66.1915C253.449 66.8701 252.285 67.0336 251.289 66.6692ZM262.874 70.9088C260.919 70.1932 260.217 68.1845 261.121 65.7167C262.018 63.2636 263.853 62.1748 265.808 62.8903C266.922 63.2977 267.589 64.1977 267.685 65.2046L267.729 65.2207L269.232 61.1126L271.056 61.7799L267.189 72.3467L265.402 71.6928L265.887 70.3673L265.858 70.3566C265.114 71.0726 264.009 71.3242 262.874 70.9088ZM265.808 64.5925C264.637 64.1637 263.548 64.8696 262.985 66.4074C262.42 67.9525 262.791 69.1844 263.97 69.6159C265.12 70.0367 266.23 69.3388 266.793 67.801C267.35 66.2778 266.958 65.0132 265.808 64.5925ZM272.011 72.6917C273.044 73.0696 274.123 72.684 274.466 71.7467L274.683 71.1536L272.849 70.6068C271.949 70.3438 271.299 70.5544 271.074 71.1695C270.841 71.8066 271.221 72.4023 272.011 72.6917ZM270.958 73.8674C269.457 73.318 268.712 71.9741 269.224 70.5754C269.727 69.1987 271.092 68.7598 273.024 69.3341L275.118 69.9673L275.321 69.4108C275.619 68.5979 275.241 67.9283 274.34 67.5986C273.476 67.2824 272.774 67.4988 272.421 68.1004L270.73 67.4813C271.341 66.0609 272.959 65.4739 274.936 66.1975C276.862 66.9023 277.742 68.3785 277.171 69.9382L275.214 75.2838L273.457 74.6407L273.91 73.4031L273.873 73.3897C273.118 74.0684 271.954 74.2318 270.958 73.8674ZM276.473 79.0159C276.363 78.9757 275.853 78.7808 275.766 78.7239L276.294 77.2814C276.381 77.3382 276.7 77.4634 276.81 77.5036C277.564 77.7796 278.057 77.6361 278.517 76.9908C278.525 76.9688 278.785 76.6236 278.785 76.599L278.868 67.8192L280.86 68.5481L280.411 75.4251L280.447 75.4385L284.551 69.8988L286.469 70.6009L280.704 77.6415C279.34 79.3262 278.245 79.6644 276.473 79.0159Z" fill="black"/>
<g filter="url(#filter1_d_12_2670)">
<rect x="14.3984" y="4.68896" width="166.201" height="67.358" rx="10.6465" transform="rotate(6.79451 14.3984 4.68896)" fill="#CAB1EA"/>
<rect x="14.3984" y="4.68896" width="166.201" height="67.358" rx="10.6465" transform="rotate(6.79451 14.3984 4.68896)" stroke="white" stroke-width="4.25862"/>
</g>
<g filter="url(#filter2_d_12_2670)">
<rect x="92.8564" y="86.9878" width="154.774" height="67.358" rx="10.6465" transform="rotate(-6.97596 92.8564 86.9878)" fill="#CAB1EA"/>
<rect x="92.8564" y="86.9878" width="154.774" height="67.358" rx="10.6465" transform="rotate(-6.97596 92.8564 86.9878)" stroke="white" stroke-width="4.25862"/>
</g>
<path d="M35.2083 36.9449L30.8335 36.4457L32.0243 26.0114L36.3557 26.5057C38.2502 26.7219 39.3559 27.8809 39.1752 29.4645C39.0473 30.5853 38.1043 31.4666 37.0143 31.518L37.0077 31.5759C38.4093 31.875 39.2836 33.0076 39.1259 34.3887C38.9163 36.2254 37.4354 37.1991 35.2083 36.9449ZM33.7241 27.6777L33.3882 30.6207L35.0947 30.8155C36.3963 30.964 37.1893 30.4978 37.2999 29.5289C37.4039 28.6178 36.8334 28.0326 35.7198 27.9055L33.7241 27.6777ZM32.865 35.2052L34.9475 35.4428C36.3214 35.5996 37.1169 35.1117 37.2391 34.0415C37.3604 32.9786 36.6719 32.336 35.2402 32.1726L33.2372 31.944L32.865 35.2052ZM47.6092 30.5956L46.7344 38.2604L44.999 38.0623L45.1508 36.7318L45.1147 36.7277C44.6033 37.6143 43.7685 38.0611 42.6043 37.9282C40.9412 37.7384 40.0084 36.5405 40.2106 34.7689L40.7759 29.8157L42.5764 30.0212L42.0524 34.6128C41.927 35.712 42.3944 36.366 43.4067 36.4815C44.448 36.6003 45.1757 35.9362 45.3028 34.8227L45.8087 30.3901L47.6092 30.5956ZM48.2529 38.4337L49.1277 30.7689L50.9282 30.9743L50.0534 38.6392L48.2529 38.4337ZM50.1491 29.7134C49.6068 29.6515 49.2161 29.1601 49.2771 28.625C49.339 28.0827 49.8296 27.6991 50.372 27.761C50.9287 27.8246 51.3131 28.308 51.2512 28.8503C51.1901 29.3854 50.7059 29.7769 50.1491 29.7134ZM51.6153 38.8174L52.8062 28.3831L54.6067 28.5886L53.4159 39.0229L51.6153 38.8174ZM56.5272 29.7967L58.3277 30.0022L58.123 31.7955L59.5692 31.9605L59.4108 33.3489L57.9646 33.1838L57.5099 37.1681C57.4381 37.7972 57.6943 38.1194 58.3306 38.192C58.4969 38.211 58.73 38.223 58.8482 38.2145L58.6914 39.5884C58.4912 39.6095 58.1336 39.598 57.7503 39.5542C56.0944 39.3652 55.5105 38.7053 55.6805 37.2157L56.1641 32.9783L55.065 32.8529L55.2234 31.4645L56.3225 31.59L56.5272 29.7967ZM67.1624 40.7163C66.0343 40.5875 65.2357 39.947 64.8889 39.0064L64.8528 39.0023L64.7034 40.3111L62.939 40.1098L64.1299 29.6755L65.9304 29.881L65.4641 33.9665L65.5075 33.9714C66.0437 33.1243 66.9814 32.6746 68.066 32.7984C69.9967 33.0187 71.0535 34.6703 70.7737 37.1216C70.494 39.5729 69.1003 40.9374 67.1624 40.7163ZM67.3401 34.2172C66.2265 34.0901 65.3397 34.9924 65.1697 36.482C64.9981 37.986 65.6604 39.0505 66.7739 39.1776C67.9309 39.3097 68.7557 38.4369 68.9298 36.9111C69.1031 35.3926 68.4898 34.3484 67.3401 34.2172ZM71.8406 44.0118C71.7322 43.9994 71.2268 43.9344 71.1353 43.902L71.2979 42.4775C71.3894 42.5099 71.7067 42.5534 71.8152 42.5658C72.56 42.6508 72.9754 42.4126 73.2515 41.7262C73.254 41.7045 73.4134 41.3345 73.4087 41.312L71.5582 33.3288L73.525 33.5532L74.6257 39.8906L74.6619 39.8947L77.1694 33.9692L79.0639 34.1854L75.3778 41.837C74.51 43.6645 73.5905 44.2115 71.8406 44.0118ZM86.5626 42.8058L82.1879 42.3066L83.3787 31.8723L87.7101 32.3666C89.6046 32.5828 90.7103 33.7418 90.5295 35.3254C90.4016 36.4462 89.4587 37.3275 88.3687 37.3789L88.3621 37.4368C89.7637 37.7359 90.6379 38.8685 90.4803 40.2496C90.2707 42.0863 88.7898 43.06 86.5626 42.8058ZM85.0784 33.5386L84.7426 36.4816L86.4491 36.6764C87.7507 36.8249 88.5437 36.3587 88.6543 35.3898C88.7583 34.4787 88.1878 33.8935 87.0742 33.7664L85.0784 33.5386ZM84.2194 41.0661L86.3019 41.3037C87.6758 41.4605 88.4713 40.9726 88.5934 39.9024C88.7147 38.8395 88.0263 38.1969 86.5945 38.0335L84.5916 37.8049L84.2194 41.0661ZM91.3351 43.3505L92.2098 35.6857L94.0104 35.8912L93.1356 43.556L91.3351 43.3505ZM93.2313 34.6302C92.689 34.5683 92.2982 34.0769 92.3593 33.5418C92.4212 32.9995 92.9118 32.616 93.4541 32.6779C94.0109 32.7414 94.3952 33.2248 94.3333 33.7671C94.2723 34.3022 93.7881 34.6938 93.2313 34.6302ZM94.6469 43.7285L95.5216 36.0636L97.2498 36.2609L97.0996 37.5769L97.1358 37.581C97.6519 36.717 98.5318 36.2607 99.7104 36.3952C101.402 36.5883 102.24 37.7827 102.038 39.5543L101.473 44.5075L99.6724 44.302L100.196 39.7103C100.32 38.6257 99.8834 37.9605 98.8566 37.8433C97.8225 37.7253 97.0795 38.395 96.9541 39.4941L96.4474 43.934L94.6469 43.7285ZM106.466 43.6343C107.616 43.7655 108.467 42.9177 108.638 41.4209C108.808 39.9313 108.173 38.8773 107.024 38.7461C105.888 38.6166 105.056 39.4885 104.885 40.9926C104.711 42.5111 105.331 43.5047 106.466 43.6343ZM105.966 47.9503C104.071 47.7341 102.823 46.61 102.795 45.2444L104.581 45.4483C104.71 46.0563 105.322 46.5291 106.176 46.6264C107.347 46.7601 108.095 46.1789 108.206 45.2027L108.354 43.9083L108.31 43.9034C107.819 44.6823 106.852 45.1287 105.753 45.0033C103.858 44.7871 102.769 43.1611 103.042 40.7749C103.318 38.3525 104.72 36.9815 106.679 37.2052C107.771 37.3298 108.589 37.9945 108.93 38.927L108.958 38.9303L109.109 37.6143L110.873 37.8156L110.012 45.3575C109.803 47.187 108.2 48.2053 105.966 47.9503ZM115.504 39.5968C114.492 39.4813 113.673 40.1716 113.479 41.2336L117.058 41.6421C117.146 40.5533 116.538 39.7148 115.504 39.5968ZM116.804 43.9351L118.489 44.1274C118.092 45.5472 116.633 46.3915 114.818 46.1844C112.519 45.922 111.303 44.2523 111.582 41.8082C111.858 39.3858 113.444 37.9479 115.656 38.2004C117.833 38.4488 119.02 40.1152 118.754 42.4436L118.687 43.0293L113.329 42.4178L113.317 42.5263C113.176 43.7555 113.834 44.6657 115.013 44.8002C115.852 44.8959 116.536 44.5491 116.804 43.9351ZM129.543 46.1141L129.363 47.6905L122.609 46.9197L123.8 36.4854L130.554 37.2562L130.374 38.8325L125.486 38.2747L125.164 41.0947L129.784 41.6221L129.615 43.1044L124.995 42.5771L124.655 45.5563L129.543 46.1141ZM133.712 46.9343C134.732 47.0506 135.627 46.4642 135.732 45.5386L135.799 44.9529L134.015 44.8592C133.141 44.818 132.597 45.1515 132.528 45.7589C132.456 46.388 132.931 46.8451 133.712 46.9343ZM133.015 48.2318C131.533 48.0626 130.562 47.0069 130.719 45.6258C130.874 44.2663 132.016 43.5689 133.895 43.6661L135.933 43.7815L135.995 43.2319C136.087 42.4293 135.598 41.9046 134.708 41.8031C133.855 41.7057 133.266 42.056 133.077 42.6791L131.407 42.4885C131.65 41.0658 132.989 40.1785 134.941 40.4013C136.843 40.6184 137.965 41.7646 137.789 43.3048L137.187 48.5834L135.451 48.3853L135.591 47.1633L135.555 47.1592C135.019 47.9404 133.998 48.344 133.015 48.2318ZM140.218 39.3481L142.019 39.5536L141.814 41.3469L143.261 41.5119L143.102 42.9003L141.656 42.7352L141.201 46.7195C141.129 47.3486 141.386 47.6708 142.022 47.7434C142.188 47.7624 142.421 47.7744 142.539 47.7659L142.383 49.1398C142.182 49.1609 141.825 49.1494 141.442 49.1056C139.786 48.9166 139.202 48.2567 139.372 46.7671L139.855 42.5297L138.756 42.4043L138.915 41.0159L140.014 41.1414L140.218 39.3481ZM143.658 49.322L144.533 41.6572L146.334 41.8626L145.459 49.5275L143.658 49.322ZM145.555 40.6017C145.012 40.5398 144.622 40.0484 144.683 39.5133C144.745 38.971 145.235 38.5875 145.777 38.6493C146.334 38.7129 146.719 39.1963 146.657 39.7386C146.596 40.2737 146.111 40.6653 145.555 40.6017ZM146.97 49.7L147.845 42.0351L149.573 42.2324L149.423 43.5484L149.459 43.5525C149.975 42.6885 150.855 42.2322 152.034 42.3667C153.726 42.5598 154.564 43.7542 154.362 45.5258L153.796 50.479L151.996 50.2735L152.52 45.6818C152.644 44.5972 152.207 43.932 151.18 43.8148C150.146 43.6968 149.403 44.3665 149.277 45.4656L148.771 49.9054L146.97 49.7ZM158.789 49.6058C159.939 49.737 160.79 48.8892 160.961 47.3924C161.131 45.9028 160.497 44.8488 159.347 44.7176C158.212 44.588 157.38 45.46 157.208 46.9641C157.035 48.4826 157.654 49.4762 158.789 49.6058ZM158.289 53.9218C156.395 53.7056 155.146 52.5815 155.119 51.2159L156.905 51.4197C157.033 52.0277 157.646 52.5005 158.499 52.5979C159.67 52.7316 160.418 52.1503 160.529 51.1742L160.677 49.8798L160.634 49.8749C160.142 50.6538 159.175 51.1002 158.076 50.9748C156.182 50.7585 155.093 49.1326 155.365 46.7464C155.641 44.324 157.043 42.953 159.003 43.1767C160.095 43.3013 160.912 43.966 161.253 44.8985L161.282 44.9018L161.432 43.5858L163.196 43.7871L162.336 51.329C162.127 53.1585 160.524 54.1768 158.289 53.9218ZM42.5435 45.3287L46.3542 45.7636C49.4708 46.1193 51.0993 48.217 50.7222 51.5216C50.345 54.8262 48.2872 56.5544 45.1634 56.1979L41.3527 55.763L42.5435 45.3287ZM44.2292 47.118L43.3982 54.3996L45.1481 54.5993C47.2451 54.8386 48.5481 53.6908 48.8196 51.3118C49.0862 48.9762 48.0616 47.5554 45.9791 47.3177L44.2292 47.118ZM51.4688 56.9175L52.3436 49.2527L54.1441 49.4582L53.2693 57.123L51.4688 56.9175ZM53.365 48.1973C52.8227 48.1354 52.432 47.6439 52.493 47.1088C52.5549 46.5665 53.0455 46.183 53.5879 46.2449C54.1446 46.3084 54.529 46.7918 54.4671 47.3341C54.406 47.8692 53.9218 48.2608 53.365 48.1973ZM55.2671 51.8132C55.4272 50.4104 56.7582 49.5954 58.6093 49.8066C60.4749 50.0196 61.5461 51.16 61.4236 52.6184L59.746 52.4269C59.7529 51.7245 59.2898 51.2248 58.4583 51.1299C57.6629 51.0391 57.0921 51.3549 57.0277 51.9189C56.9774 52.36 57.2609 52.7 58.0429 52.9724L59.2834 53.3997C60.8337 53.9355 61.3782 54.6203 61.2511 55.7339C61.0861 57.1801 59.6442 58.0044 57.7641 57.7898C55.7612 57.5612 54.6842 56.4714 54.7088 54.9726L56.4804 55.1747C56.5327 55.9352 57.0032 56.3698 57.9143 56.4738C58.7893 56.5737 59.3729 56.274 59.4381 55.7028C59.4909 55.24 59.2458 54.9483 58.4638 54.6759L57.2233 54.2487C55.7926 53.7558 55.1375 52.9485 55.2671 51.8132ZM65.5157 58.6745C63.2669 58.4179 61.9771 56.7543 62.261 54.2669C62.5432 51.7939 64.1916 50.4437 66.426 50.6987C68.6604 50.9537 69.963 52.6334 69.6799 55.1136C69.3961 57.601 67.7646 58.9312 65.5157 58.6745ZM65.6783 57.25C66.8208 57.3804 67.664 56.539 67.8505 54.9048C68.0362 53.2778 67.4051 52.2609 66.2626 52.1305C65.1273 52.0009 64.2761 52.8487 64.0904 54.4757C63.9039 56.1099 64.5358 57.1196 65.6783 57.25ZM70.3995 59.078L71.2743 51.4132L73.0025 51.6104L72.8498 52.9482L72.886 52.9523C73.2527 52.0492 73.9863 51.5909 74.8902 51.694C75.1215 51.7204 75.3191 51.7869 75.4459 51.8307L75.2602 53.4577C75.115 53.3825 74.8452 53.3078 74.5415 53.2731C73.5219 53.1567 72.8322 53.7446 72.7092 54.822L72.2 59.2835L70.3995 59.078ZM78.0503 60.0757C76.1197 59.8554 75.0428 58.1869 75.3209 55.7501C75.5974 53.3277 77.0233 51.9375 78.954 52.1578C80.0531 52.2833 80.8556 52.9535 81.164 53.8458L81.2074 53.8507L81.6703 49.7941L83.4708 49.9996L82.28 60.4339L80.5157 60.2326L80.665 58.9238L80.6361 58.9205C80.1185 59.7331 79.1711 60.2036 78.0503 60.0757ZM79.3271 53.7021C78.1702 53.57 77.3373 54.4492 77.164 55.9677C76.9899 57.4935 77.5968 58.5296 78.761 58.6625C79.8963 58.7921 80.7508 57.9154 80.9241 56.3968C81.0958 54.8928 80.4624 53.8316 79.3271 53.7021ZM87.8295 54.5552C86.8171 54.4397 85.9985 55.13 85.8041 56.192L89.3834 56.6005C89.471 55.5117 88.8635 54.6732 87.8295 54.5552ZM89.129 58.8935L90.8138 59.0858C90.4174 60.5056 88.9586 61.35 87.1436 61.1428C84.8441 60.8804 83.6283 59.2107 83.9072 56.7666C84.1837 54.3442 85.7688 52.9063 87.9815 53.1588C90.158 53.4072 91.345 55.0736 91.0793 57.402L91.0124 57.9877L85.6543 57.3762L85.6419 57.4847C85.5016 58.7139 86.1595 59.6241 87.3382 59.7586C88.177 59.8543 88.8612 59.5075 89.129 58.8935ZM91.7887 61.5191L92.6635 53.8543L94.3917 54.0515L94.239 55.3893L94.2752 55.3934C94.642 54.4903 95.3755 54.032 96.2794 54.1351C96.5108 54.1615 96.7083 54.228 96.8351 54.2718L96.6495 55.8988C96.5042 55.8236 96.2344 55.7488 95.9307 55.7142C94.9111 55.5978 94.2214 56.1857 94.0984 57.2631L93.5892 61.7246L91.7887 61.5191ZM103.882 56.3873C102.87 56.2717 102.051 56.9621 101.857 58.024L105.436 58.4325C105.524 57.3437 104.916 56.5053 103.882 56.3873ZM105.182 60.7256L106.867 60.9178C106.47 62.3376 105.011 63.182 103.196 62.9749C100.897 62.7124 99.681 61.0427 99.96 58.5986C100.236 56.1763 101.822 54.7383 104.034 54.9908C106.211 55.2392 107.398 56.9057 107.132 59.234L107.065 59.8198L101.707 59.2082L101.695 59.3167C101.554 60.546 102.212 61.4561 103.391 61.5906C104.23 61.6864 104.914 61.3396 105.182 60.7256ZM111.019 60.9302L110.982 60.9261L109.078 63.4923L107.162 63.2736L110.071 59.7306L108.058 55.6112L110.083 55.8423L111.323 58.7088L111.36 58.713L113.192 56.1972L115.166 56.4225L112.268 59.9301L114.263 64.084L112.296 63.8595L111.019 60.9302ZM120.315 56.8782C122.26 57.1002 123.324 58.7526 123.045 61.2039C122.766 63.648 121.364 65.019 119.44 64.7994C118.327 64.6724 117.52 64.0382 117.199 63.1299L117.163 63.1258L116.73 66.922L114.929 66.7165L116.092 56.5281L117.849 56.7286L117.698 58.0519L117.734 58.056C118.269 57.2161 119.202 56.7511 120.315 56.8782ZM119.03 63.2583C120.194 63.3912 121.027 62.512 121.201 60.9935C121.373 59.4822 120.761 58.4307 119.596 58.2979C118.476 58.1699 117.618 59.0756 117.441 60.5643C117.276 62.0692 117.909 63.1304 119.03 63.2583ZM127.802 59.1172C126.79 59.0016 125.971 59.692 125.777 60.7539L129.356 61.1624C129.444 60.0737 128.836 59.2352 127.802 59.1172ZM129.102 63.4555L130.787 63.6478C130.39 65.0675 128.931 65.9119 127.116 65.7048C124.817 65.4424 123.601 63.7726 123.88 61.3286C124.156 58.9062 125.742 57.4682 127.954 57.7208C130.131 57.9692 131.318 59.6356 131.052 61.964L130.985 62.5497L125.627 61.9382L125.615 62.0466C125.474 63.2759 126.132 64.186 127.311 64.3206C128.15 64.4163 128.834 64.0695 129.102 63.4555ZM131.762 66.0811L132.636 58.4163L134.365 58.6135L134.212 59.9512L134.248 59.9553C134.615 59.0523 135.348 58.5939 136.252 58.6971C136.484 58.7235 136.681 58.79 136.808 58.8338L136.622 60.4607C136.477 60.3855 136.207 60.3108 135.904 60.2761C134.884 60.1598 134.194 60.7476 134.071 61.8251L133.562 66.2866L131.762 66.0811ZM138.431 57.2609L140.231 57.4664L140.026 59.2597L141.473 59.4247L141.314 60.8131L139.868 60.648L139.413 64.6323C139.341 65.2614 139.598 65.5836 140.234 65.6562C140.4 65.6752 140.633 65.6872 140.752 65.6787L140.595 67.0526C140.395 67.0737 140.037 67.0622 139.654 67.0184C137.998 66.8294 137.414 66.1694 137.584 64.6799L138.067 60.4425L136.968 60.3171L137.127 58.9287L138.226 59.0542L138.431 57.2609ZM142.314 61.7475C142.474 60.3447 143.805 59.5297 145.656 59.741C147.521 59.9539 148.593 61.0943 148.47 62.5527L146.792 62.3612C146.799 61.6588 146.336 61.1591 145.505 61.0642C144.709 60.9735 144.139 61.2892 144.074 61.8532C144.024 62.2943 144.307 62.6343 145.089 62.9067L146.33 63.334C147.88 63.8698 148.425 64.5546 148.298 65.6682C148.133 67.1144 146.691 67.9387 144.811 67.7242C142.808 67.4956 141.731 66.4057 141.755 64.9069L143.527 65.1091C143.579 65.8695 144.05 66.3041 144.961 66.4081C145.836 66.508 146.419 66.2083 146.485 65.6371C146.537 65.1743 146.292 64.8826 145.51 64.6102L144.27 64.183C142.839 63.6901 142.184 62.8828 142.314 61.7475Z" fill="black"/>
<path d="M128.21 101.08L132.552 100.547C134.773 100.274 136.499 101.594 136.773 103.823C137.046 106.052 135.645 107.756 133.385 108.034L131.125 108.311L131.578 112.003L129.582 112.248L128.21 101.08ZM130.408 102.468L130.927 106.702L132.739 106.479C134.17 106.303 134.911 105.427 134.745 104.072C134.58 102.733 133.658 102.069 132.226 102.245L130.408 102.468ZM141.337 103.821C140.253 103.954 139.573 104.878 139.637 106.033L143.468 105.562C143.286 104.406 142.444 103.685 141.337 103.821ZM143.777 108.015L145.58 107.794C145.522 109.372 144.214 110.617 142.271 110.855C139.81 111.157 138.125 109.722 137.804 107.106C137.486 104.514 138.777 102.619 141.146 102.328C143.475 102.042 145.129 103.481 145.435 105.973L145.512 106.6L139.777 107.304L139.791 107.42C139.953 108.736 140.866 109.519 142.128 109.364C143.025 109.254 143.651 108.722 143.777 108.015ZM147.205 110.084L146.197 101.88L148.047 101.653L148.223 103.085L148.262 103.08C148.418 102.048 149.067 101.387 150.035 101.268C150.282 101.237 150.505 101.257 150.648 101.271L150.862 103.013C150.692 102.971 150.392 102.96 150.067 103C148.975 103.134 148.404 103.919 148.546 105.073L149.132 109.848L147.205 110.084ZM151.788 103.582C151.604 102.081 152.786 100.899 154.767 100.655C156.764 100.41 158.166 101.33 158.403 102.88L156.608 103.101C156.439 102.367 155.831 101.962 154.941 102.072C154.09 102.176 153.574 102.648 153.649 103.252C153.707 103.724 154.087 104.007 154.97 104.095L156.369 104.23C158.118 104.4 158.857 104.977 159.003 106.169C159.193 107.717 157.898 108.937 155.885 109.184C153.741 109.447 152.347 108.581 151.997 107.013L153.893 106.781C154.138 107.56 154.737 107.895 155.712 107.775C156.649 107.66 157.182 107.202 157.107 106.59C157.046 106.095 156.718 105.852 155.835 105.764L154.436 105.63C152.822 105.475 151.937 104.797 151.788 103.582ZM164.182 108.165C161.775 108.46 160.015 107.05 159.688 104.388C159.363 101.741 160.742 99.9217 163.134 99.6281C165.526 99.3344 167.303 100.758 167.629 103.413C167.956 106.075 166.589 107.869 164.182 108.165ZM163.995 106.64C165.218 106.49 165.886 105.402 165.671 103.653C165.457 101.912 164.545 101.01 163.322 101.161C162.107 101.31 161.432 102.406 161.646 104.147C161.861 105.897 162.772 106.79 163.995 106.64ZM169.371 107.363L168.364 99.1588L170.214 98.9317L170.386 100.34L170.425 100.336C170.747 99.3062 171.549 98.6106 172.81 98.4557C174.622 98.2333 175.793 99.2679 176.026 101.164L176.677 106.466L174.75 106.702L174.147 101.788C174.004 100.627 173.383 100.043 172.283 100.178C171.177 100.314 170.57 101.198 170.715 102.374L171.298 107.126L169.371 107.363ZM181.058 104.584C182.149 104.45 182.934 103.616 182.813 102.625L182.736 101.998L180.854 102.347C179.933 102.523 179.45 103.006 179.53 103.656C179.613 104.33 180.222 104.687 181.058 104.584ZM180.656 106.111C179.07 106.306 177.794 105.449 177.612 103.97C177.434 102.515 178.448 101.503 180.43 101.134L182.582 100.744L182.51 100.156C182.404 99.2968 181.763 98.8727 180.811 98.9896C179.898 99.1017 179.371 99.6142 179.331 100.31L177.543 100.53C177.44 98.9871 178.613 97.7275 180.703 97.4709C182.739 97.2209 184.194 98.1343 184.397 99.7828L185.09 105.433L183.233 105.661L183.072 104.353L183.033 104.358C182.671 105.306 181.709 105.981 180.656 106.111ZM186.7 105.235L185.329 94.0668L187.256 93.8301L188.627 104.998L186.7 105.235ZM190.315 104.791L189.307 96.5873L191.234 96.3506L192.242 104.555L190.315 104.791ZM190.107 95.232C189.527 95.3033 188.997 94.8891 188.926 94.3164C188.855 93.7359 189.27 93.2136 189.851 93.1423C190.446 93.0691 190.968 93.4765 191.039 94.057C191.109 94.6297 190.703 95.1588 190.107 95.232ZM193.697 104.376L193.553 103.207L197.127 97.1827L197.123 97.1517L192.912 97.6687L192.728 96.1672L199.16 95.3775L199.316 96.6468L195.899 102.542L195.904 102.581L200.052 102.071L200.237 103.573L193.697 104.376ZM204.136 96.1099C203.053 96.2429 202.373 97.1671 202.436 98.322L206.267 97.8516C206.086 96.6954 205.243 95.974 204.136 96.1099ZM206.576 100.304L208.379 100.083C208.322 101.661 207.013 102.906 205.071 103.144C202.61 103.447 200.925 102.011 200.604 99.3955C200.285 96.8027 201.577 94.9079 203.945 94.6171C206.275 94.3311 207.928 95.77 208.234 98.2621L208.311 98.8891L202.576 99.5932L202.591 99.7093C202.752 101.025 203.665 101.809 204.927 101.654C205.825 101.543 206.451 101.011 206.576 100.304ZM213.085 102.129C211.019 102.383 209.479 100.914 209.159 98.3058C208.841 95.713 209.978 93.9078 212.045 93.654C213.221 93.5096 214.225 94.007 214.77 94.8593L214.816 94.8536L214.283 90.5117L216.21 90.275L217.581 101.443L215.693 101.675L215.521 100.274L215.49 100.278C215.154 101.254 214.285 101.982 213.085 102.129ZM212.82 95.1694C211.582 95.3214 210.934 96.4458 211.134 98.0712C211.334 99.7042 212.226 100.632 213.472 100.479C214.687 100.33 215.358 99.2023 215.158 97.577C214.961 95.9672 214.035 95.0202 212.82 95.1694ZM156.194 122.765L154.375 122.989C154.113 122.133 153.421 121.55 152.391 121.677C151.176 121.826 150.52 122.944 150.727 124.631C150.938 126.349 151.849 127.243 153.072 127.093C154.047 126.973 154.613 126.338 154.677 125.387L156.496 125.164C156.567 127.017 155.298 128.398 153.24 128.651C150.84 128.946 149.096 127.534 148.769 124.871C148.447 122.248 149.792 120.409 152.176 120.116C154.343 119.85 155.85 121.056 156.194 122.765ZM161.653 127.618C159.246 127.914 157.486 126.504 157.159 123.841C156.834 121.194 158.213 119.375 160.605 119.081C162.996 118.788 164.774 120.211 165.1 122.866C165.426 125.529 164.06 127.323 161.653 127.618ZM161.466 126.093C162.688 125.943 163.356 124.856 163.141 123.107C162.928 121.365 162.016 120.464 160.793 120.614C159.578 120.763 158.903 121.859 159.117 123.601C159.332 125.35 160.243 126.244 161.466 126.093ZM166.842 126.816L165.834 118.612L167.684 118.385L167.857 119.794L167.896 119.789C168.217 118.759 169.019 118.064 170.281 117.909C172.092 117.687 173.264 118.721 173.497 120.617L174.148 125.919L172.221 126.156L171.617 121.241C171.475 120.08 170.853 119.496 169.754 119.631C168.647 119.767 168.041 120.651 168.185 121.827L168.769 126.579L166.842 126.816ZM174.987 115.54L176.914 115.303L177.15 117.223L178.698 117.033L178.88 118.519L177.332 118.709L177.856 122.973C177.938 123.647 178.286 123.918 178.967 123.835C179.145 123.813 179.391 123.767 179.512 123.728L179.692 125.199C179.489 125.271 179.114 125.349 178.703 125.399C176.931 125.617 176.158 125.075 175.962 123.481L175.405 118.945L174.228 119.09L174.046 117.604L175.222 117.459L174.987 115.54ZM183.558 117.779C182.474 117.912 181.794 118.836 181.858 119.991L185.689 119.521C185.508 118.365 184.665 117.643 183.558 117.779ZM185.998 121.974L187.801 121.752C187.744 123.33 186.435 124.575 184.492 124.814C182.031 125.116 180.347 123.681 180.025 121.065C179.707 118.472 180.999 116.577 183.367 116.286C185.696 116 187.35 117.439 187.656 119.932L187.733 120.558L181.998 121.263L182.012 121.379C182.174 122.694 183.087 123.478 184.349 123.323C185.246 123.213 185.872 122.68 185.998 121.974ZM189.426 124.043L188.419 115.839L190.268 115.612L190.441 117.021L190.48 117.016C190.801 115.986 191.604 115.291 192.865 115.136C194.676 114.914 195.848 115.948 196.081 117.844L196.732 123.146L194.805 123.383L194.201 118.468C194.059 117.307 193.437 116.723 192.338 116.858C191.231 116.994 190.625 117.878 190.77 119.054L191.353 123.806L189.426 124.043ZM197.571 112.767L199.498 112.53L199.734 114.45L201.282 114.26L201.464 115.746L199.916 115.936L200.44 120.2C200.523 120.874 200.87 121.145 201.551 121.062C201.729 121.04 201.975 120.994 202.096 120.955L202.277 122.426C202.073 122.498 201.698 122.576 201.288 122.626C199.515 122.844 198.742 122.302 198.546 120.708L197.989 116.172L196.813 116.317L196.63 114.831L197.807 114.686L197.571 112.767Z" fill="black"/>
<defs>
<filter id="filter0_d_12_2670" x="188.939" y="0.701257" width="164.48" height="120.655" filterUnits="userSpaceOnUse" color-interpolation-filters="sRGB">
<feFlood flood-opacity="0" result="BackgroundImageFix"/>
<feColorMatrix in="SourceAlpha" type="matrix" values="0 0 0 0 0 0 0 0 0 0 0 0 0 0 0 0 0 0 127 0" result="hardAlpha"/>
<feOffset dy="3.19396"/>
<feGaussianBlur stdDeviation="2.66164"/>
<feComposite in2="hardAlpha" operator="out"/>
<feColorMatrix type="matrix" values="0 0 0 0 0.65599 0 0 0 0 0.65599 0 0 0 0 0.65599 0 0 0 0.25 0"/>
<feBlend mode="normal" in2="BackgroundImageFix" result="effect1_dropShadow_12_2670"/>
<feBlend mode="normal" in="SourceGraphic" in2="effect1_dropShadow_12_2670" result="shape"/>
</filter>
<filter id="filter1_d_12_2670" x="0.160124" y="1.61385" width="185.541" height="99.086" filterUnits="userSpaceOnUse" color-interpolation-filters="sRGB">
<feFlood flood-opacity="0" result="BackgroundImageFix"/>
<feColorMatrix in="SourceAlpha" type="matrix" values="0 0 0 0 0 0 0 0 0 0 0 0 0 0 0 0 0 0 127 0" result="hardAlpha"/>
<feOffset dy="3.19396"/>
<feGaussianBlur stdDeviation="2.66164"/>
<feComposite in2="hardAlpha" operator="out"/>
<feColorMatrix type="matrix" values="0 0 0 0 0.65599 0 0 0 0 0.65599 0 0 0 0 0.65599 0 0 0 0.25 0"/>
<feBlend mode="normal" in2="BackgroundImageFix" result="effect1_dropShadow_12_2670"/>
<feBlend mode="normal" in="SourceGraphic" in2="effect1_dropShadow_12_2670" result="shape"/>
</filter>
<filter id="filter2_d_12_2670" x="86.6167" y="65.1441" width="174.289" height="98.1368" filterUnits="userSpaceOnUse" color-interpolation-filters="sRGB">
<feFlood flood-opacity="0" result="BackgroundImageFix"/>
<feColorMatrix in="SourceAlpha" type="matrix" values="0 0 0 0 0 0 0 0 0 0 0 0 0 0 0 0 0 0 127 0" result="hardAlpha"/>
<feOffset dy="3.19396"/>
<feGaussianBlur stdDeviation="2.66164"/>
<feComposite in2="hardAlpha" operator="out"/>
<feColorMatrix type="matrix" values="0 0 0 0 0.65599 0 0 0 0 0.65599 0 0 0 0 0.65599 0 0 0 0.25 0"/>
<feBlend mode="normal" in2="BackgroundImageFix" result="effect1_dropShadow_12_2670"/>
<feBlend mode="normal" in="SourceGraphic" in2="effect1_dropShadow_12_2670" result="shape"/>
</filter>
</defs>
</svg>
