<svg width="294" height="180" viewBox="0 0 294 180" fill="none" xmlns="http://www.w3.org/2000/svg">
<path d="M289.315 35.5478C317.76 97.6405 208.659 178.019 134.263 179.923C70.5195 181.554 5.25723 157.436 0.272041 86.7063C-1.9878 54.6363 14.0683 15.8266 46.6358 4.30538C80.8462 -7.79716 114.738 16.0943 148.626 18.9609C180.193 21.6209 211.402 -1.48193 243.315 2.39448C267.002 5.27131 280.864 17.1009 289.315 35.5478Z" fill="#E2D0A0"/>
<mask id="mask0_8_603" style="mask-type:luminance" maskUnits="userSpaceOnUse" x="0" y="0" width="294" height="180">
<path d="M289.315 35.5478C317.76 97.6405 208.659 178.019 134.263 179.923C70.5195 181.554 5.25723 157.436 0.272041 86.7063C-1.9878 54.6363 14.0683 15.8266 46.6358 4.30538C80.8462 -7.79716 114.738 16.0943 148.626 18.9609C180.193 21.6209 211.402 -1.48193 243.315 2.39448C267.002 5.27131 280.864 17.1009 289.315 35.5478Z" fill="white"/>
</mask>
<g mask="url(#mask0_8_603)">
<g opacity="0.7">
<path opacity="0.3" d="M90.6445 -27.5413H88.1416L90.1941 58.342L90.6445 58.3395L91.0952 58.342L93.1477 -27.5413H90.6445Z" fill="#FFED65"/>
<path opacity="0.3" d="M112.872 -24.6152L110.455 -25.2629L90.209 58.2254L90.6445 58.3395L91.0793 58.4585L115.29 -23.9674L112.872 -24.6152Z" fill="#FFED65"/>
<path opacity="0.3" d="M133.585 -16.0356L131.417 -17.2868L90.2529 58.1166L90.6441 58.3395L91.0333 58.5669L135.753 -14.7839L133.585 -16.0356Z" fill="#FFED65"/>
<path opacity="0.3" d="M151.371 -2.38747L149.602 -4.15717L90.3242 58.023L90.6444 58.3395L90.9613 58.6597L153.142 -0.617371L151.371 -2.38747Z" fill="#FFED65"/>
<path opacity="0.3" d="M165.02 15.3989L163.769 13.2314L90.418 57.9507L90.645 58.3395L90.8683 58.7307L166.272 17.5668L165.02 15.3989Z" fill="#FFED65"/>
<path opacity="0.3" d="M274.267 3.93469L90.5254 57.9052L90.644 58.3395L90.7586 58.7754L276.011 13.8521L274.267 3.93469Z" fill="#FFED65"/>
<path opacity="0.3" d="M176.526 58.3395V55.8366L90.6426 57.8892L90.6446 58.3395L90.6426 58.7898L176.526 60.8428V58.3395Z" fill="#FFED65"/>
<path opacity="0.3" d="M68.4169 -24.6152L65.999 -23.9674L90.2099 58.4585L90.6442 58.3395L91.0801 58.2254L70.8344 -25.2629L68.4169 -24.6152Z" fill="#FFED65"/>
<path opacity="0.3" d="M47.704 -16.0356L45.5361 -14.7839L90.2554 58.5669L90.6442 58.3395L91.0358 58.1166L49.8715 -17.2868L47.704 -16.0356Z" fill="#FFED65"/>
<path opacity="0.3" d="M29.9181 -2.38747L28.1484 -0.617371L90.3286 58.6597L90.6451 58.3395L90.9657 58.023L31.6882 -4.15717L29.9181 -2.38747Z" fill="#FFED65"/>
<path opacity="0.3" d="M16.2692 15.3989L15.0176 17.5668L90.421 58.7311L90.6439 58.3395L90.8713 57.9507L17.5204 13.2314L16.2692 15.3989Z" fill="#FFED65"/>
<path opacity="0.3" d="M7.69018 36.1118L7.04199 38.5297L90.5303 58.7755L90.6444 58.3395L90.7635 57.9052L8.33796 33.6944L7.69018 36.1118Z" fill="#FFED65"/>
<path opacity="0.3" d="M4.76367 58.3395V60.8428L90.6469 58.7902L90.6444 58.3395L90.6469 57.8892L4.76367 55.8366V58.3395Z" fill="#FFED65"/>
</g>
<path opacity="0.3" d="M100.85 35.1241C112.897 40.4045 119.157 56.0485 114.079 68.1818C109.001 80.3151 93.4643 86.8368 81.2476 81.9629C69.031 77.089 62.2502 61.6634 66.9189 49.3667C71.5876 37.0704 87.2468 29.162 100.85 35.1241Z" fill="#FFED65"/>
<path opacity="0.3" d="M98.4834 40.5005C107.739 44.558 112.55 56.578 108.648 65.9006C104.747 75.2236 92.809 80.2346 83.4219 76.4896C74.0349 72.7446 68.8251 60.8924 72.4121 51.4442C75.9995 41.996 88.0315 35.9193 98.4834 40.5005Z" fill="#FFED65"/>
<path opacity="0.3" d="M96.501 45.012C103.417 48.0436 107.01 57.0238 104.096 63.9893C101.181 70.9552 92.2617 74.6986 85.2482 71.9006C78.2351 69.1026 74.3423 60.2475 77.0224 53.1881C79.7026 46.1294 88.6919 41.5892 96.501 45.012Z" fill="#FFED65"/>
<path d="M94.8083 48.8621C99.7258 51.0177 102.282 57.4043 100.209 62.3575C98.1363 67.3107 91.7931 69.9736 86.8059 67.9835C81.8182 65.9938 79.0502 59.6962 80.9562 54.6765C82.8626 49.6565 89.255 46.4278 94.8083 48.8621Z" fill="#FFF982"/>
</g>
<mask id="mask1_8_603" style="mask-type:luminance" maskUnits="userSpaceOnUse" x="0" y="0" width="294" height="180">
<path d="M289.315 35.5478C317.76 97.6405 208.659 178.019 134.263 179.923C70.5195 181.554 5.25723 157.436 0.272041 86.7063C-1.9878 54.6363 14.0683 15.8266 46.6358 4.30538C80.8462 -7.79716 114.738 16.0943 148.626 18.9609C180.193 21.6209 211.402 -1.48193 243.315 2.39448C267.002 5.27131 280.864 17.1009 289.315 35.5478Z" fill="white"/>
</mask>
<g mask="url(#mask1_8_603)">
<path d="M-5.53617 44.4192C3.26426 40.0326 13.8992 41.4607 23.15 44.7936C32.4012 48.1261 40.9664 53.2213 50.3395 56.193C64.99 60.8391 80.7428 60.055 96.0756 58.998C102.027 58.587 108.179 58.1687 113.798 60.1716C119.417 62.1745 124.39 67.2992 124.222 73.2618L-6.61621 75.0114L-5.53617 44.4192Z" fill="#3C3B7B"/>
</g>
<mask id="mask2_8_603" style="mask-type:luminance" maskUnits="userSpaceOnUse" x="0" y="0" width="294" height="180">
<path d="M289.315 35.5478C317.76 97.6405 208.659 178.019 134.263 179.923C70.5195 181.554 5.25723 157.436 0.272041 86.7063C-1.9878 54.6363 14.0683 15.8266 46.6358 4.30538C80.8462 -7.79716 114.738 16.0943 148.626 18.9609C180.193 21.6209 211.402 -1.48193 243.315 2.39448C267.002 5.27131 280.864 17.1009 289.315 35.5478Z" fill="white"/>
</mask>
<g mask="url(#mask2_8_603)">
<path d="M117.342 69.6584C121.442 65.7619 127.62 65.1198 133.271 65.3427C138.923 65.566 144.725 66.4261 150.133 64.7709C157.508 62.5143 162.675 56.0887 168.712 51.2891C178.498 43.5087 191.422 39.7961 203.846 41.1972C214.048 42.3474 223.557 46.7218 233.306 49.9414C243.055 53.161 253.821 55.218 263.47 51.7111C270.091 49.3051 275.544 44.5046 281.82 41.3068C288.096 38.1089 296.294 36.7826 301.788 41.191L302.102 72.9892L117.603 78.3816L117.342 69.6584Z" fill="#47468A"/>
</g>
<mask id="mask3_8_603" style="mask-type:luminance" maskUnits="userSpaceOnUse" x="0" y="0" width="294" height="180">
<path d="M289.315 35.5478C317.76 97.6405 208.659 178.019 134.263 179.923C70.5195 181.554 5.25723 157.436 0.272041 86.7063C-1.9878 54.6363 14.0683 15.8266 46.6358 4.30538C80.8462 -7.79716 114.738 16.0943 148.626 18.9609C180.193 21.6209 211.402 -1.48193 243.315 2.39448C267.002 5.27131 280.864 17.1009 289.315 35.5478Z" fill="white"/>
</mask>
<g mask="url(#mask3_8_603)">
<path d="M295.225 70.5065H-3.72949V185.952H295.225V70.5065Z" fill="#6765BF"/>
</g>
<mask id="mask4_8_603" style="mask-type:luminance" maskUnits="userSpaceOnUse" x="0" y="0" width="294" height="180">
<path d="M289.315 35.5478C317.76 97.6405 208.659 178.019 134.263 179.923C70.5195 181.554 5.25723 157.436 0.272041 86.7063C-1.9878 54.6363 14.0683 15.8266 46.6358 4.30538C80.8462 -7.79716 114.738 16.0943 148.626 18.9609C180.193 21.6209 211.402 -1.48193 243.315 2.39448C267.002 5.27131 280.864 17.1009 289.315 35.5478Z" fill="white"/>
</mask>
<g mask="url(#mask4_8_603)">
<path d="M160.23 70.5065C156.643 72.2585 153.268 74.6124 150.203 77.1374C143.425 82.7227 137.386 89.3606 129.674 93.5638C123.246 97.0675 115.994 98.6889 109.064 101.051C102.135 103.414 95.1704 106.783 89.8691 113.343C99.6429 120.675 110.766 126.201 122.511 129.563L121.895 129.137L171.541 70.5065H160.23Z" fill="#716FC9"/>
<path d="M63.9733 94.4139C52.5535 102.119 39.2129 109.032 33.8057 121.703C33.8057 121.703 52.8942 123.832 54.7181 122.639C58.7082 104.828 73.1404 89.7695 90.765 85.0261C98.2075 83.0232 106.028 82.7482 113.479 80.7757C119.819 79.0967 126.18 75.8119 129.81 70.5065H61.0735C62.0095 70.6017 62.9397 70.7573 63.86 70.9896C68.6388 72.1982 73.1219 76.0389 73.4351 80.958C73.8005 86.6985 68.7418 91.1972 63.9733 94.4139Z" fill="#716FC9"/>
<path d="M-3.72949 101.629C-0.0156434 97.1418 4.80534 93.5658 10.2088 91.3873C13.9732 89.8696 18.0663 88.9719 21.3565 86.5958C24.6467 84.2202 26.9033 79.6649 25.0458 76.0565C23.7108 73.4642 20.7494 72.1949 17.9551 71.3603C16.8833 71.0401 15.8007 70.7569 14.7104 70.5065H-3.72949V101.629Z" fill="#716FC9"/>
</g>
<g opacity="0.3">
<mask id="mask5_8_603" style="mask-type:luminance" maskUnits="userSpaceOnUse" x="0" y="70" width="293" height="110">
<path d="M0.637349 70.5065C0.0281582 75.9876 -0.0982771 81.4379 0.27282 86.7059C5.2576 157.436 70.5199 181.554 134.264 179.923C195.187 178.363 279.38 124.179 292.257 70.5065H0.637349Z" fill="white"/>
</mask>
<g mask="url(#mask5_8_603)">
<path opacity="0.3" d="M90.6454 166.966H88.1426L90.1951 81.0828L90.6454 81.0853L91.0962 81.0828L93.1487 166.966H90.6454Z" fill="#FFD465"/>
<path opacity="0.3" d="M112.873 164.04L110.456 164.688L90.21 81.1998L90.6455 81.0853L91.0802 80.9666L115.291 163.392L112.873 164.04Z" fill="#FFD465"/>
<path opacity="0.3" d="M133.586 155.46L131.418 156.712L90.2539 81.3086L90.6451 81.0853L91.0343 80.8582L135.754 154.209L133.586 155.46Z" fill="#FFD465"/>
<path opacity="0.3" d="M151.372 141.812L149.603 143.582L90.3252 81.4022L90.6454 81.0853L90.9623 80.7651L153.142 140.043L151.372 141.812Z" fill="#FFD465"/>
<path opacity="0.3" d="M165.021 124.026L163.77 126.194L90.4189 81.4744L90.646 81.0852L90.8693 80.694L166.273 121.858L165.021 124.026Z" fill="#FFD465"/>
<path opacity="0.3" d="M274.268 135.49L90.5264 81.52L90.645 81.0853L90.7595 80.6497L276.012 125.573L274.268 135.49Z" fill="#FFD465"/>
<path opacity="0.3" d="M176.527 81.0853V83.5885L90.6436 81.536L90.6456 81.0853L90.6436 80.6349L176.527 78.5824V81.0853Z" fill="#FFD465"/>
<path opacity="0.3" d="M68.4179 164.04L66 163.392L90.2108 80.9666L90.6451 81.0853L91.0811 81.1998L70.8354 164.688L68.4179 164.04Z" fill="#FFD465"/>
<path opacity="0.3" d="M47.705 155.46L45.5371 154.209L90.2564 80.8582L90.6452 81.0853L91.0368 81.3086L49.8725 156.712L47.705 155.46Z" fill="#FFD465"/>
<path opacity="0.3" d="M29.9181 141.812L28.1484 140.043L90.3286 80.7651L90.6451 81.0853L90.9657 81.4022L31.6882 143.582L29.9181 141.812Z" fill="#FFD465"/>
<path opacity="0.3" d="M16.2702 124.026L15.0186 121.858L90.422 80.694L90.6449 81.0852L90.8723 81.4744L17.5214 126.194L16.2702 124.026Z" fill="#FFD465"/>
<path opacity="0.3" d="M7.69018 103.313L7.04199 100.895L90.5303 80.6497L90.6444 81.0853L90.7635 81.52L8.33796 105.731L7.69018 103.313Z" fill="#FFD465"/>
<path opacity="0.3" d="M4.76465 81.0853V78.5824L90.6479 80.6349L90.6454 81.0853L90.6479 81.536L4.76465 83.5885V81.0853Z" fill="#FFD465"/>
<path opacity="0.3" d="M100.851 104.301C112.898 99.0203 119.158 83.3763 114.08 71.243C109.002 59.1096 93.4653 52.5879 81.2486 57.4619C69.0319 62.3358 62.2512 77.7614 66.9199 90.0581C71.5886 102.355 87.2477 110.263 100.851 104.301Z" fill="#FFD465"/>
<path opacity="0.3" d="M98.4844 98.9242C107.74 94.8668 112.551 82.8467 108.649 73.5241C104.748 64.2011 92.8099 59.1901 83.4229 62.9351C74.0358 66.6802 68.8261 78.5323 72.4131 87.9805C76.0005 97.4291 88.0325 103.505 98.4844 98.9242Z" fill="#FFD465"/>
<path opacity="0.3" d="M96.5019 94.4132C103.418 91.3816 107.011 82.4013 104.097 75.4363C101.182 68.4704 92.2626 64.727 85.2491 67.525C78.2361 70.323 74.3432 79.1781 77.0234 86.2375C79.7036 93.2958 88.6929 97.836 96.5019 94.4132Z" fill="#FFD465"/>
<path d="M94.8093 90.563C99.7267 88.4079 102.283 82.0208 100.21 77.0676C98.1373 72.1144 91.7941 69.4515 86.8069 71.4416C81.8192 73.4314 79.0512 79.7289 80.9572 84.7486C82.8635 89.7683 89.256 92.9969 94.8093 90.563Z" fill="#FFD465"/>
</g>
<mask id="mask6_8_603" style="mask-type:luminance" maskUnits="userSpaceOnUse" x="0" y="70" width="293" height="110">
<path d="M0.637349 70.5065C0.0281582 75.9876 -0.0982771 81.4379 0.27282 86.7059C5.2576 157.436 70.5199 181.554 134.264 179.923C195.187 178.363 279.38 124.179 292.257 70.5065H0.637349Z" fill="white"/>
</mask>
<g mask="url(#mask6_8_603)">
<path d="M-5.53658 95.0059C3.26385 99.3926 13.8988 97.9644 23.1496 94.6315C32.4008 91.299 40.966 86.2038 50.3391 83.2322C64.9896 78.5861 80.7424 79.3702 96.0752 80.4272C102.026 80.8381 108.179 81.2564 113.798 79.2536C119.417 77.2507 124.39 72.126 124.221 66.1634L-6.61621 64.4142L-5.53658 95.0059Z" fill="#3C3B7B"/>
</g>
<mask id="mask7_8_603" style="mask-type:luminance" maskUnits="userSpaceOnUse" x="0" y="70" width="293" height="110">
<path d="M0.637349 70.5065C0.0281582 75.9876 -0.0982771 81.4379 0.27282 86.7059C5.2576 157.436 70.5199 181.554 134.264 179.923C195.187 178.363 279.38 124.179 292.257 70.5065H0.637349Z" fill="white"/>
</mask>
<g mask="url(#mask7_8_603)">
<path d="M117.342 69.7668C121.442 73.6633 127.62 74.3053 133.271 74.0824C138.923 73.8591 144.725 72.9991 150.133 74.6543C157.508 76.9108 162.675 83.3365 168.712 88.1361C178.498 95.9164 191.422 99.629 203.846 98.228C214.048 97.0778 223.557 92.7034 233.306 89.4838C243.055 86.2642 253.821 84.2071 263.47 87.7141C270.091 90.1201 275.544 94.9205 281.82 98.1184C288.096 101.316 296.294 102.643 301.788 98.2341L302.102 66.4359L117.603 61.0435L117.342 69.7668Z" fill="#47468A"/>
</g>
</g>
<mask id="mask8_8_603" style="mask-type:luminance" maskUnits="userSpaceOnUse" x="0" y="0" width="294" height="180">
<path d="M289.315 35.5478C317.76 97.6405 208.659 178.019 134.263 179.923C70.5195 181.554 5.25723 157.436 0.272041 86.7063C-1.9878 54.6363 14.0683 15.8266 46.6358 4.30538C80.8462 -7.79716 114.738 16.0943 148.626 18.9609C180.193 21.6209 211.402 -1.48193 243.315 2.39448C267.002 5.27131 280.864 17.1009 289.315 35.5478Z" fill="white"/>
</mask>
<g mask="url(#mask8_8_603)">
<path d="M203.144 52.8556C169.243 62.3452 134.825 93.5556 115.304 125.213C133.776 143.097 156.602 157.251 180.658 165.638C184.137 166.851 187.701 167.766 191.319 168.408C211.539 158.668 256 135.638 273.801 113.551C291.399 91.7161 294.282 68.7795 294.632 58.764C265.861 46.6655 233.161 44.4521 203.144 52.8556Z" fill="#9494D9"/>
<path d="M205.638 52.1868C222.291 52.1503 239.12 53.4089 253.567 61.3136C258.42 63.9684 263.286 67.995 263.823 73.5007C264.475 80.1764 258.453 85.6669 252.313 88.3664C246.173 91.0659 239.245 92.3007 233.988 96.4653C232.508 97.6368 231.137 99.1323 230.793 100.987C230.377 103.228 231.527 105.417 232.258 107.576C235.564 117.355 229.93 128.362 221.63 134.499C213.331 140.637 202.919 143.004 193.328 145.079C204.693 149.855 217.27 150.572 229.347 148.1C246.593 137.826 264.131 125.549 273.802 113.551C291.401 91.7157 294.283 68.7791 294.633 58.7636C266.656 46.9997 234.965 44.5851 205.638 52.1868Z" fill="#8181CC"/>
<path opacity="0.12" d="M134.366 129.754C130.949 125.37 124.385 119.562 120.963 116.64C118.962 119.484 117.071 122.346 115.304 125.212C133.776 143.097 156.602 157.251 180.658 165.638C184.137 166.851 187.701 167.766 191.319 168.408C202.153 163.189 219.946 154.154 236.869 143.494C184.577 102.191 134.366 129.754 134.366 129.754Z" fill="#292940"/>
</g>
<mask id="mask9_8_603" style="mask-type:luminance" maskUnits="userSpaceOnUse" x="0" y="0" width="294" height="180">
<path d="M289.315 35.5478C317.76 97.6405 208.659 178.019 134.263 179.923C70.5195 181.554 5.25723 157.436 0.272041 86.7063C-1.9878 54.6363 14.0683 15.8266 46.6358 4.30538C80.8462 -7.79716 114.738 16.0943 148.626 18.9609C180.193 21.6209 211.402 -1.48193 243.315 2.39448C267.002 5.27131 280.864 17.1009 289.315 35.5478Z" fill="white"/>
</mask>
<g mask="url(#mask9_8_603)">
<path d="M90.645 101.11L77.1582 101.206C77.3314 98.7768 77.6373 96.331 78.0498 93.8787C80.5789 91.4132 82.7489 88.5844 84.4759 85.5035C82.7386 85.8393 81.1085 86.3085 79.5075 86.8077C80.6886 81.9231 82.1795 77.0746 83.7534 72.3661C87.4406 81.5397 89.7731 91.2596 90.645 101.11Z" fill="#4B54B3"/>
<path opacity="0.12" d="M90.2788 97.6709C86.732 96.0408 82.7669 94.6327 78.3318 93.5933C78.2374 93.6878 78.1455 93.785 78.0498 93.8782C77.6373 96.3306 77.3314 98.7764 77.1582 101.206L90.645 101.109C90.5436 99.9615 90.42 98.815 90.2788 97.6709Z" fill="#292940"/>
<path d="M100.817 106.521L87.3301 106.617C88.0054 97.0034 90.8038 87.1106 93.9257 77.7761C95.1301 80.774 96.1917 83.8327 97.1001 86.9304C95.9856 86.3881 94.8739 85.8454 93.7594 85.3032C95.057 87.6857 96.6079 89.7555 98.3546 91.5954C99.0664 94.5174 99.6457 97.4722 100.088 100.447C98.1416 99.2986 96.1449 98.1844 93.9487 97.1927C95.8124 100.248 98.0985 103.046 100.72 105.485C100.754 105.828 100.787 106.175 100.817 106.521Z" fill="#C2BADB"/>
<path opacity="0.12" d="M100.72 105.486C99.2551 104.123 97.8996 102.645 96.6595 101.076C94.2433 99.5962 91.5799 98.1967 88.6476 96.9517C88.0183 100.184 87.5541 103.416 87.3291 106.617L100.816 106.521C100.787 106.175 100.753 105.828 100.72 105.486Z" fill="#292940"/>
<path d="M25.7227 104.198C26.3959 94.5847 29.1951 84.6932 32.3158 75.3582C36.0046 84.5331 38.3359 94.2518 39.2102 104.101L25.7227 104.198Z" fill="#C2BADB"/>
<path opacity="0.12" d="M38.0079 95.1557C33.5358 96.6869 29.5551 98.6471 26.0453 100.817C25.9115 101.947 25.8011 103.074 25.7227 104.198L39.2102 104.101C38.9442 101.104 38.5411 98.1179 38.0079 95.1557Z" fill="#292940"/>
<path d="M71.1235 94.9135L57.6367 95.0104C57.8695 91.6956 58.3555 88.345 59.0209 84.9936C61.3403 82.2186 63.3366 79.1772 64.9638 75.9494C63.3932 76.4683 62.0156 77.114 60.6979 77.8032C61.7393 73.873 62.9606 69.9732 64.2319 66.1699C66.9306 72.885 68.9002 79.8861 70.105 87.0211L65.5862 85.311C67.167 87.8495 68.9371 90.2687 70.8838 92.5412C70.9737 93.3298 71.0533 94.1221 71.1235 94.9135Z" fill="#C2BADB"/>
<path opacity="0.12" d="M70.8842 92.5408C70.8016 92.4443 70.7237 92.3437 70.6416 92.2464C66.7278 91.7793 62.5045 91.5921 57.945 91.7571C57.8177 92.8446 57.7123 93.9295 57.6367 95.0104L71.1235 94.9135C71.0537 94.122 70.9741 93.3298 70.8842 92.5408Z" fill="#292940"/>
<path d="M117.395 122.337L103.908 122.433C104.583 112.82 107.382 102.93 110.504 93.5933C111.934 97.1569 113.162 100.804 114.181 104.507C113.279 103.849 112.314 103.22 111.213 102.661C112.361 105.173 113.792 107.553 115.472 109.745C116.377 113.898 117.019 118.104 117.395 122.337Z" fill="#4B54B3"/>
<path opacity="0.12" d="M116.99 118.607C114.692 116.545 112.509 114.481 110.651 112.549C109.344 111.192 107.871 109.732 106.21 108.24C105.076 112.972 104.237 117.736 103.907 122.433L117.394 122.337C117.284 121.091 117.147 119.848 116.99 118.607Z" fill="#292940"/>
<path d="M21.6127 120.05L8.12598 120.146C8.80126 110.533 11.5997 100.643 14.7216 91.306C16.1522 94.8696 17.38 98.5169 18.3985 102.22C17.497 101.561 16.5315 100.933 15.4305 100.373C16.5783 102.886 18.0093 105.265 19.6895 107.458C20.5947 111.61 21.2367 115.817 21.6127 120.05Z" fill="#4B54B3"/>
<path opacity="0.12" d="M19.6895 107.458C19.3566 107.023 19.0364 106.579 18.7232 106.131C14.0783 110.046 10.6765 114.056 8.4084 117.142C8.29428 118.146 8.19617 119.148 8.12598 120.146L21.6127 120.05C21.2367 115.817 20.5947 111.61 19.6895 107.458Z" fill="#292940"/>
<path d="M51.6033 101.577L38.1133 101.673C38.213 100.255 38.3592 98.8318 38.5455 97.4041C41.0012 94.09 43.1605 90.556 44.9946 86.8586C43.1945 88.0302 41.4404 89.3315 39.697 90.6718C40.9552 84.6459 42.7684 78.6329 44.7085 72.8328C48.3956 82.0105 50.7281 91.7272 51.6033 101.577Z" fill="#4B54B3"/>
<path opacity="0.12" d="M50.3484 92.3401C46.9248 92.7575 43.715 93.432 40.7101 94.3027C40.0156 95.3552 39.2964 96.3913 38.5455 97.4045C38.3588 98.8322 38.2126 100.256 38.1133 101.674L51.6033 101.577C51.3283 98.4804 50.9088 95.3975 50.3484 92.3401Z" fill="#292940"/>
<path d="M141.737 184.289C168.097 180.694 190.041 173.566 208.072 165.009C180.449 164.303 153.02 153.885 132.362 135.472C120.113 124.555 110.065 110.994 96.1861 102.241C80.7355 92.4961 61.1125 89.6365 43.5231 94.5663C27.1411 99.1574 12.7672 110.441 4.88672 125.646C13.1317 139.298 53.2493 196.354 141.737 184.289Z" fill="#B0AFE3"/>
<path d="M208.072 165.009C189.175 164.526 170.37 159.496 153.761 150.473C144.3 152.748 135.077 154.776 129.376 155.558C113.569 157.723 107.723 146.896 94.0733 135.637C80.4235 124.378 76.3259 133.905 57.7677 127.468C45.8384 123.33 38.297 108.185 34.4308 97.8922C21.9121 103.59 11.2693 113.331 4.88672 125.647C13.1317 139.298 53.2493 196.354 141.737 184.289C168.097 180.694 190.041 173.566 208.072 165.009Z" fill="#9897DB"/>
<path opacity="0.12" d="M132.363 135.473C130.64 133.938 128.963 132.35 127.311 130.731C93.7121 148.125 82.9482 178.843 82.9482 178.843V181.836C99.552 185.931 119.055 187.381 141.737 184.289C168.097 180.694 190.041 173.566 208.072 165.009C180.449 164.304 153.02 153.886 132.363 135.473Z" fill="#292940"/>
</g>
<mask id="mask10_8_603" style="mask-type:luminance" maskUnits="userSpaceOnUse" x="0" y="0" width="294" height="180">
<path d="M289.315 35.5478C317.76 97.6405 208.659 178.019 134.263 179.923C70.5195 181.554 5.25723 157.436 0.272041 86.7063C-1.9878 54.6363 14.0683 15.8266 46.6358 4.30538C80.8462 -7.79716 114.738 16.0943 148.626 18.9609C180.193 21.6209 211.402 -1.48193 243.315 2.39448C267.002 5.27131 280.864 17.1009 289.315 35.5478Z" fill="white"/>
</mask>
<g mask="url(#mask10_8_603)">
<path d="M204.649 135.05L186.374 135.18C186.69 130.69 187.348 126.149 188.25 121.608C191.393 117.847 194.099 113.726 196.303 109.352C194.175 110.055 192.308 110.93 190.522 111.864C191.933 106.538 193.588 101.254 195.311 96.0999C198.968 105.199 201.637 114.686 203.269 124.353L197.146 122.036C199.287 125.477 201.686 128.755 204.324 131.834C204.446 132.903 204.555 133.976 204.649 135.05Z" fill="#C2BADB"/>
<path opacity="0.12" d="M204.325 131.835C203.875 131.31 203.435 130.777 202.999 130.24C198.373 128.513 193.218 127.014 187.48 125.876C186.972 128.99 186.591 132.097 186.374 135.18L204.649 135.05C204.555 133.976 204.447 132.903 204.325 131.835Z" fill="#292940"/>
<path d="M148.286 139.555L130.011 139.686C130.245 136.394 130.66 133.08 131.219 129.757C134.646 126.416 137.586 122.583 139.927 118.408C137.573 118.863 135.363 119.499 133.195 120.176C134.795 113.556 136.815 106.987 138.948 100.606C143.944 113.037 147.105 126.208 148.286 139.555Z" fill="#C2BADB"/>
<path opacity="0.12" d="M146.342 125.753C140.705 127.11 135.591 129.037 130.971 131.332C130.54 134.127 130.208 136.914 130.011 139.686L148.286 139.555C147.876 134.925 147.222 130.317 146.342 125.753Z" fill="#292940"/>
<path d="M165.276 136.467L147.001 136.598C147.916 123.57 151.709 110.165 155.938 97.517C157.57 101.58 159.009 105.723 160.24 109.922C158.729 109.187 157.223 108.452 155.713 107.717C157.471 110.945 159.573 113.75 161.94 116.243C162.905 120.202 163.689 124.206 164.289 128.238C161.651 126.682 158.946 125.172 155.97 123.828C158.495 127.966 161.592 131.759 165.146 135.064C165.191 135.529 165.236 135.998 165.276 136.467Z" fill="#6069CC"/>
<g opacity="0.12">
<path d="M163.51 123.618C161.075 123.659 158.713 123.802 156.425 124.039C159.222 125.329 161.787 126.762 164.289 128.238C164.059 126.693 163.794 125.154 163.51 123.618Z" fill="#292940"/>
<path d="M165.146 135.064C161.663 131.825 158.622 128.115 156.124 124.072C153.472 124.356 150.914 124.76 148.455 125.277C147.773 129.064 147.265 132.846 147.001 136.598L165.276 136.467C165.236 135.998 165.191 135.529 165.146 135.064Z" fill="#292940"/>
</g>
<path d="M94.0732 174.26C94.9854 161.232 98.7789 147.83 103.007 135.18C108.006 147.612 111.165 160.782 112.35 174.129L94.0732 174.26Z" fill="#C2BADB"/>
<path opacity="0.12" d="M107.763 149.155C98.7382 159.188 94.8035 168.351 94.8035 168.351L94.6459 168.608C94.4021 170.498 94.2046 172.383 94.0732 174.26L112.35 174.13C111.601 165.686 110.059 157.314 107.763 149.155Z" fill="#292940"/>
<path d="M124.226 161.952L105.95 162.083C106.866 149.056 110.657 135.655 114.887 123.002C116.826 127.831 118.49 132.773 119.87 137.792C118.648 136.899 117.341 136.047 115.848 135.289C117.404 138.694 119.343 141.918 121.62 144.889C122.846 150.517 123.716 156.216 124.226 161.952Z" fill="#6069CC"/>
<path opacity="0.12" d="M121.619 144.889C120.31 143.18 119.116 141.385 118.039 139.523C114.031 142.669 110.593 146 107.687 149.239C106.859 153.534 106.249 157.828 105.95 162.082L124.226 161.951C123.716 156.216 122.846 150.517 121.619 144.889Z" fill="#292940"/>
<path d="M220.818 145.74L202.543 145.871C203.458 132.844 207.25 119.443 211.48 106.791C213.419 111.62 215.083 116.562 216.463 121.581C215.241 120.688 213.933 119.836 212.441 119.078C213.996 122.483 215.935 125.707 218.212 128.678C219.438 134.305 220.309 140.005 220.818 145.74Z" fill="#6069CC"/>
<path opacity="0.12" d="M220.033 138.889C215.793 136.049 210.721 133.282 204.706 130.896C203.658 135.901 202.891 140.913 202.543 145.871L220.818 145.74C220.615 143.45 220.351 141.166 220.033 138.889Z" fill="#292940"/>
<path d="M234.759 156.606C216.505 133.406 185.225 121.219 156.088 125.955C126.951 130.691 101.14 152.157 90.418 181.198C138.081 189.918 188.736 181.214 234.759 156.606Z" fill="#EBEBFA"/>
<path d="M234.759 156.606C224.667 143.779 210.592 134.321 195.099 129.226C191.751 135.83 185.938 141.231 178.962 142.959C172.741 144.499 165.882 143.404 160.094 146.159C155.743 148.23 152.65 152.18 149.073 155.406C141.418 162.307 131.303 165.997 121.112 167.54C112.935 168.78 104.639 168.734 96.3588 168.434C94.0538 172.49 92.0584 176.755 90.418 181.198C138.081 189.918 188.736 181.214 234.759 156.606Z" fill="#D3D3F0"/>
</g>
<mask id="mask11_8_603" style="mask-type:luminance" maskUnits="userSpaceOnUse" x="0" y="0" width="294" height="180">
<path d="M289.315 35.5478C317.76 97.6405 208.659 178.019 134.263 179.923C70.5195 181.554 5.25723 157.436 0.272041 86.7063C-1.9878 54.6363 14.0683 15.8266 46.6358 4.30538C80.8462 -7.79716 114.738 16.0943 148.626 18.9609C180.193 21.6209 211.402 -1.48193 243.315 2.39448C267.002 5.27131 280.864 17.1009 289.315 35.5478Z" fill="white"/>
</mask>
<g mask="url(#mask11_8_603)">
<path d="M151.201 199.008L183.46 199.239C181.844 176.245 175.15 152.582 167.685 130.257C164.803 137.428 162.264 144.742 160.092 152.153C162.758 150.856 165.416 149.558 168.082 148.26C164.979 153.96 161.27 158.91 157.091 163.312C155.388 170.3 154.003 177.367 152.944 184.483C157.6 181.737 162.376 179.071 167.63 176.699C163.172 184.006 157.704 190.699 151.432 196.534C151.352 197.353 151.273 198.18 151.201 199.008Z" fill="#6069CC"/>
</g>
<mask id="mask12_8_603" style="mask-type:luminance" maskUnits="userSpaceOnUse" x="0" y="0" width="294" height="180">
<path d="M289.315 35.5478C317.76 97.6405 208.659 178.019 134.263 179.923C70.5195 181.554 5.25723 157.436 0.272041 86.7063C-1.9878 54.6363 14.0683 15.8266 46.6358 4.30538C80.8462 -7.79716 114.738 16.0943 148.626 18.9609C180.193 21.6209 211.402 -1.48193 243.315 2.39448C267.002 5.27131 280.864 17.1009 289.315 35.5478Z" fill="white"/>
</mask>
<g mask="url(#mask12_8_603)">
<path d="M258.842 156.393L227.395 156.618C227.627 153.313 227.968 149.993 228.403 146.665C234.128 138.939 239.162 130.7 243.436 122.082C239.24 124.813 235.152 127.846 231.087 130.972C234.019 116.924 238.247 102.907 242.769 89.3857C251.364 110.781 256.802 133.431 258.842 156.393Z" fill="#6069CC"/>
</g>
<mask id="mask13_8_603" style="mask-type:luminance" maskUnits="userSpaceOnUse" x="0" y="0" width="294" height="180">
<path d="M289.315 35.5478C317.76 97.6405 208.659 178.019 134.263 179.923C70.5195 181.554 5.25723 157.436 0.272041 86.7063C-1.9878 54.6363 14.0683 15.8266 46.6358 4.30538C80.8462 -7.79716 114.738 16.0943 148.626 18.9609C180.193 21.6209 211.402 -1.48193 243.315 2.39448C267.002 5.27131 280.864 17.1009 289.315 35.5478Z" fill="white"/>
</mask>
<g mask="url(#mask13_8_603)">
<path d="M83.9594 188.11L52.5117 188.335C52.7445 185.031 53.0856 181.711 53.5203 178.383C59.2448 170.657 64.2789 162.419 68.5535 153.801C64.3569 156.531 60.2686 159.564 56.2042 162.69C59.1365 148.642 63.3639 134.625 67.8864 121.104C76.4812 142.498 81.9196 165.149 83.9594 188.11Z" fill="#6069CC"/>
</g>
<mask id="mask14_8_603" style="mask-type:luminance" maskUnits="userSpaceOnUse" x="0" y="0" width="294" height="180">
<path d="M289.315 35.5478C317.76 97.6405 208.659 178.019 134.263 179.923C70.5195 181.554 5.25723 157.436 0.272041 86.7063C-1.9878 54.6363 14.0683 15.8266 46.6358 4.30538C80.8462 -7.79716 114.738 16.0943 148.626 18.9609C180.193 21.6209 211.402 -1.48193 243.315 2.39448C267.002 5.27131 280.864 17.1009 289.315 35.5478Z" fill="white"/>
</mask>
<g mask="url(#mask14_8_603)">
<path d="M157.29 211.294L125.031 211.525C126.647 188.531 133.341 164.876 140.807 142.542C144.229 151.067 147.166 159.79 149.601 168.649C147.444 167.073 145.136 165.569 142.502 164.232C145.247 170.241 148.67 175.931 152.69 181.176C154.855 191.109 156.391 201.17 157.29 211.294Z" fill="#C2BADB"/>
</g>
</svg>
