<svg width="295" height="180" viewBox="0 0 295 180" fill="none" xmlns="http://www.w3.org/2000/svg">
<mask id="mask0_10_2238" style="mask-type:alpha" maskUnits="userSpaceOnUse" x="0" y="0" width="295" height="180">
<path d="M5.14447 144.954C-23.3007 82.8611 85.7999 2.48274 160.196 0.5784C223.94 -1.05254 289.202 23.0659 294.187 93.7953C296.447 125.865 280.391 164.675 247.823 176.196C213.613 188.299 179.721 164.407 145.833 161.541C114.266 158.881 83.0573 181.984 51.1442 178.107C27.4576 175.23 13.5952 163.401 5.14447 144.954Z" fill="#A9A9A9"/>
</mask>
<g mask="url(#mask0_10_2238)">
<path d="M308.848 -95.0177H-68.9875V438H308.848V-95.0177Z" fill="url(#paint0_linear_10_2238)"/>
<path d="M86.8102 119.374C104.528 119.374 118.891 105.055 118.891 87.3927C118.891 69.73 104.528 55.4116 86.8102 55.4116C69.0926 55.4116 54.7297 69.73 54.7297 87.3927C54.7297 105.055 69.0926 119.374 86.8102 119.374Z" fill="url(#paint1_linear_10_2238)"/>
<path d="M99.6906 85.6311C98.8207 85.3413 97.887 85.3644 97.0098 85.0861C96.4099 84.8958 95.802 84.7541 95.233 84.4554C94.7996 84.2277 94.4385 84.5731 94.1351 84.842C93.7537 85.1803 93.4501 85.001 93.1321 84.7738C92.9916 84.6735 92.8682 84.5458 92.7193 84.4618C92.5208 84.3499 92.4984 84.1735 92.5304 83.9943C92.5646 83.8031 92.7391 83.7798 92.9071 83.7551C93.3141 83.6958 93.735 83.7183 94.124 83.547C94.2929 83.4726 94.3427 83.3731 94.2571 83.2003C93.7453 82.1681 93.6732 81.0516 93.6228 79.9287C93.6068 79.5725 93.7797 79.2345 93.6886 78.8633C93.671 78.7918 93.801 78.5948 93.8268 78.4374C93.835 78.3867 93.9753 78.3037 93.9973 78.319C94.09 78.3827 94.1884 78.4651 94.2351 78.5642C94.6758 79.4956 95.1203 80.426 95.532 81.3703C95.666 81.6775 95.7356 82.021 95.7836 82.3551C95.86 82.887 96.1765 83.1706 96.6837 83.0631C97.0364 82.9882 97.256 83.1868 97.4858 83.3769C97.5345 83.4173 97.5336 83.5173 97.5556 83.5897C97.4981 83.6032 97.4396 83.6143 97.3829 83.631C97.2489 83.6705 97.0589 83.6276 97.0149 83.812C96.9795 83.9601 97.1398 83.9934 97.2313 84.0281C97.7925 84.2406 98.2113 84.6806 98.7353 84.9484C99.0403 85.1043 99.3159 85.3555 99.7095 85.2553C99.826 85.2258 99.9569 85.246 100.079 85.2596C100.089 85.2607 100.114 85.4117 100.081 85.4523C99.9869 85.5687 99.8611 85.6511 99.6906 85.6311Z" fill="#4D453A"/>
<path d="M89.8639 101.523C90.6078 101.605 91.3997 101.284 92.2005 101.012C92.5672 100.887 92.9377 100.881 93.2969 100.995C93.6318 101.101 93.9774 100.891 94.2944 101.052C94.4844 101.148 94.6642 101.275 94.8256 101.414C94.9227 101.498 94.8218 101.532 94.7407 101.558C94.5149 101.631 94.1788 101.612 94.1201 101.862C94.0628 102.107 94.4033 102.123 94.5673 102.228C95.1932 102.628 95.3672 103.352 95.8006 103.889C96.1716 104.349 96.4836 104.856 96.9199 105.264C96.9423 105.285 96.9512 105.32 96.9664 105.348C96.9486 105.357 96.9248 105.377 96.9141 105.372C96.761 105.296 96.5625 105.43 96.4914 105.394C95.9409 105.118 95.2832 105.205 94.7585 104.809C94.1406 104.341 93.5794 103.806 92.9542 103.355C92.5664 103.076 92.2443 102.743 91.9105 102.414C91.7925 102.298 91.7187 102.38 91.6631 102.477C91.3177 103.084 90.8879 102.932 90.3089 102.812C90.0108 102.75 89.7337 102.687 89.4828 102.494C89.2603 102.323 89.1481 102.079 89.0254 101.857C88.9427 101.708 89.0745 101.52 89.3107 101.523C89.451 101.525 89.5919 101.523 89.8639 101.523Z" fill="#4D453A"/>
<path d="M79.5239 103.253C79.237 103.225 78.9496 103.202 78.6631 103.17C78.4227 103.143 78.2346 103.186 78.1444 103.447C78.0137 103.825 77.6905 103.665 77.4423 103.665C76.9298 103.664 76.519 103.446 76.2588 102.995C76.1414 102.792 76.1492 102.55 76.2841 102.377C76.4046 102.223 76.6306 102.186 76.8306 102.242C77.1982 102.345 77.5718 102.305 77.9435 102.313C78.0055 102.314 78.0684 102.27 78.131 102.247C78.1073 102.193 78.0841 102.139 78.0599 102.085C77.9083 101.752 77.7403 101.424 77.6083 101.083C77.3978 100.538 77.0767 100.068 76.6659 99.6615C76.3548 99.3535 76.1912 98.9513 75.938 98.6075C75.9249 98.5897 75.9336 98.5288 75.9412 98.5271C76.0001 98.5135 76.071 98.486 76.1201 98.5062C77.09 98.9055 78.0995 99.214 79.0132 99.7439C79.6253 100.099 79.7844 100.736 79.9893 101.337C80.0862 101.62 80.2074 101.729 80.5123 101.603C80.967 101.416 81.5774 101.559 81.8783 101.901C81.9285 101.958 81.9856 102.088 81.8447 102.089C81.5076 102.093 81.3344 102.324 81.1411 102.536C80.7072 103.01 80.1911 103.298 79.5239 103.253Z" fill="#4D453A"/>
<path d="M117.282 87.8892C117.764 87.9147 118.189 87.7688 118.607 87.5958C118.763 87.5312 118.686 87.4532 118.605 87.4021C118.077 87.071 117.925 86.5098 117.685 85.9883C117.447 85.4726 117.441 84.9096 117.622 84.4639C117.749 84.1527 117.651 83.769 117.928 83.514C117.966 83.4789 117.943 83.3681 117.934 83.2941C117.922 83.2071 117.85 83.078 117.94 83.0476C118.05 83.0105 118.105 83.1507 118.15 83.2397C118.418 83.779 118.662 84.3311 118.95 84.8594C119.363 85.6152 119.94 86.2504 120.53 86.8713C120.646 86.9944 120.808 87.0406 120.978 86.9875C121.28 86.8936 121.559 86.9111 121.813 87.1181C121.864 87.1594 121.975 87.1572 121.952 87.2447C121.938 87.294 121.85 87.3266 121.792 87.3597C121.672 87.4272 121.5 87.4559 121.5 87.6276C121.499 87.809 121.686 87.8084 121.799 87.8375C122.622 88.0493 123.389 88.3796 124.092 88.8566C124.123 88.8777 124.151 88.9035 124.18 88.9272C124.135 88.9335 124.091 88.9395 124.046 88.9461C123.539 89.0225 123.054 88.7829 122.576 88.79C121.887 88.8002 121.207 88.7169 120.522 88.7167C120.344 88.7167 120.181 88.6769 120.048 88.5692C119.575 88.1859 119.185 88.3998 118.82 88.7365C118.274 89.2411 117.564 89.2404 117.07 88.6849C116.932 88.5301 116.826 88.2832 116.83 88.0813C116.837 87.7786 117.135 87.9454 117.282 87.8892Z" fill="#4D453A"/>
<path d="M87.5007 93.9898C87.4625 94.3729 87.4647 94.7291 87.1353 94.969C87.0206 95.0525 87.0435 95.1735 87.1767 95.2075C87.3934 95.263 87.3776 95.498 87.5241 95.6066C87.5856 95.6524 87.5087 95.7079 87.4578 95.7261C87.13 95.8445 86.7942 95.9433 86.4732 96.0774C85.9758 96.2855 85.5246 96.129 85.0724 95.9408C84.9521 95.8909 84.8492 95.8973 84.7354 95.9717C84.4103 96.1847 83.7339 96.0492 83.5077 95.7359C83.4432 95.6463 83.4414 95.5453 83.483 95.456C83.5346 95.3452 83.649 95.3243 83.7564 95.3499C84.0369 95.4167 84.2965 95.351 84.5607 95.2637C84.7383 95.2051 84.7685 95.1016 84.6903 94.9608C84.2676 94.1983 84.0611 93.3695 83.9595 92.5158C83.9213 92.194 83.9388 91.8575 84.0809 91.5468C84.124 91.4524 84.1873 91.4075 84.2938 91.4104C84.3934 91.4131 84.4791 91.4315 84.5138 91.5355C84.8205 92.456 85.5493 93.1172 86.0027 93.9474C86.0485 94.0313 86.107 94.1273 86.1038 94.2156C86.0885 94.6805 86.3465 94.583 86.5812 94.4353C86.8171 94.2867 87.0206 94.0877 87.2425 93.9163C87.31 93.8641 87.3598 93.7357 87.4589 93.7923C87.5047 93.8179 87.4927 93.9434 87.5007 93.9898Z" fill="#4D453A"/>
<path d="M107.017 84.7337C107.297 84.8365 107.589 84.6924 107.816 84.5382C108.09 84.3519 107.792 84.0994 107.712 83.9268C107.256 82.9438 107.006 81.9238 107.032 80.8415C107.036 80.6799 107.111 80.5186 107.161 80.3594C107.188 80.2728 107.263 80.2539 107.348 80.2559C107.444 80.2581 107.536 80.2694 107.572 80.3745C107.909 81.3477 108.642 82.0752 109.165 82.9334C109.303 83.1604 109.381 83.4016 109.416 83.6594C109.439 83.826 109.489 83.8802 109.678 83.8149C110.08 83.6763 110.34 83.3478 110.682 83.1304C110.744 83.0906 110.807 82.9994 110.879 83.0611C110.925 83.0997 110.941 83.1984 110.935 83.2672C110.901 83.677 110.862 84.0852 110.407 84.2853C110.345 84.3121 110.318 84.4179 110.276 84.4869C110.342 84.5 110.408 84.5247 110.474 84.5242C110.753 84.5222 110.863 84.7417 110.912 84.9364C110.953 85.0981 110.723 85.1072 110.606 85.1599C109.852 85.4994 109.094 85.7082 108.276 85.3233C107.917 85.1543 107.564 85.5241 107.164 85.4157C106.944 85.3562 106.759 85.2738 106.589 85.1417C106.5 85.0728 106.416 84.9804 106.461 84.8538C106.509 84.7203 106.632 84.7292 106.747 84.7334C106.824 84.7359 106.902 84.7337 107.017 84.7337Z" fill="#4D453A"/>
<path d="M90.5348 94.3858C90.6708 94.2772 91.1284 94.6403 91.0178 94.0806C90.9706 93.8421 90.7382 93.8827 90.5688 93.8516C90.4112 93.8228 90.1752 93.841 90.1556 93.6806C90.1338 93.5014 90.3832 93.5461 90.5072 93.5112C90.9869 93.3759 91.4743 93.2662 91.961 93.1578C92.3855 93.0632 92.6251 93.2102 92.6213 93.6769C92.618 94.0768 92.8405 94.2274 93.2241 94.1752C93.4026 94.151 93.5601 94.1826 93.6697 94.3449C93.7606 94.4799 93.7893 94.5777 93.5819 94.6347C93.4781 94.6634 93.2352 94.7191 93.4248 94.8826C93.9882 95.3685 93.9711 96.0515 94.0838 96.6858C94.1382 96.9927 94.1118 97.3163 94.1018 97.6314C94.0971 97.7791 94.1967 98.0094 93.992 98.0532C93.8095 98.092 93.7075 97.8624 93.5753 97.7498C92.9021 97.1768 92.4733 96.3981 91.9254 95.7214C91.5318 95.2353 91.3663 95.3814 91.0827 95.7485C90.9066 95.9764 90.679 96.099 90.4297 95.8143C90.2381 95.5955 89.9967 95.4045 89.8607 95.156C89.61 94.6989 89.8871 94.3856 90.5348 94.3858Z" fill="#4D453A"/>
<path d="M100.232 93.8852C100.228 94.7702 100.375 94.9279 101.245 94.9883C101.418 95.0003 101.614 95.0616 101.651 95.2286C101.692 95.4123 101.47 95.3985 101.353 95.4547C101.276 95.4918 101.187 95.5171 101.188 95.6208C101.188 95.7121 101.278 95.7114 101.337 95.7449C101.598 95.8944 101.878 95.8729 102.16 95.8449C102.233 95.8376 102.333 95.7994 102.355 95.9051C102.378 96.0126 102.279 96.0412 102.197 96.0652C101.756 96.1954 101.31 95.9513 100.878 96.0585C100.347 96.1905 99.91 95.8873 99.4286 95.8005C99.1566 95.7514 98.9661 95.7692 98.7979 95.9837C98.5025 96.3604 98.1586 96.0905 97.8541 96.0201C97.6041 95.9624 97.4536 95.7198 97.4674 95.4553C97.4841 95.1331 97.5734 94.8426 98.0177 94.9594C98.228 95.0147 98.4429 95.0545 98.6578 95.0882C98.8116 95.1122 98.9097 95.0436 98.8283 94.8843C98.4267 94.0984 98.6396 93.3217 98.8425 92.5408C98.9419 92.1589 99.0808 91.8022 99.345 91.4983C99.4724 91.352 99.626 91.3025 99.7973 91.3429C99.9614 91.3815 99.9031 91.5497 99.8994 91.6489C99.8702 92.4165 100.236 93.1236 100.232 93.8852Z" fill="#4D453A"/>
<path d="M111.249 100.325C111.172 100.74 111.38 101.106 111.441 101.497C111.489 101.815 111.544 102.133 111.563 102.453C111.59 102.926 111.926 103.02 112.28 103C112.532 102.986 112.696 103.082 112.867 103.215C112.952 103.281 112.949 103.345 112.834 103.375C112.787 103.388 112.737 103.389 112.689 103.399C112.101 103.513 111.991 103.77 112.321 104.243C112.629 104.683 112.801 105.212 113.202 105.593C113.225 105.615 113.218 105.669 113.225 105.708C113.185 105.709 113.143 105.719 113.106 105.709C112.163 105.479 111.333 105.063 110.747 104.255C110.722 104.222 110.684 104.189 110.678 104.151C110.578 103.512 110.364 103.875 110.164 104.091C109.781 104.507 109.627 104.474 109.118 103.92C108.843 103.62 108.767 103.311 109.039 102.988C109.289 102.691 109.557 102.874 109.818 103.003C109.917 103.052 110.027 103.087 110.136 103.109C110.234 103.129 110.346 103.111 110.398 103.017C110.446 102.929 110.34 102.887 110.296 102.831C109.915 102.344 110.186 101.85 110.292 101.367C110.384 100.951 110.689 100.632 110.886 100.262C110.959 100.125 111.056 99.9196 111.187 99.9498C111.334 99.9835 111.191 100.198 111.249 100.325Z" fill="#4D453A"/>
<path d="M104.914 94.2907C104.965 94.2807 105.121 94.2689 105.264 94.218C105.582 94.1046 105.839 93.9609 105.489 93.5918C105.33 93.4243 105.428 93.1816 105.361 92.9854C105.083 92.1739 105.049 91.3098 104.814 90.4889C104.785 90.3854 104.792 90.2688 104.799 90.1593C104.801 90.1202 104.843 90.0709 104.88 90.0512C104.903 90.0392 104.963 90.0643 104.985 90.0905C105.575 90.7861 106.171 91.477 106.745 92.185C106.981 92.4762 106.928 92.8513 106.946 93.2C106.951 93.2844 106.942 93.3757 107.039 93.4167C107.125 93.4532 107.19 93.3999 107.244 93.345C107.447 93.1407 107.777 93.1087 107.932 92.8386C107.944 92.8175 108.018 92.8042 108.039 92.8198C108.225 92.9559 108.289 93.164 108.292 93.3728C108.294 93.5522 108.13 93.5738 107.979 93.5762C107.831 93.5784 107.656 93.6162 107.641 93.7672C107.622 93.9484 107.799 93.7832 107.882 93.8436C108.006 93.9333 108.195 93.988 108.217 94.137C108.24 94.2933 108.029 94.2303 107.941 94.3024C107.142 94.9621 106.268 94.7373 105.395 94.515C105.135 94.4486 104.915 94.5294 104.7 94.6744C104.606 94.7382 104.5 94.8617 104.366 94.7311C104.295 94.6627 104.207 94.5927 104.249 94.4806C104.303 94.3331 104.446 94.314 104.578 94.2931C104.653 94.2809 104.732 94.2907 104.914 94.2907Z" fill="#4D453A"/>
</g>
<defs>
<linearGradient id="paint0_linear_10_2238" x1="119.93" y1="438" x2="119.93" y2="-95.0177" gradientUnits="userSpaceOnUse">
<stop offset="0.0209" stop-color="#EFE0B5"/>
<stop offset="0.4162" stop-color="#F8DD9E"/>
<stop offset="0.622992" stop-color="#EDE6C0"/>
<stop offset="0.830854" stop-color="#E5EDDA"/>
</linearGradient>
<linearGradient id="paint1_linear_10_2238" x1="86.8101" y1="119.374" x2="86.8101" y2="55.4117" gradientUnits="userSpaceOnUse">
<stop offset="0.0209" stop-color="#EFE0B5"/>
<stop offset="0.4162" stop-color="#F8DD9E"/>
<stop offset="0.7488" stop-color="#EDE6C0"/>
<stop offset="0.9764" stop-color="#E5EDDA"/>
</linearGradient>
</defs>
</svg>
