<svg width="295" height="180" viewBox="0 0 295 180" fill="none" xmlns="http://www.w3.org/2000/svg">
<mask id="mask0_10_2385" style="mask-type:alpha" maskUnits="userSpaceOnUse" x="0" y="0" width="295" height="180">
<path d="M5.14447 144.954C-23.3007 82.8611 85.7999 2.48274 160.196 0.5784C223.94 -1.05254 289.202 23.0659 294.187 93.7953C296.447 125.865 280.391 164.675 247.823 176.196C213.613 188.299 179.721 164.407 145.833 161.541C114.266 158.881 83.0573 181.984 51.1442 178.107C27.4576 175.23 13.5952 163.401 5.14447 144.954Z" fill="#A9A9A9"/>
</mask>
<g mask="url(#mask0_10_2385)">
<path d="M308.848 -95.0177H-68.9876V438H308.848V-95.0177Z" fill="url(#paint0_linear_10_2385)"/>
<path d="M86.8101 119.374C104.528 119.374 118.891 105.055 118.891 87.3926C118.891 69.7299 104.528 55.4115 86.8101 55.4115C69.0926 55.4115 54.7297 69.7299 54.7297 87.3926C54.7297 105.055 69.0926 119.374 86.8101 119.374Z" fill="url(#paint1_linear_10_2385)"/>
<path d="M228.03 56.0162C227.16 55.7264 226.226 55.7495 225.349 55.4712C224.749 55.2809 224.141 55.1392 223.572 54.8405C223.139 54.6129 222.778 54.9582 222.474 55.2272C222.093 55.5654 221.789 55.3862 221.471 55.159C221.331 55.0586 221.208 54.9309 221.059 54.8469C220.86 54.735 220.838 54.5587 220.87 54.3794C220.904 54.1882 221.078 54.1649 221.247 54.1402C221.653 54.0809 222.074 54.1034 222.463 53.9322C222.632 53.8578 222.682 53.7582 222.596 53.5855C222.085 52.5532 222.013 51.4367 221.962 50.3138C221.946 49.9576 222.119 49.6196 222.028 49.2485C222.01 49.177 222.14 48.98 222.166 48.8225C222.174 48.7719 222.315 48.6888 222.337 48.7041C222.429 48.7679 222.528 48.8503 222.574 48.9493C223.015 49.8808 223.46 50.8111 223.871 51.7554C224.005 52.0626 224.075 52.4062 224.123 52.7402C224.199 53.2721 224.516 53.5557 225.023 53.4482C225.376 53.3734 225.595 53.5719 225.825 53.762C225.874 53.8024 225.873 53.9024 225.895 53.9748C225.837 53.9883 225.779 53.9994 225.722 54.0161C225.588 54.0556 225.398 54.0128 225.354 54.1971C225.319 54.3452 225.479 54.3785 225.571 54.4132C226.132 54.6257 226.551 55.0657 227.075 55.3335C227.38 55.4895 227.655 55.7406 228.049 55.6405C228.165 55.6109 228.296 55.6311 228.419 55.6447C228.428 55.6458 228.453 55.7968 228.42 55.8375C228.326 55.9538 228.2 56.0362 228.03 56.0162Z" fill="#4D453A"/>
<path d="M218.203 71.9085C218.947 71.9898 219.739 71.6689 220.54 71.3968C220.907 71.2722 221.277 71.266 221.636 71.3799C221.971 71.4863 222.317 71.2764 222.634 71.4372C222.824 71.5336 223.004 71.6602 223.165 71.7994C223.262 71.8832 223.161 71.9167 223.08 71.9431C222.854 72.0162 222.518 71.9973 222.46 72.2476C222.402 72.4924 222.743 72.5079 222.907 72.6128C223.533 73.0132 223.707 73.7372 224.14 74.2744C224.511 74.7344 224.823 75.2414 225.259 75.6492C225.282 75.6701 225.291 75.7051 225.306 75.7336C225.288 75.742 225.264 75.7624 225.254 75.7571C225.1 75.6809 224.902 75.8151 224.831 75.7793C224.28 75.5028 223.623 75.5905 223.098 75.1937C222.48 74.7264 221.919 74.1909 221.294 73.7403C220.906 73.4607 220.584 73.128 220.25 72.7993C220.132 72.6832 220.058 72.7649 220.003 72.8626C219.657 73.4694 219.227 73.317 218.648 73.1971C218.35 73.1353 218.073 73.0723 217.822 72.8793C217.6 72.708 217.488 72.4639 217.365 72.2425C217.282 72.0935 217.414 71.9054 217.65 71.9083C217.79 71.9098 217.931 71.9085 218.203 71.9085Z" fill="#4D453A"/>
<path d="M207.863 73.6376C207.576 73.6105 207.289 73.5872 207.003 73.5548C206.762 73.5277 206.574 73.5712 206.484 73.8322C206.353 74.2104 206.03 74.0503 205.782 74.0498C205.269 74.0487 204.858 73.8315 204.598 73.3804C204.481 73.177 204.489 72.9347 204.624 72.7624C204.744 72.6082 204.97 72.5716 205.17 72.6276C205.538 72.7302 205.911 72.6902 206.283 72.6982C206.345 72.6995 206.408 72.6553 206.47 72.632C206.447 72.5783 206.424 72.5241 206.399 72.4705C206.248 72.1367 206.08 71.8092 205.948 71.4678C205.737 70.9228 205.416 70.4531 205.005 70.0466C204.694 69.7386 204.531 69.3364 204.277 68.9926C204.264 68.9748 204.273 68.914 204.281 68.9122C204.339 68.8987 204.41 68.8711 204.459 68.8913C205.429 69.2906 206.439 69.5991 207.353 70.129C207.965 70.4839 208.124 71.1213 208.329 71.7217C208.426 72.0055 208.547 72.1139 208.852 71.9882C209.306 71.8007 209.917 71.944 210.218 72.286C210.268 72.3431 210.325 72.4728 210.184 72.4743C209.847 72.4781 209.674 72.7093 209.48 72.9207C209.047 73.3953 208.531 73.6832 207.863 73.6376Z" fill="#4D453A"/>
<path d="M245.621 58.2743C246.104 58.2999 246.529 58.154 246.947 57.9809C247.103 57.9163 247.026 57.8384 246.944 57.7873C246.417 57.4561 246.264 56.8949 246.024 56.3734C245.786 55.8578 245.78 55.2948 245.962 54.849C246.088 54.5379 245.99 54.1541 246.267 53.8991C246.305 53.864 246.283 53.7532 246.273 53.6793C246.262 53.5922 246.19 53.4632 246.279 53.4327C246.389 53.3957 246.445 53.5358 246.489 53.6249C246.758 54.1641 247.001 54.7162 247.29 55.2446C247.702 56.0003 248.28 56.6355 248.869 57.2565C248.986 57.3795 249.147 57.4257 249.318 57.3726C249.619 57.2787 249.898 57.2962 250.152 57.5032C250.203 57.5445 250.315 57.5423 250.291 57.6298C250.278 57.6791 250.189 57.7118 250.131 57.7449C250.011 57.8124 249.84 57.841 249.839 58.0127C249.839 58.1942 250.025 58.1935 250.138 58.2226C250.961 58.4345 251.729 58.7647 252.432 59.2418C252.462 59.2629 252.49 59.2886 252.519 59.3124C252.475 59.3186 252.43 59.3246 252.386 59.3313C251.878 59.4077 251.393 59.168 250.915 59.1751C250.226 59.1853 249.546 59.1021 248.862 59.1018C248.684 59.1018 248.52 59.0621 248.388 58.9544C247.914 58.571 247.524 58.7849 247.16 59.1216C246.613 59.6262 245.904 59.6255 245.409 59.0701C245.271 58.9153 245.165 58.6683 245.17 58.4664C245.176 58.1637 245.474 58.3305 245.621 58.2743Z" fill="#4D453A"/>
<path d="M215.84 64.3749C215.802 64.758 215.804 65.1142 215.475 65.3541C215.36 65.4376 215.383 65.5587 215.516 65.5926C215.733 65.6482 215.717 65.8831 215.863 65.9917C215.925 66.0375 215.848 66.093 215.797 66.1112C215.469 66.2296 215.134 66.3284 214.813 66.4626C214.315 66.6707 213.864 66.5141 213.412 66.326C213.292 66.276 213.189 66.2824 213.075 66.3568C212.75 66.5698 212.073 66.4344 211.847 66.121C211.783 66.0315 211.781 65.9304 211.822 65.8411C211.874 65.7303 211.988 65.7095 212.096 65.735C212.376 65.8018 212.636 65.7361 212.9 65.6488C213.078 65.5902 213.108 65.4867 213.03 65.3459C212.607 64.5835 212.4 63.7546 212.299 62.9009C212.261 62.5791 212.278 62.2426 212.42 61.9319C212.463 61.8375 212.527 61.7927 212.633 61.7955C212.733 61.7982 212.819 61.8167 212.853 61.9206C213.16 62.8412 213.889 63.5023 214.342 64.3325C214.388 64.4164 214.446 64.5124 214.443 64.6008C214.428 65.0656 214.686 64.9681 214.921 64.8204C215.156 64.6719 215.36 64.4728 215.582 64.3014C215.649 64.2492 215.699 64.1208 215.798 64.1775C215.844 64.203 215.832 64.3285 215.84 64.3749Z" fill="#4D453A"/>
<path d="M235.357 55.1188C235.636 55.2216 235.929 55.0775 236.155 54.9234C236.429 54.737 236.131 54.4845 236.051 54.3119C235.596 53.329 235.345 52.3089 235.371 51.2267C235.375 51.065 235.45 50.9037 235.5 50.7445C235.527 50.6579 235.602 50.639 235.687 50.641C235.783 50.6432 235.875 50.6546 235.912 50.7596C236.248 51.7328 236.982 52.4604 237.504 53.3185C237.643 53.5455 237.72 53.7867 237.756 54.0446C237.779 54.2111 237.828 54.2653 238.018 54.2C238.419 54.0614 238.68 53.733 239.021 53.5155C239.083 53.4758 239.146 53.3845 239.219 53.4462C239.264 53.4849 239.28 53.5835 239.274 53.6523C239.24 54.0621 239.201 54.4703 238.746 54.6704C238.685 54.6973 238.658 54.803 238.615 54.8721C238.681 54.8852 238.747 54.9098 238.813 54.9094C239.093 54.9074 239.202 55.1268 239.251 55.3216C239.292 55.4833 239.062 55.4924 238.945 55.545C238.191 55.8846 237.434 56.0933 236.616 55.7085C236.256 55.5394 235.904 55.9092 235.504 55.8008C235.284 55.7413 235.099 55.6589 234.928 55.5268C234.839 55.4579 234.755 55.3655 234.801 55.239C234.849 55.1055 234.971 55.1144 235.086 55.1186C235.164 55.121 235.241 55.1188 235.357 55.1188Z" fill="#4D453A"/>
<path d="M218.874 64.7709C219.01 64.6623 219.468 65.0254 219.357 64.4658C219.31 64.2272 219.078 64.2679 218.908 64.2368C218.751 64.2079 218.515 64.2261 218.495 64.0658C218.473 63.8865 218.723 63.9312 218.847 63.8963C219.326 63.7611 219.814 63.6514 220.3 63.543C220.725 63.4484 220.964 63.5954 220.961 64.062C220.957 64.462 221.18 64.6126 221.563 64.5604C221.742 64.5362 221.9 64.5677 222.009 64.73C222.1 64.8651 222.129 64.9628 221.921 65.0199C221.817 65.0485 221.575 65.1043 221.764 65.2677C222.328 65.7537 222.31 66.4366 222.423 67.0709C222.478 67.3778 222.451 67.7014 222.441 68.0165C222.436 68.1642 222.536 68.3945 222.331 68.4383C222.149 68.4772 222.047 68.2475 221.915 68.1349C221.241 67.5619 220.813 66.7833 220.265 66.1066C219.871 65.6204 219.706 65.7665 219.422 66.1337C219.246 66.3615 219.018 66.4841 218.769 66.1994C218.577 65.9806 218.336 65.7896 218.2 65.5411C217.949 65.0841 218.227 64.7707 218.874 64.7709Z" fill="#4D453A"/>
<path d="M228.571 64.2703C228.567 65.1553 228.715 65.313 229.585 65.3734C229.757 65.3854 229.953 65.4467 229.99 65.6137C230.031 65.7974 229.809 65.7836 229.692 65.8398C229.615 65.8769 229.526 65.9022 229.527 66.0059C229.527 66.0972 229.618 66.0965 229.676 66.1301C229.938 66.2795 230.218 66.258 230.5 66.23C230.573 66.2227 230.672 66.1845 230.695 66.2902C230.717 66.3977 230.619 66.4264 230.537 66.4503C230.095 66.5805 229.65 66.3364 229.218 66.4437C228.687 66.5756 228.249 66.2724 227.768 66.1856C227.496 66.1365 227.305 66.1543 227.137 66.3688C226.842 66.7455 226.498 66.4757 226.194 66.4053C225.943 66.3475 225.793 66.105 225.807 65.8405C225.823 65.5182 225.913 65.2277 226.357 65.3445C226.567 65.3998 226.782 65.4396 226.997 65.4734C227.151 65.4973 227.249 65.4287 227.168 65.2695C226.766 64.4835 226.979 63.7068 227.182 62.926C227.281 62.544 227.42 62.1873 227.684 61.8835C227.812 61.7371 227.965 61.6876 228.137 61.728C228.301 61.7667 228.242 61.9348 228.239 62.0341C228.21 62.8016 228.575 63.5087 228.571 64.2703Z" fill="#4D453A"/>
<path d="M239.588 70.7102C239.512 71.1253 239.72 71.4909 239.78 71.8822C239.829 72.1998 239.884 72.5181 239.902 72.8381C239.93 73.3114 240.265 73.4046 240.619 73.3853C240.872 73.3715 241.036 73.4668 241.207 73.6003C241.291 73.666 241.288 73.73 241.174 73.7602C241.126 73.7727 241.076 73.7742 241.028 73.7837C240.441 73.8983 240.33 74.1553 240.661 74.6281C240.969 75.0685 241.141 75.5971 241.542 75.978C241.565 76 241.558 76.0542 241.565 76.0933C241.525 76.0942 241.483 76.1037 241.446 76.0946C240.502 75.8639 239.673 75.4477 239.086 74.6406C239.061 74.6068 239.023 74.574 239.018 74.5364C238.917 73.8972 238.704 74.2599 238.504 74.4765C238.12 74.892 237.966 74.8593 237.457 74.3048C237.182 74.0054 237.107 73.6962 237.378 73.3735C237.629 73.0757 237.897 73.2589 238.157 73.3882C238.257 73.4375 238.366 73.4717 238.475 73.4937C238.574 73.5137 238.686 73.4961 238.737 73.402C238.786 73.3145 238.68 73.2725 238.635 73.2159C238.254 72.7295 238.526 72.2351 238.632 71.7525C238.723 71.3359 239.029 71.0167 239.225 70.6469C239.298 70.5099 239.396 70.3047 239.526 70.3349C239.674 70.3687 239.53 70.583 239.588 70.7102Z" fill="#4D453A"/>
<path d="M233.253 64.6758C233.304 64.6658 233.461 64.654 233.604 64.6032C233.921 64.4897 234.179 64.346 233.829 63.9769C233.67 63.8094 233.767 63.5667 233.7 63.3706C233.422 62.5591 233.389 61.6949 233.154 60.8741C233.124 60.7706 233.132 60.654 233.138 60.5445C233.14 60.5054 233.182 60.4561 233.219 60.4363C233.242 60.4243 233.303 60.4494 233.325 60.4756C233.914 61.1712 234.51 61.8621 235.084 62.5702C235.32 62.8613 235.267 63.2364 235.286 63.5851C235.29 63.6695 235.281 63.7608 235.378 63.8019C235.464 63.8383 235.529 63.785 235.584 63.7301C235.786 63.5258 236.116 63.4938 236.272 63.2238C236.284 63.2027 236.358 63.1893 236.379 63.2049C236.564 63.341 236.628 63.5491 236.631 63.7579C236.633 63.9373 236.47 63.9589 236.319 63.9613C236.171 63.9636 235.995 64.0013 235.98 64.1523C235.961 64.3336 236.139 64.1683 236.222 64.2287C236.345 64.3185 236.534 64.3731 236.556 64.5221C236.58 64.6785 236.368 64.6154 236.28 64.6876C235.482 65.3472 234.608 65.1224 233.735 64.9001C233.474 64.8337 233.254 64.9146 233.04 65.0596C232.945 65.1233 232.84 65.2468 232.705 65.1162C232.634 65.0478 232.547 64.9778 232.588 64.8657C232.642 64.7182 232.786 64.6991 232.917 64.6783C232.993 64.666 233.072 64.6758 233.253 64.6758Z" fill="#4D453A"/>
</g>
<defs>
<linearGradient id="paint0_linear_10_2385" x1="119.93" y1="438" x2="119.93" y2="-95.0177" gradientUnits="userSpaceOnUse">
<stop offset="0.452722" stop-color="#EFE0B5"/>
<stop offset="0.594245" stop-color="#F8C49E"/>
<stop offset="0.861812" stop-color="#EDE6C0"/>
<stop offset="1" stop-color="#E5EDDA"/>
</linearGradient>
<linearGradient id="paint1_linear_10_2385" x1="86.81" y1="119.374" x2="86.81" y2="55.4116" gradientUnits="userSpaceOnUse">
<stop offset="0.0209" stop-color="#EFE0B5"/>
<stop offset="0.4162" stop-color="#F8DD9E"/>
<stop offset="0.7488" stop-color="#EDE6C0"/>
<stop offset="0.9764" stop-color="#E5EDDA"/>
</linearGradient>
</defs>
</svg>
