<svg width="295" height="180" viewBox="0 0 295 180" fill="none" xmlns="http://www.w3.org/2000/svg">
<path d="M289.815 35.5478C318.26 97.6405 209.159 178.019 134.763 179.923C71.0195 181.554 5.75723 157.436 0.772041 86.7063C-1.4878 54.6363 14.5683 15.8266 47.1358 4.30538C81.3462 -7.79716 115.238 16.0943 149.126 18.9609C180.693 21.6209 211.902 -1.48193 243.815 2.39448C267.502 5.27131 281.364 17.1009 289.815 35.5478Z" fill="#6765BF"/>
<mask id="mask0_230_2" style="mask-type:luminance" maskUnits="userSpaceOnUse" x="0" y="0" width="295" height="180">
<path d="M289.815 35.5478C318.26 97.6405 209.159 178.019 134.763 179.923C71.0195 181.554 5.75723 157.436 0.772041 86.7063C-1.4878 54.6363 14.5683 15.8266 47.1358 4.30538C81.3462 -7.79716 115.238 16.0943 149.126 18.9609C180.693 21.6209 211.902 -1.48193 243.815 2.39448C267.502 5.27131 281.364 17.1009 289.815 35.5478Z" fill="white"/>
</mask>
<g mask="url(#mask0_230_2)">
<path opacity="0.3" d="M91.1445 -27.5413H88.6416L90.6941 58.342L91.1445 58.3395L91.5952 58.342L93.6477 -27.5413H91.1445Z" fill="#6765BF"/>
<path opacity="0.3" d="M113.372 -24.6152L110.955 -25.2629L90.709 58.2254L91.1445 58.3395L91.5793 58.4585L115.79 -23.9674L113.372 -24.6152Z" fill="#6765BF"/>
<path opacity="0.3" d="M134.085 -16.0356L131.917 -17.2868L90.7529 58.1166L91.1441 58.3395L91.5333 58.5669L136.253 -14.7839L134.085 -16.0356Z" fill="#6765BF"/>
<path opacity="0.3" d="M151.871 -2.38747L150.102 -4.15717L90.8242 58.023L91.1444 58.3395L91.4613 58.6597L153.642 -0.617371L151.871 -2.38747Z" fill="#6765BF"/>
<path opacity="0.3" d="M165.52 15.3989L164.269 13.2314L90.918 57.9507L91.145 58.3395L91.3683 58.7307L166.772 17.5668L165.52 15.3989Z" fill="#6765BF"/>
<path opacity="0.3" d="M274.767 3.93469L91.0254 57.9052L91.144 58.3395L91.2586 58.7754L276.511 13.8521L274.767 3.93469Z" fill="#6765BF"/>
<path opacity="0.3" d="M177.026 58.3395V55.8366L91.1426 57.8892L91.1446 58.3395L91.1426 58.7898L177.026 60.8428V58.3395Z" fill="#6765BF"/>
<path opacity="0.3" d="M68.9169 -24.6152L66.499 -23.9674L90.7099 58.4585L91.1442 58.3395L91.5801 58.2254L71.3344 -25.2629L68.9169 -24.6152Z" fill="#6765BF"/>
<path opacity="0.3" d="M48.204 -16.0356L46.0361 -14.7839L90.7554 58.5669L91.1442 58.3395L91.5358 58.1166L50.3715 -17.2868L48.204 -16.0356Z" fill="#6765BF"/>
<path opacity="0.3" d="M30.4181 -2.38747L28.6484 -0.617371L90.8286 58.6597L91.1451 58.3395L91.4657 58.023L32.1882 -4.15717L30.4181 -2.38747Z" fill="#6765BF"/>
<path opacity="0.3" d="M16.7692 15.3989L15.5176 17.5668L90.921 58.7311L91.1439 58.3395L91.3713 57.9507L18.0204 13.2314L16.7692 15.3989Z" fill="#6765BF"/>
<path opacity="0.3" d="M8.19018 36.1118L7.54199 38.5297L91.0303 58.7755L91.1444 58.3395L91.2635 57.9052L8.83796 33.6944L8.19018 36.1118Z" fill="#6765BF"/>
<path opacity="0.3" d="M5.26367 58.3395V60.8428L91.1469 58.7902L91.1444 58.3395L91.1469 57.8892L5.26367 55.8366V58.3395Z" fill="#6765BF"/>
<path opacity="0.3" d="M101.35 35.1241C113.397 40.4045 119.657 56.0485 114.579 68.1818C109.501 80.3151 93.9643 86.8368 81.7476 81.9629C69.531 77.089 62.7502 61.6634 67.4189 49.3667C72.0876 37.0704 87.7468 29.162 101.35 35.1241Z" fill="#6765BF"/>
<path opacity="0.3" d="M98.9834 40.5005C108.239 44.558 113.05 56.578 109.148 65.9006C105.247 75.2236 93.309 80.2346 83.9219 76.4896C74.5349 72.7446 69.3251 60.8924 72.9121 51.4442C76.4995 41.996 88.5315 35.9193 98.9834 40.5005Z" fill="#6765BF"/>
<path opacity="0.3" d="M97.001 45.012C103.917 48.0436 107.51 57.0238 104.596 63.9893C101.681 70.9552 92.7617 74.6986 85.7482 71.9006C78.7351 69.1026 74.8423 60.2475 77.5224 53.1881C80.2026 46.1294 89.1919 41.5892 97.001 45.012Z" fill="#6765BF"/>
<path d="M95.3083 48.8621C100.226 51.0177 102.782 57.4043 100.709 62.3575C98.6363 67.3107 92.2931 69.9736 87.3059 67.9835C82.3182 65.9938 79.5502 59.6962 81.4562 54.6765C83.3626 49.6565 89.755 46.4278 95.3083 48.8621Z" fill="#FFF982"/>
</g>
<mask id="mask1_230_2" style="mask-type:luminance" maskUnits="userSpaceOnUse" x="0" y="0" width="295" height="180">
<path d="M289.815 35.5478C318.26 97.6405 209.159 178.019 134.763 179.923C71.0195 181.554 5.75723 157.436 0.772041 86.7063C-1.4878 54.6363 14.5683 15.8266 47.1358 4.30538C81.3462 -7.79716 115.238 16.0943 149.126 18.9609C180.693 21.6209 211.902 -1.48193 243.815 2.39448C267.502 5.27131 281.364 17.1009 289.815 35.5478Z" fill="white"/>
</mask>
<g mask="url(#mask1_230_2)">
<path opacity="0.45" d="M106.968 62.1437C106.088 59.7894 108.879 57.6186 111.374 57.3206C113.87 57.0226 116.578 57.5858 118.785 56.3847C121.089 55.1306 122.293 52.2057 124.799 51.4323C127.722 50.53 130.728 53.0378 133.767 52.6848C136.141 52.4093 137.981 50.4311 139.089 48.3129C140.197 46.1938 140.801 43.8334 141.985 41.7567C145.806 35.0507 156.043 33.1886 162.858 38.1857C163.283 34.7305 167.558 33.26 171.037 33.3741C174.517 33.4879 178.273 34.3499 181.291 32.6147C186.118 29.8397 186.179 22.0672 191.106 19.4719C195.18 17.3262 200.007 19.9362 204.048 22.1456C208.088 24.3545 213.699 25.9867 216.819 22.5996C219.243 19.9678 218.614 15.8837 218.839 12.3127C219.205 6.51309 222.409 0.959763 227.246 -2.26066C232.084 -5.48108 238.443 -6.29347 243.871 -3.74874C259.943 -2.35056 275.254 6.23887 284.825 19.2261C294.395 32.2132 298.066 49.3806 294.642 65.1465L108.667 70.2934L106.968 62.1437ZM76.6218 65.9482C78.0582 64.924 77.9063 62.5845 76.7482 61.2537C75.5902 59.9236 73.7901 59.3731 72.0701 58.9836C70.3497 58.5936 68.5443 58.2746 67.1165 57.2397C64.0258 54.9992 63.6026 50.0928 60.2537 48.2616C56.6351 46.2833 51.998 49.1409 48.0781 47.8597C45.4147 46.9894 43.6861 44.3659 42.8359 41.6963C41.9853 39.0264 41.8031 36.1865 41.0547 33.4862C40.3068 30.7863 38.8146 28.0721 36.2678 26.9038C33.7206 25.7355 30.0692 26.8869 28.2839 29.1841C29.8767 26.8824 28.4276 23.4452 25.9641 22.1168C23.5003 20.7884 20.483 21.0713 17.7733 21.7741C15.0639 22.4769 12.424 23.5676 9.63213 23.7617C6.88379 23.953 3.97946 23.2851 1.45321 24.3837C-1.73642 25.7708 -3.17361 29.4415 -4.0837 32.799C-7.5377 45.5399 -7.97858 59.0878 -5.15101 71.2314C20.6041 72.901 46.459 73.02 72.2277 71.5869C73.5249 69.8074 74.3837 67.5443 76.6218 65.9482Z" fill="url(#paint0_linear_230_2)"/>
</g>
<mask id="mask2_230_2" style="mask-type:luminance" maskUnits="userSpaceOnUse" x="0" y="0" width="295" height="180">
<path d="M289.815 35.5478C318.26 97.6405 209.159 178.019 134.763 179.923C71.0195 181.554 5.75723 157.436 0.772041 86.7063C-1.4878 54.6363 14.5683 15.8266 47.1358 4.30538C81.3462 -7.79716 115.238 16.0943 149.126 18.9609C180.693 21.6209 211.902 -1.48193 243.815 2.39448C267.502 5.27131 281.364 17.1009 289.815 35.5478Z" fill="white"/>
</mask>
<g mask="url(#mask2_230_2)">
<path d="M-5.03617 44.4192C3.76426 40.0326 14.3992 41.4607 23.65 44.7936C32.9012 48.1261 41.4664 53.2213 50.8395 56.193C65.49 60.8391 81.2428 60.055 96.5756 58.998C102.527 58.587 108.679 58.1687 114.298 60.1716C119.917 62.1745 124.89 67.2992 124.722 73.2618L-6.11621 75.0114L-5.03617 44.4192Z" fill="#3C3B7B"/>
</g>
<mask id="mask3_230_2" style="mask-type:luminance" maskUnits="userSpaceOnUse" x="0" y="0" width="295" height="180">
<path d="M289.815 35.5478C318.26 97.6405 209.159 178.019 134.763 179.923C71.0195 181.554 5.75723 157.436 0.772041 86.7063C-1.4878 54.6363 14.5683 15.8266 47.1358 4.30538C81.3462 -7.79716 115.238 16.0943 149.126 18.9609C180.693 21.6209 211.902 -1.48193 243.815 2.39448C267.502 5.27131 281.364 17.1009 289.815 35.5478Z" fill="white"/>
</mask>
<g mask="url(#mask3_230_2)">
<path d="M117.842 69.6584C121.942 65.7619 128.12 65.1198 133.771 65.3427C139.423 65.566 145.225 66.4261 150.633 64.7709C158.008 62.5143 163.175 56.0887 169.212 51.2891C178.998 43.5087 191.922 39.7961 204.346 41.1972C214.548 42.3474 224.057 46.7218 233.806 49.9414C243.555 53.161 254.321 55.218 263.97 51.7111C270.591 49.3051 276.044 44.5046 282.32 41.3068C288.596 38.1089 296.794 36.7826 302.288 41.191L302.602 72.9892L118.103 78.3816L117.842 69.6584Z" fill="#47468A"/>
</g>
<mask id="mask4_230_2" style="mask-type:luminance" maskUnits="userSpaceOnUse" x="0" y="0" width="295" height="180">
<path d="M289.815 35.5478C318.26 97.6405 209.159 178.019 134.763 179.923C71.0195 181.554 5.75723 157.436 0.772041 86.7063C-1.4878 54.6363 14.5683 15.8266 47.1358 4.30538C81.3462 -7.79716 115.238 16.0943 149.126 18.9609C180.693 21.6209 211.902 -1.48193 243.815 2.39448C267.502 5.27131 281.364 17.1009 289.815 35.5478Z" fill="white"/>
</mask>
<g mask="url(#mask4_230_2)">
<path d="M295.725 70.5065H-3.22949V185.952H295.725V70.5065Z" fill="#6765BF"/>
</g>
<mask id="mask5_230_2" style="mask-type:luminance" maskUnits="userSpaceOnUse" x="0" y="0" width="295" height="180">
<path d="M289.815 35.5478C318.26 97.6405 209.159 178.019 134.763 179.923C71.0195 181.554 5.75723 157.436 0.772041 86.7063C-1.4878 54.6363 14.5683 15.8266 47.1358 4.30538C81.3462 -7.79716 115.238 16.0943 149.126 18.9609C180.693 21.6209 211.902 -1.48193 243.815 2.39448C267.502 5.27131 281.364 17.1009 289.815 35.5478Z" fill="white"/>
</mask>
<g mask="url(#mask5_230_2)">
<path d="M160.73 70.5065C157.143 72.2585 153.768 74.6124 150.703 77.1374C143.925 82.7227 137.886 89.3606 130.174 93.5638C123.746 97.0675 116.494 98.6889 109.564 101.051C102.635 103.414 95.6704 106.783 90.3691 113.343C100.143 120.675 111.266 126.201 123.011 129.563L122.395 129.137L172.041 70.5065H160.73Z" fill="#716FC9"/>
<path d="M64.4733 94.4139C53.0535 102.119 39.7129 109.032 34.3057 121.703C34.3057 121.703 53.3942 123.832 55.2181 122.639C59.2082 104.828 73.6404 89.7695 91.265 85.0261C98.7075 83.0232 106.528 82.7482 113.979 80.7757C120.319 79.0967 126.68 75.8119 130.31 70.5065H61.5735C62.5095 70.6017 63.4397 70.7573 64.36 70.9896C69.1388 72.1982 73.6219 76.0389 73.9351 80.958C74.3005 86.6985 69.2418 91.1972 64.4733 94.4139Z" fill="#716FC9"/>
<path d="M-3.22949 101.629C0.484357 97.1418 5.30534 93.5658 10.7088 91.3873C14.4732 89.8696 18.5663 88.9719 21.8565 86.5958C25.1467 84.2202 27.4033 79.6649 25.5458 76.0565C24.2108 73.4642 21.2494 72.1949 18.4551 71.3603C17.3833 71.0401 16.3007 70.7569 15.2104 70.5065H-3.22949V101.629Z" fill="#716FC9"/>
</g>
<g opacity="0.3">
<mask id="mask6_230_2" style="mask-type:luminance" maskUnits="userSpaceOnUse" x="0" y="70" width="293" height="110">
<path d="M1.13735 70.5065C0.528158 75.9876 0.401723 81.4379 0.77282 86.7059C5.7576 157.436 71.0199 181.554 134.764 179.923C195.687 178.363 279.88 124.179 292.757 70.5065H1.13735Z" fill="white"/>
</mask>
<g mask="url(#mask6_230_2)">
<path d="M95.3093 90.563C100.227 88.4078 102.783 82.0208 100.71 77.0676C98.6373 72.1144 92.2941 69.4515 87.3069 71.4416C82.3192 73.4313 79.5512 79.7289 81.4572 84.7486C83.3635 89.7682 89.756 92.9969 95.3093 90.563Z" fill="#FFD465"/>
</g>
<mask id="mask7_230_2" style="mask-type:luminance" maskUnits="userSpaceOnUse" x="0" y="70" width="293" height="110">
<path d="M1.13735 70.5065C0.528158 75.9876 0.401723 81.4379 0.77282 86.7059C5.7576 157.436 71.0199 181.554 134.764 179.923C195.687 178.363 279.88 124.179 292.757 70.5065H1.13735Z" fill="white"/>
</mask>
<g mask="url(#mask7_230_2)">
<path d="M-5.03658 95.0059C3.76385 99.3926 14.3988 97.9644 23.6496 94.6315C32.9008 91.299 41.466 86.2038 50.8391 83.2322C65.4896 78.5861 81.2424 79.3702 96.5752 80.4272C102.526 80.8381 108.679 81.2564 114.298 79.2536C119.917 77.2507 124.89 72.126 124.721 66.1634L-6.11621 64.4142L-5.03658 95.0059Z" fill="#3C3B7B"/>
</g>
<mask id="mask8_230_2" style="mask-type:luminance" maskUnits="userSpaceOnUse" x="0" y="70" width="293" height="110">
<path d="M1.13735 70.5065C0.528158 75.9876 0.401723 81.4379 0.77282 86.7059C5.7576 157.436 71.0199 181.554 134.764 179.923C195.687 178.363 279.88 124.179 292.757 70.5065H1.13735Z" fill="white"/>
</mask>
<g mask="url(#mask8_230_2)">
<path d="M117.842 69.7668C121.942 73.6633 128.12 74.3053 133.771 74.0824C139.423 73.8591 145.225 72.9991 150.633 74.6543C158.008 76.9108 163.175 83.3365 169.212 88.1361C178.998 95.9164 191.922 99.629 204.346 98.228C214.548 97.0778 224.057 92.7034 233.806 89.4838C243.555 86.2642 254.321 84.2071 263.97 87.7141C270.591 90.1201 276.044 94.9205 282.32 98.1184C288.596 101.316 296.794 102.643 302.288 98.2341L302.602 66.4359L118.103 61.0435L117.842 69.7668Z" fill="#47468A"/>
</g>
</g>
<mask id="mask9_230_2" style="mask-type:luminance" maskUnits="userSpaceOnUse" x="0" y="0" width="295" height="180">
<path d="M289.815 35.5478C318.26 97.6405 209.159 178.019 134.763 179.923C71.0195 181.554 5.75723 157.436 0.772041 86.7063C-1.4878 54.6363 14.5683 15.8266 47.1358 4.30538C81.3462 -7.79716 115.238 16.0943 149.126 18.9609C180.693 21.6209 211.902 -1.48193 243.815 2.39448C267.502 5.27131 281.364 17.1009 289.815 35.5478Z" fill="white"/>
</mask>
<g mask="url(#mask9_230_2)">
<path d="M203.644 52.8556C169.743 62.3452 135.325 93.5556 115.804 125.213C134.276 143.097 157.102 157.251 181.158 165.638C184.637 166.851 188.201 167.766 191.819 168.408C212.039 158.668 256.5 135.638 274.301 113.551C291.899 91.7161 294.782 68.7795 295.132 58.764C266.361 46.6655 233.661 44.4521 203.644 52.8556Z" fill="#9494D9"/>
<path d="M206.138 52.1868C222.791 52.1503 239.62 53.4089 254.067 61.3136C258.92 63.9684 263.786 67.995 264.323 73.5007C264.975 80.1764 258.953 85.6669 252.813 88.3664C246.673 91.0659 239.745 92.3007 234.488 96.4653C233.008 97.6368 231.637 99.1323 231.293 100.987C230.877 103.228 232.027 105.417 232.758 107.576C236.064 117.355 230.43 128.362 222.13 134.499C213.831 140.637 203.419 143.004 193.828 145.079C205.193 149.855 217.77 150.572 229.847 148.1C247.093 137.826 264.631 125.549 274.302 113.551C291.901 91.7157 294.783 68.7791 295.133 58.7636C267.156 46.9997 235.465 44.5851 206.138 52.1868Z" fill="#8181CC"/>
<path opacity="0.12" d="M134.866 129.754C131.449 125.37 124.885 119.562 121.463 116.64C119.462 119.484 117.571 122.346 115.804 125.212C134.276 143.097 157.102 157.251 181.158 165.638C184.637 166.851 188.201 167.766 191.819 168.408C202.653 163.189 220.446 154.154 237.369 143.494C185.077 102.191 134.866 129.754 134.866 129.754Z" fill="#292940"/>
</g>
<mask id="mask10_230_2" style="mask-type:luminance" maskUnits="userSpaceOnUse" x="0" y="0" width="295" height="180">
<path d="M289.815 35.5478C318.26 97.6405 209.159 178.019 134.763 179.923C71.0195 181.554 5.75723 157.436 0.772041 86.7063C-1.4878 54.6363 14.5683 15.8266 47.1358 4.30538C81.3462 -7.79716 115.238 16.0943 149.126 18.9609C180.693 21.6209 211.902 -1.48193 243.815 2.39448C267.502 5.27131 281.364 17.1009 289.815 35.5478Z" fill="white"/>
</mask>
<g mask="url(#mask10_230_2)">
<path d="M91.145 101.11L77.6582 101.206C77.8314 98.7768 78.1373 96.331 78.5498 93.8787C81.0789 91.4132 83.2489 88.5844 84.9759 85.5035C83.2386 85.8393 81.6085 86.3085 80.0075 86.8077C81.1886 81.9231 82.6795 77.0746 84.2534 72.3661C87.9406 81.5397 90.2731 91.2596 91.145 101.11Z" fill="#4B54B3"/>
<path opacity="0.12" d="M90.7788 97.6709C87.232 96.0408 83.2669 94.6327 78.8318 93.5933C78.7374 93.6878 78.6455 93.785 78.5498 93.8782C78.1373 96.3306 77.8314 98.7764 77.6582 101.206L91.145 101.109C91.0436 99.9615 90.92 98.815 90.7788 97.6709Z" fill="#292940"/>
<path d="M101.317 106.521L87.8301 106.617C88.5054 97.0034 91.3038 87.1106 94.4257 77.7761C95.6301 80.774 96.6917 83.8327 97.6001 86.9304C96.4856 86.3881 95.3739 85.8454 94.2594 85.3032C95.557 87.6857 97.1079 89.7555 98.8546 91.5954C99.5664 94.5174 100.146 97.4722 100.588 100.447C98.6416 99.2986 96.6449 98.1844 94.4487 97.1927C96.3124 100.248 98.5985 103.046 101.22 105.485C101.254 105.828 101.287 106.175 101.317 106.521Z" fill="#C2BADB"/>
<path opacity="0.12" d="M101.22 105.486C99.7551 104.123 98.3996 102.645 97.1595 101.076C94.7433 99.5962 92.0799 98.1967 89.1476 96.9517C88.5183 100.184 88.0541 103.416 87.8291 106.617L101.316 106.521C101.287 106.175 101.253 105.828 101.22 105.486Z" fill="#292940"/>
<path d="M26.2227 104.198C26.8959 94.5847 29.6951 84.6932 32.8158 75.3582C36.5046 84.5331 38.8359 94.2518 39.7102 104.101L26.2227 104.198Z" fill="#C2BADB"/>
<path opacity="0.12" d="M38.5079 95.1557C34.0358 96.6869 30.0551 98.6471 26.5453 100.817C26.4115 101.947 26.3011 103.074 26.2227 104.198L39.7102 104.101C39.4442 101.104 39.0411 98.1179 38.5079 95.1557Z" fill="#292940"/>
<path d="M71.6235 94.9135L58.1367 95.0104C58.3695 91.6956 58.8555 88.345 59.5209 84.9936C61.8403 82.2186 63.8366 79.1772 65.4638 75.9494C63.8932 76.4683 62.5156 77.114 61.1979 77.8032C62.2393 73.873 63.4606 69.9732 64.7319 66.1699C67.4306 72.885 69.4002 79.8861 70.605 87.0211L66.0862 85.311C67.667 87.8495 69.4371 90.2687 71.3838 92.5412C71.4737 93.3298 71.5533 94.1221 71.6235 94.9135Z" fill="#C2BADB"/>
<path opacity="0.12" d="M71.3842 92.5408C71.3016 92.4443 71.2237 92.3437 71.1416 92.2464C67.2278 91.7793 63.0045 91.5921 58.445 91.7571C58.3177 92.8446 58.2123 93.9295 58.1367 95.0104L71.6235 94.9135C71.5537 94.122 71.4741 93.3298 71.3842 92.5408Z" fill="#292940"/>
<path d="M117.895 122.337L104.408 122.433C105.083 112.82 107.882 102.93 111.004 93.5933C112.434 97.1569 113.662 100.804 114.681 104.507C113.779 103.849 112.814 103.22 111.713 102.661C112.861 105.173 114.292 107.553 115.972 109.745C116.877 113.898 117.519 118.104 117.895 122.337Z" fill="#4B54B3"/>
<path opacity="0.12" d="M117.49 118.607C115.192 116.545 113.009 114.481 111.151 112.549C109.844 111.192 108.371 109.732 106.71 108.24C105.576 112.972 104.737 117.736 104.407 122.433L117.894 122.337C117.784 121.091 117.647 119.848 117.49 118.607Z" fill="#292940"/>
<path d="M22.1127 120.05L8.62598 120.146C9.30126 110.533 12.0997 100.643 15.2216 91.306C16.6522 94.8696 17.88 98.5169 18.8985 102.22C17.997 101.561 17.0315 100.933 15.9305 100.373C17.0783 102.886 18.5093 105.265 20.1895 107.458C21.0947 111.61 21.7367 115.817 22.1127 120.05Z" fill="#4B54B3"/>
<path opacity="0.12" d="M20.1895 107.458C19.8566 107.023 19.5364 106.579 19.2232 106.131C14.5783 110.046 11.1765 114.056 8.9084 117.142C8.79428 118.146 8.69617 119.148 8.62598 120.146L22.1127 120.05C21.7367 115.817 21.0947 111.61 20.1895 107.458Z" fill="#292940"/>
<path d="M52.1033 101.577L38.6133 101.673C38.713 100.255 38.8592 98.8318 39.0455 97.4041C41.5012 94.09 43.6605 90.556 45.4946 86.8586C43.6945 88.0302 41.9404 89.3315 40.197 90.6718C41.4552 84.6459 43.2684 78.6329 45.2085 72.8328C48.8956 82.0105 51.2281 91.7272 52.1033 101.577Z" fill="#4B54B3"/>
<path opacity="0.12" d="M50.8484 92.3401C47.4248 92.7575 44.215 93.432 41.2101 94.3027C40.5156 95.3552 39.7964 96.3913 39.0455 97.4045C38.8588 98.8322 38.7126 100.256 38.6133 101.674L52.1033 101.577C51.8283 98.4804 51.4088 95.3975 50.8484 92.3401Z" fill="#292940"/>
<path d="M142.237 184.289C168.597 180.694 190.541 173.566 208.572 165.009C180.949 164.303 153.52 153.885 132.862 135.472C120.613 124.555 110.565 110.994 96.6861 102.241C81.2355 92.4961 61.6125 89.6365 44.0231 94.5663C27.6411 99.1574 13.2672 110.441 5.38672 125.646C13.6317 139.298 53.7493 196.354 142.237 184.289Z" fill="#B0AFE3"/>
<path d="M208.572 165.009C189.675 164.526 170.87 159.496 154.261 150.473C144.8 152.748 135.577 154.776 129.876 155.558C114.069 157.723 108.223 146.896 94.5733 135.637C80.9235 124.378 76.8259 133.905 58.2677 127.468C46.3384 123.33 38.797 108.185 34.9308 97.8922C22.4121 103.59 11.7693 113.331 5.38672 125.647C13.6317 139.298 53.7493 196.354 142.237 184.289C168.597 180.694 190.541 173.566 208.572 165.009Z" fill="#9897DB"/>
<path opacity="0.12" d="M132.863 135.473C131.14 133.938 129.463 132.35 127.811 130.731C94.2121 148.125 83.4482 178.843 83.4482 178.843V181.836C100.052 185.931 119.555 187.381 142.237 184.289C168.597 180.694 190.541 173.566 208.572 165.009C180.949 164.304 153.52 153.886 132.863 135.473Z" fill="#292940"/>
</g>
<mask id="mask11_230_2" style="mask-type:luminance" maskUnits="userSpaceOnUse" x="0" y="0" width="295" height="180">
<path d="M289.815 35.5478C318.26 97.6405 209.159 178.019 134.763 179.923C71.0195 181.554 5.75723 157.436 0.772041 86.7063C-1.4878 54.6363 14.5683 15.8266 47.1358 4.30538C81.3462 -7.79716 115.238 16.0943 149.126 18.9609C180.693 21.6209 211.902 -1.48193 243.815 2.39448C267.502 5.27131 281.364 17.1009 289.815 35.5478Z" fill="white"/>
</mask>
<g mask="url(#mask11_230_2)">
<path d="M205.149 135.05L186.874 135.18C187.19 130.69 187.848 126.149 188.75 121.608C191.893 117.847 194.599 113.726 196.803 109.352C194.675 110.055 192.808 110.93 191.022 111.864C192.433 106.538 194.088 101.254 195.811 96.0999C199.468 105.199 202.137 114.686 203.769 124.353L197.646 122.036C199.787 125.477 202.186 128.755 204.824 131.834C204.946 132.903 205.055 133.976 205.149 135.05Z" fill="#C2BADB"/>
<path opacity="0.12" d="M204.825 131.835C204.375 131.31 203.935 130.777 203.499 130.24C198.873 128.513 193.718 127.014 187.98 125.876C187.472 128.99 187.091 132.097 186.874 135.18L205.149 135.05C205.055 133.976 204.947 132.903 204.825 131.835Z" fill="#292940"/>
<path d="M148.786 139.555L130.511 139.686C130.745 136.394 131.16 133.08 131.719 129.757C135.146 126.416 138.086 122.583 140.427 118.408C138.073 118.863 135.863 119.499 133.695 120.176C135.295 113.556 137.315 106.987 139.448 100.606C144.444 113.037 147.605 126.208 148.786 139.555Z" fill="#C2BADB"/>
<path opacity="0.12" d="M146.842 125.753C141.205 127.11 136.091 129.037 131.471 131.332C131.04 134.127 130.708 136.914 130.511 139.686L148.786 139.555C148.376 134.925 147.722 130.317 146.842 125.753Z" fill="#292940"/>
<path d="M165.776 136.467L147.501 136.598C148.416 123.57 152.209 110.165 156.438 97.517C158.07 101.58 159.509 105.723 160.74 109.922C159.229 109.187 157.723 108.452 156.213 107.717C157.971 110.945 160.073 113.75 162.44 116.243C163.405 120.202 164.189 124.206 164.789 128.238C162.151 126.682 159.446 125.172 156.47 123.828C158.995 127.966 162.092 131.759 165.646 135.064C165.691 135.529 165.736 135.998 165.776 136.467Z" fill="#6069CC"/>
<g opacity="0.12">
<path d="M164.01 123.618C161.575 123.659 159.213 123.802 156.925 124.039C159.722 125.329 162.287 126.762 164.789 128.238C164.559 126.693 164.294 125.154 164.01 123.618Z" fill="#292940"/>
<path d="M165.646 135.064C162.163 131.825 159.122 128.115 156.624 124.072C153.972 124.356 151.414 124.76 148.955 125.277C148.273 129.064 147.765 132.846 147.501 136.598L165.776 136.467C165.736 135.998 165.691 135.529 165.646 135.064Z" fill="#292940"/>
</g>
<path d="M94.5732 174.26C95.4854 161.232 99.2789 147.83 103.507 135.18C108.506 147.612 111.665 160.782 112.85 174.129L94.5732 174.26Z" fill="#C2BADB"/>
<path opacity="0.12" d="M108.263 149.155C99.2382 159.188 95.3035 168.351 95.3035 168.351L95.1459 168.608C94.9021 170.498 94.7046 172.383 94.5732 174.26L112.85 174.13C112.101 165.686 110.559 157.314 108.263 149.155Z" fill="#292940"/>
<path d="M124.726 161.952L106.45 162.083C107.366 149.056 111.157 135.655 115.387 123.002C117.326 127.831 118.99 132.773 120.37 137.792C119.148 136.899 117.841 136.047 116.348 135.289C117.904 138.694 119.843 141.918 122.12 144.889C123.346 150.517 124.216 156.216 124.726 161.952Z" fill="#6069CC"/>
<path opacity="0.12" d="M122.119 144.889C120.81 143.18 119.616 141.385 118.539 139.523C114.531 142.669 111.093 146 108.187 149.239C107.359 153.534 106.749 157.828 106.45 162.082L124.726 161.951C124.216 156.216 123.346 150.517 122.119 144.889Z" fill="#292940"/>
<path d="M221.318 145.74L203.043 145.871C203.958 132.844 207.75 119.443 211.98 106.791C213.919 111.62 215.583 116.562 216.963 121.581C215.741 120.688 214.433 119.836 212.941 119.078C214.496 122.483 216.435 125.707 218.712 128.678C219.938 134.305 220.809 140.005 221.318 145.74Z" fill="#6069CC"/>
<path opacity="0.12" d="M220.533 138.889C216.293 136.049 211.221 133.282 205.206 130.896C204.158 135.901 203.391 140.913 203.043 145.871L221.318 145.74C221.115 143.45 220.851 141.166 220.533 138.889Z" fill="#292940"/>
<path d="M235.259 156.606C217.005 133.406 185.725 121.219 156.588 125.955C127.451 130.691 101.64 152.157 90.918 181.198C138.581 189.918 189.236 181.214 235.259 156.606Z" fill="#EBEBFA"/>
<path d="M235.259 156.606C225.167 143.779 211.092 134.321 195.599 129.226C192.251 135.83 186.438 141.231 179.462 142.959C173.241 144.499 166.382 143.404 160.594 146.159C156.243 148.23 153.15 152.18 149.573 155.406C141.918 162.307 131.803 165.997 121.612 167.54C113.435 168.78 105.139 168.734 96.8588 168.434C94.5538 172.49 92.5584 176.755 90.918 181.198C138.581 189.918 189.236 181.214 235.259 156.606Z" fill="#D3D3F0"/>
</g>
<mask id="mask12_230_2" style="mask-type:luminance" maskUnits="userSpaceOnUse" x="0" y="0" width="295" height="180">
<path d="M289.815 35.5478C318.26 97.6405 209.159 178.019 134.763 179.923C71.0195 181.554 5.75723 157.436 0.772041 86.7063C-1.4878 54.6363 14.5683 15.8266 47.1358 4.30538C81.3462 -7.79716 115.238 16.0943 149.126 18.9609C180.693 21.6209 211.902 -1.48193 243.815 2.39448C267.502 5.27131 281.364 17.1009 289.815 35.5478Z" fill="white"/>
</mask>
<g mask="url(#mask12_230_2)">
<path d="M151.701 199.008L183.96 199.239C182.344 176.245 175.65 152.582 168.185 130.257C165.303 137.428 162.764 144.742 160.592 152.153C163.258 150.856 165.916 149.558 168.582 148.26C165.479 153.96 161.77 158.91 157.591 163.312C155.888 170.3 154.503 177.367 153.444 184.483C158.1 181.737 162.876 179.071 168.13 176.699C163.672 184.006 158.204 190.699 151.932 196.534C151.852 197.353 151.773 198.18 151.701 199.008Z" fill="#6069CC"/>
</g>
<mask id="mask13_230_2" style="mask-type:luminance" maskUnits="userSpaceOnUse" x="0" y="0" width="295" height="180">
<path d="M289.815 35.5478C318.26 97.6405 209.159 178.019 134.763 179.923C71.0195 181.554 5.75723 157.436 0.772041 86.7063C-1.4878 54.6363 14.5683 15.8266 47.1358 4.30538C81.3462 -7.79716 115.238 16.0943 149.126 18.9609C180.693 21.6209 211.902 -1.48193 243.815 2.39448C267.502 5.27131 281.364 17.1009 289.815 35.5478Z" fill="white"/>
</mask>
<g mask="url(#mask13_230_2)">
<path d="M259.342 156.393L227.895 156.618C228.127 153.313 228.468 149.993 228.903 146.665C234.628 138.939 239.662 130.7 243.936 122.082C239.74 124.813 235.652 127.846 231.587 130.972C234.519 116.924 238.747 102.907 243.269 89.3857C251.864 110.781 257.302 133.431 259.342 156.393Z" fill="#6069CC"/>
</g>
<mask id="mask14_230_2" style="mask-type:luminance" maskUnits="userSpaceOnUse" x="0" y="0" width="295" height="180">
<path d="M289.815 35.5478C318.26 97.6405 209.159 178.019 134.763 179.923C71.0195 181.554 5.75723 157.436 0.772041 86.7063C-1.4878 54.6363 14.5683 15.8266 47.1358 4.30538C81.3462 -7.79716 115.238 16.0943 149.126 18.9609C180.693 21.6209 211.902 -1.48193 243.815 2.39448C267.502 5.27131 281.364 17.1009 289.815 35.5478Z" fill="white"/>
</mask>
<g mask="url(#mask14_230_2)">
<path d="M84.4594 188.11L53.0117 188.335C53.2445 185.031 53.5856 181.711 54.0203 178.383C59.7448 170.657 64.7789 162.419 69.0535 153.801C64.8569 156.531 60.7686 159.564 56.7042 162.69C59.6365 148.642 63.8639 134.625 68.3864 121.104C76.9812 142.498 82.4196 165.149 84.4594 188.11Z" fill="#6069CC"/>
</g>
<mask id="mask15_230_2" style="mask-type:luminance" maskUnits="userSpaceOnUse" x="0" y="0" width="295" height="180">
<path d="M289.815 35.5478C318.26 97.6405 209.159 178.019 134.763 179.923C71.0195 181.554 5.75723 157.436 0.772041 86.7063C-1.4878 54.6363 14.5683 15.8266 47.1358 4.30538C81.3462 -7.79716 115.238 16.0943 149.126 18.9609C180.693 21.6209 211.902 -1.48193 243.815 2.39448C267.502 5.27131 281.364 17.1009 289.815 35.5478Z" fill="white"/>
</mask>
<g mask="url(#mask15_230_2)">
<path d="M157.79 211.294L125.531 211.525C127.147 188.531 133.841 164.876 141.307 142.542C144.729 151.067 147.666 159.79 150.101 168.649C147.944 167.073 145.636 165.569 143.002 164.232C145.747 170.241 149.17 175.931 153.19 181.176C155.355 191.109 156.891 201.17 157.79 211.294Z" fill="#C2BADB"/>
</g>
<path d="M38.9342 17.0044C39.1729 17.0044 39.3665 16.8109 39.3665 16.5721C39.3665 16.3334 39.1729 16.1399 38.9342 16.1399C38.6955 16.1399 38.502 16.3334 38.502 16.5721C38.502 16.8109 38.6955 17.0044 38.9342 17.0044Z" fill="white"/>
<path d="M134.518 23.9612C134.518 23.7223 134.325 23.529 134.086 23.529C133.847 23.529 133.653 23.7223 133.653 23.9612C133.653 24.1997 133.847 24.3935 134.086 24.3935C134.325 24.3935 134.518 24.1997 134.518 23.9612Z" fill="white"/>
<path d="M55.6051 23.9612C55.8438 23.9612 56.0374 23.7677 56.0374 23.529C56.0374 23.2902 55.8438 23.0967 55.6051 23.0967C55.3664 23.0967 55.1729 23.2902 55.1729 23.529C55.1729 23.7677 55.3664 23.9612 55.6051 23.9612Z" fill="white"/>
<path d="M49.4039 49.4812C49.6427 49.4812 49.8362 49.2876 49.8362 49.0489C49.8362 48.8102 49.6427 48.6166 49.4039 48.6166C49.1652 48.6166 48.9717 48.8102 48.9717 49.0489C48.9717 49.2876 49.1652 49.4812 49.4039 49.4812Z" fill="white"/>
<path d="M126.195 25.2211C126.195 24.9826 126.001 24.7888 125.762 24.7888C125.523 24.7888 125.33 24.9822 125.33 25.2211C125.33 25.4596 125.523 25.6533 125.762 25.6533C126.001 25.6533 126.195 25.46 126.195 25.2211Z" fill="white"/>
<path d="M261.527 23.9612C261.527 23.7223 261.333 23.529 261.094 23.529C260.855 23.529 260.662 23.7223 260.662 23.9612C260.662 24.1997 260.855 24.3935 261.094 24.3935C261.333 24.3935 261.527 24.1997 261.527 23.9612Z" fill="white"/>
<path d="M190.723 38.4435C190.962 38.4435 191.156 38.25 191.156 38.0112C191.156 37.7725 190.962 37.579 190.723 37.579C190.485 37.579 190.291 37.7725 190.291 38.0112C190.291 38.25 190.485 38.4435 190.723 38.4435Z" fill="white"/>
<path d="M181.41 20.6398C181.41 20.4013 181.217 20.2076 180.978 20.2076C180.739 20.2076 180.546 20.4009 180.546 20.6398C180.546 20.8788 180.739 21.0721 180.978 21.0721C181.217 21.0721 181.41 20.8788 181.41 20.6398Z" fill="white"/>
<path d="M208.585 16.1398C208.585 15.9013 208.392 15.7076 208.153 15.7076C207.914 15.7076 207.721 15.9009 207.721 16.1398C207.721 16.3788 207.914 16.5721 208.153 16.5721C208.391 16.5721 208.585 16.3783 208.585 16.1398Z" fill="white"/>
<path d="M254.814 38.9423C254.814 38.7038 254.62 38.51 254.381 38.51C254.143 38.51 253.949 38.7034 253.949 38.9423C253.949 39.1808 254.143 39.3745 254.381 39.3745C254.62 39.3741 254.814 39.1808 254.814 38.9423Z" fill="white"/>
<path d="M243.409 9.46708C243.409 9.22858 243.216 9.03482 242.977 9.03482C242.739 9.03482 242.545 9.22817 242.545 9.46708C242.545 9.70559 242.738 9.89935 242.977 9.89935C243.216 9.89935 243.409 9.706 243.409 9.46708Z" fill="white"/>
<path d="M75.4192 18.4638C75.4192 18.2253 75.2259 18.0315 74.9869 18.0315C74.7484 18.0315 74.5547 18.2248 74.5547 18.4638C74.5547 18.7027 74.748 18.896 74.9869 18.896C75.2259 18.896 75.4192 18.7027 75.4192 18.4638Z" fill="white"/>
<path d="M110.945 15.4005C110.945 15.162 110.751 14.9683 110.512 14.9683C110.273 14.9683 110.08 15.1616 110.08 15.4005C110.08 15.639 110.273 15.8328 110.512 15.8328C110.751 15.8324 110.945 15.639 110.945 15.4005Z" fill="white"/>
<path d="M225.583 34.5584C225.821 34.5584 226.015 34.3649 226.015 34.1262C226.015 33.8874 225.821 33.6939 225.583 33.6939C225.344 33.6939 225.15 33.8874 225.15 34.1262C225.15 34.3649 225.344 34.5584 225.583 34.5584Z" fill="white"/>
<path d="M233.377 21.0721C233.377 20.8336 233.184 20.6398 232.945 20.6398C232.706 20.6398 232.513 20.8332 232.513 21.0721C232.513 21.311 232.706 21.5044 232.945 21.5044C233.184 21.5044 233.377 21.3106 233.377 21.0721Z" fill="white"/>
<path d="M222.119 39.3741C222.119 39.1356 221.926 38.9418 221.687 38.9418C221.449 38.9418 221.255 39.1352 221.255 39.3741C221.255 39.6126 221.448 39.8064 221.687 39.8064C221.926 39.8064 222.119 39.613 222.119 39.3741Z" fill="white"/>
<path d="M22.1145 31.7871C22.1145 31.5482 21.9212 31.3549 21.6823 31.3549C21.4438 31.3549 21.25 31.5482 21.25 31.7871C21.25 32.0256 21.4433 32.2194 21.6823 32.2194C21.9212 32.2194 22.1145 32.026 22.1145 31.7871Z" fill="white"/>
<path d="M177.025 25.2211V27.251" stroke="white" stroke-width="0.410506" stroke-miterlimit="10" stroke-linecap="round" stroke-linejoin="round"/>
<path d="M176.284 26.2362H177.769" stroke="white" stroke-width="0.410506" stroke-miterlimit="10" stroke-linecap="round" stroke-linejoin="round"/>
<path d="M160.841 47.019V49.0489" stroke="white" stroke-width="0.410506" stroke-miterlimit="10" stroke-linecap="round" stroke-linejoin="round"/>
<path d="M160.1 48.0338H161.584" stroke="white" stroke-width="0.410506" stroke-miterlimit="10" stroke-linecap="round" stroke-linejoin="round"/>
<path d="M279.591 31.2042V33.2346" stroke="white" stroke-width="0.410506" stroke-miterlimit="10" stroke-linecap="round" stroke-linejoin="round"/>
<path d="M278.85 32.2194H280.334" stroke="white" stroke-width="0.410506" stroke-miterlimit="10" stroke-linecap="round" stroke-linejoin="round"/>
<path d="M217.914 31.2042V33.2346" stroke="white" stroke-width="0.410506" stroke-miterlimit="10" stroke-linecap="round" stroke-linejoin="round"/>
<path d="M217.171 32.2194H218.655" stroke="white" stroke-width="0.410506" stroke-miterlimit="10" stroke-linecap="round" stroke-linejoin="round"/>
<path d="M84.6602 9.4671V11.4971" stroke="white" stroke-width="0.410506" stroke-miterlimit="10" stroke-linecap="round" stroke-linejoin="round"/>
<path d="M83.9189 10.4823H85.4029" stroke="white" stroke-width="0.410506" stroke-miterlimit="10" stroke-linecap="round" stroke-linejoin="round"/>
<path d="M28.6494 35.9813V38.0112" stroke="white" stroke-width="0.410506" stroke-miterlimit="10" stroke-linecap="round" stroke-linejoin="round"/>
<path d="M27.9072 36.996H29.3916" stroke="white" stroke-width="0.410506" stroke-miterlimit="10" stroke-linecap="round" stroke-linejoin="round"/>
<defs>
<linearGradient id="paint0_linear_230_2" x1="144.153" y1="62.491" x2="146.426" y2="-5.39143" gradientUnits="userSpaceOnUse">
<stop stop-color="white"/>
<stop offset="1" stop-color="white" stop-opacity="0"/>
</linearGradient>
</defs>
</svg>
