<svg width="295" height="180" viewBox="0 0 295 180" fill="none" xmlns="http://www.w3.org/2000/svg">
<mask id="mask0_10_2336" style="mask-type:alpha" maskUnits="userSpaceOnUse" x="0" y="0" width="295" height="180">
<path d="M5.14447 144.954C-23.3007 82.8611 85.7999 2.48274 160.196 0.5784C223.94 -1.05254 289.202 23.0659 294.187 93.7953C296.447 125.865 280.391 164.675 247.823 176.196C213.613 188.299 179.721 164.407 145.833 161.541C114.266 158.881 83.0573 181.984 51.1442 178.107C27.4576 175.23 13.5952 163.401 5.14447 144.954Z" fill="#A9A9A9"/>
</mask>
<g mask="url(#mask0_10_2336)">
<path d="M308.848 -95.0177H-68.9876V438H308.848V-95.0177Z" fill="url(#paint0_linear_10_2336)"/>
<path d="M86.8101 119.374C104.528 119.374 118.891 105.055 118.891 87.3927C118.891 69.73 104.528 55.4116 86.8101 55.4116C69.0926 55.4116 54.7297 69.73 54.7297 87.3927C54.7297 105.055 69.0926 119.374 86.8101 119.374Z" fill="url(#paint1_linear_10_2336)"/>
<path d="M171.218 69.9658C170.348 69.676 169.414 69.6991 168.537 69.4208C167.937 69.2305 167.329 69.0888 166.76 68.7901C166.327 68.5624 165.966 68.9078 165.662 69.1767C165.281 69.515 164.978 69.3358 164.659 69.1086C164.519 69.0082 164.396 68.8805 164.247 68.7965C164.048 68.6846 164.026 68.5082 164.058 68.329C164.092 68.1378 164.267 68.1145 164.435 68.0898C164.841 68.0305 165.262 68.053 165.651 67.8817C165.82 67.8073 165.87 67.7078 165.785 67.535C165.273 66.5028 165.201 65.3863 165.15 64.2634C165.134 63.9072 165.307 63.5692 165.216 63.1981C165.198 63.1265 165.328 62.9296 165.354 62.7721C165.362 62.7215 165.503 62.6384 165.525 62.6537C165.617 62.7175 165.716 62.7998 165.763 62.8989C166.203 63.8304 166.648 64.7607 167.059 65.705C167.193 66.0122 167.263 66.3558 167.311 66.6898C167.387 67.2217 167.704 67.5053 168.211 67.3978C168.564 67.323 168.783 67.5215 169.013 67.7116C169.062 67.752 169.061 67.852 169.083 67.9244C169.025 67.9379 168.967 67.949 168.91 67.9657C168.776 68.0052 168.586 67.9624 168.542 68.1467C168.507 68.2948 168.667 68.3281 168.759 68.3628C169.32 68.5753 169.739 69.0153 170.263 69.2831C170.568 69.439 170.843 69.6902 171.237 69.59C171.353 69.5605 171.484 69.5807 171.607 69.5943C171.616 69.5954 171.641 69.7464 171.609 69.787C171.514 69.9034 171.388 69.9858 171.218 69.9658Z" fill="#4D453A"/>
<path d="M161.391 85.8581C162.135 85.9394 162.927 85.6184 163.728 85.3464C164.095 85.2218 164.465 85.2156 164.824 85.3295C165.159 85.4359 165.505 85.226 165.822 85.3868C166.012 85.4832 166.192 85.6098 166.353 85.749C166.45 85.8328 166.349 85.8663 166.268 85.8927C166.042 85.9658 165.706 85.9469 165.648 86.1972C165.59 86.442 165.931 86.4575 166.095 86.5623C166.721 86.9628 166.895 87.6868 167.328 88.224C167.699 88.684 168.011 89.191 168.447 89.5988C168.47 89.6196 168.479 89.6547 168.494 89.6832C168.476 89.6916 168.452 89.712 168.442 89.7067C168.289 89.6305 168.09 89.7647 168.019 89.7289C167.468 89.4524 166.811 89.5401 166.286 89.1433C165.668 88.676 165.107 88.1405 164.482 87.6899C164.094 87.4103 163.772 87.0776 163.438 86.7489C163.32 86.6327 163.246 86.7145 163.191 86.8122C162.845 87.4189 162.415 87.2666 161.836 87.1467C161.538 87.0849 161.261 87.0218 161.01 86.8288C160.788 86.6576 160.676 86.4135 160.553 86.1921C160.47 86.0431 160.602 85.855 160.838 85.8579C160.979 85.8594 161.119 85.8581 161.391 85.8581Z" fill="#4D453A"/>
<path d="M151.051 87.5872C150.764 87.5601 150.477 87.5368 150.191 87.5044C149.95 87.4773 149.762 87.5208 149.672 87.7818C149.541 88.16 149.218 87.9999 148.97 87.9994C148.457 87.9983 148.046 87.7811 147.786 87.33C147.669 87.1266 147.677 86.8843 147.812 86.712C147.932 86.5578 148.158 86.5212 148.358 86.5771C148.726 86.6797 149.099 86.6398 149.471 86.6478C149.533 86.6491 149.596 86.6049 149.659 86.5816C149.635 86.5278 149.612 86.4737 149.587 86.4201C149.436 86.0863 149.268 85.7587 149.136 85.4174C148.925 84.8724 148.604 84.4027 148.193 83.9962C147.882 83.6882 147.719 83.286 147.466 82.9422C147.452 82.9244 147.461 82.8636 147.469 82.8618C147.528 82.8482 147.598 82.8207 147.648 82.8409C148.617 83.2402 149.627 83.5487 150.541 84.0786C151.153 84.4335 151.312 85.0709 151.517 85.6712C151.614 85.9551 151.735 86.0635 152.04 85.9378C152.494 85.7503 153.105 85.8936 153.406 86.2356C153.456 86.2927 153.513 86.4223 153.372 86.4239C153.035 86.4277 152.862 86.6589 152.669 86.8703C152.235 87.3449 151.719 87.6327 151.051 87.5872Z" fill="#4D453A"/>
<path d="M188.809 72.2239C189.292 72.2494 189.717 72.1035 190.135 71.9305C190.291 71.8659 190.214 71.7879 190.132 71.7369C189.605 71.4057 189.452 70.8445 189.212 70.323C188.975 69.8073 188.969 69.2443 189.15 68.7986C189.276 68.4875 189.178 68.1037 189.455 67.8487C189.493 67.8136 189.471 67.7028 189.461 67.6289C189.45 67.5418 189.378 67.4128 189.468 67.3823C189.577 67.3452 189.633 67.4854 189.677 67.5744C189.946 68.1137 190.189 68.6658 190.478 69.1942C190.89 69.9499 191.468 70.5851 192.057 71.2061C192.174 71.3291 192.335 71.3753 192.506 71.3222C192.807 71.2283 193.086 71.2458 193.341 71.4528C193.391 71.4941 193.503 71.4919 193.479 71.5794C193.466 71.6287 193.377 71.6614 193.319 71.6945C193.199 71.762 193.028 71.7906 193.027 71.9623C193.027 72.1437 193.213 72.1431 193.327 72.1722C194.149 72.384 194.917 72.7143 195.62 73.1913C195.65 73.2124 195.678 73.2382 195.707 73.262C195.663 73.2682 195.618 73.2742 195.574 73.2808C195.066 73.3572 194.581 73.1176 194.104 73.1247C193.414 73.1349 192.734 73.0516 192.05 73.0514C191.872 73.0514 191.709 73.0117 191.576 72.904C191.102 72.5206 190.712 72.7345 190.348 73.0712C189.802 73.5758 189.092 73.5751 188.597 73.0197C188.459 72.8649 188.353 72.6179 188.358 72.416C188.364 72.1133 188.662 72.2801 188.809 72.2239Z" fill="#4D453A"/>
<path d="M159.028 78.3245C158.99 78.7076 158.992 79.0638 158.663 79.3037C158.548 79.3872 158.571 79.5082 158.704 79.5422C158.921 79.5977 158.905 79.8327 159.052 79.9413C159.113 79.9871 159.036 80.0426 158.985 80.0608C158.657 80.1792 158.322 80.278 158.001 80.4121C157.503 80.6202 157.052 80.4637 156.6 80.2756C156.48 80.2256 156.377 80.232 156.263 80.3064C155.938 80.5194 155.261 80.3839 155.035 80.0706C154.971 79.9811 154.969 79.88 155.01 79.7907C155.062 79.6799 155.176 79.659 155.284 79.6846C155.564 79.7514 155.824 79.6857 156.088 79.5984C156.266 79.5398 156.296 79.4363 156.218 79.2955C155.795 78.533 155.589 77.7042 155.487 76.8505C155.449 76.5287 155.466 76.1922 155.608 75.8815C155.651 75.7871 155.715 75.7422 155.821 75.7451C155.921 75.7478 156.007 75.7662 156.041 75.8702C156.348 76.7907 157.077 77.4519 157.53 78.2821C157.576 78.366 157.634 78.462 157.631 78.5504C157.616 79.0152 157.874 78.9177 158.109 78.77C158.345 78.6214 158.548 78.4224 158.77 78.251C158.837 78.1988 158.887 78.0704 158.986 78.1271C159.032 78.1526 159.02 78.2781 159.028 78.3245Z" fill="#4D453A"/>
<path d="M178.545 69.0684C178.824 69.1712 179.117 69.0271 179.343 68.8729C179.617 68.6866 179.319 68.4341 179.239 68.2615C178.784 67.2786 178.533 66.2585 178.559 65.1763C178.563 65.0146 178.638 64.8533 178.688 64.6941C178.715 64.6075 178.791 64.5886 178.875 64.5906C178.971 64.5928 179.063 64.6041 179.1 64.7092C179.436 65.6824 180.17 66.41 180.692 67.2681C180.831 67.4951 180.908 67.7363 180.944 67.9941C180.967 68.1607 181.016 68.2149 181.206 68.1496C181.607 68.011 181.868 67.6825 182.209 67.4651C182.271 67.4254 182.334 67.3341 182.407 67.3958C182.452 67.4345 182.468 67.5331 182.462 67.6019C182.428 68.0117 182.389 68.4199 181.934 68.62C181.873 68.6469 181.846 68.7526 181.803 68.8216C181.869 68.8348 181.935 68.8594 182.001 68.859C182.281 68.857 182.39 69.0764 182.439 69.2712C182.48 69.4328 182.25 69.4419 182.133 69.4946C181.379 69.8342 180.622 70.0429 179.804 69.658C179.444 69.489 179.092 69.8588 178.692 69.7504C178.472 69.6909 178.287 69.6085 178.116 69.4764C178.027 69.4075 177.943 69.3151 177.989 69.1885C178.037 69.0551 178.159 69.0639 178.274 69.0682C178.352 69.0706 178.429 69.0684 178.545 69.0684Z" fill="#4D453A"/>
<path d="M162.062 78.7205C162.198 78.6119 162.656 78.975 162.545 78.4153C162.498 78.1768 162.266 78.2175 162.096 78.1864C161.939 78.1575 161.703 78.1757 161.683 78.0154C161.661 77.8361 161.911 77.8808 162.035 77.8459C162.514 77.7107 163.002 77.6009 163.488 77.4926C163.913 77.3979 164.153 77.545 164.149 78.0116C164.145 78.4116 164.368 78.5621 164.752 78.51C164.93 78.4857 165.088 78.5173 165.197 78.6796C165.288 78.8147 165.317 78.9124 165.109 78.9695C165.006 78.9981 164.763 79.0539 164.952 79.2173C165.516 79.7032 165.498 80.3862 165.611 81.0205C165.666 81.3274 165.639 81.651 165.629 81.9661C165.625 82.1138 165.724 82.3441 165.519 82.3879C165.337 82.4267 165.235 82.1971 165.103 82.0845C164.429 81.5115 164.001 80.7329 163.453 80.0561C163.059 79.57 162.894 79.7161 162.61 80.0832C162.434 80.3111 162.206 80.4337 161.957 80.149C161.765 79.9302 161.524 79.7392 161.388 79.4907C161.137 79.0336 161.415 78.7203 162.062 78.7205Z" fill="#4D453A"/>
<path d="M171.759 78.2199C171.755 79.1049 171.903 79.2626 172.773 79.323C172.945 79.335 173.141 79.3963 173.178 79.5633C173.219 79.747 172.997 79.7332 172.88 79.7894C172.803 79.8265 172.714 79.8518 172.715 79.9555C172.715 80.0468 172.806 80.0461 172.865 80.0797C173.126 80.2291 173.406 80.2076 173.688 80.1796C173.761 80.1723 173.86 80.1341 173.883 80.2398C173.905 80.3473 173.807 80.3759 173.725 80.3999C173.283 80.5301 172.838 80.286 172.406 80.3933C171.875 80.5252 171.437 80.222 170.956 80.1352C170.684 80.0861 170.494 80.1039 170.325 80.3184C170.03 80.6951 169.686 80.4252 169.382 80.3548C169.132 80.2971 168.981 80.0546 168.995 79.7901C169.011 79.4678 169.101 79.1773 169.545 79.2941C169.755 79.3494 169.97 79.3892 170.185 79.4229C170.339 79.4469 170.437 79.3783 170.356 79.2191C169.954 78.4331 170.167 77.6564 170.37 76.8756C170.469 76.4936 170.608 76.1369 170.872 75.8331C171 75.6867 171.153 75.6372 171.325 75.6776C171.489 75.7163 171.431 75.8844 171.427 75.9836C171.398 76.7512 171.763 77.4583 171.759 78.2199Z" fill="#4D453A"/>
<path d="M182.776 84.6598C182.7 85.0749 182.908 85.4405 182.968 85.8318C183.017 86.1494 183.072 86.4676 183.09 86.7877C183.118 87.2609 183.454 87.3542 183.808 87.3349C184.06 87.3211 184.224 87.4164 184.395 87.5499C184.479 87.6156 184.476 87.6796 184.362 87.7098C184.315 87.7222 184.264 87.7238 184.216 87.7333C183.629 87.8479 183.518 88.1049 183.849 88.5777C184.157 89.0181 184.329 89.5467 184.73 89.9276C184.753 89.9496 184.746 90.0038 184.753 90.0429C184.713 90.0438 184.671 90.0533 184.634 90.0442C183.69 89.8134 182.861 89.3972 182.274 88.5902C182.25 88.5564 182.212 88.5235 182.206 88.486C182.105 87.8468 181.892 88.2095 181.692 88.426C181.308 88.8416 181.154 88.8089 180.645 88.2544C180.37 87.955 180.295 87.6458 180.566 87.3231C180.817 87.0253 181.085 87.2085 181.345 87.3378C181.445 87.3871 181.555 87.4213 181.663 87.4433C181.762 87.4633 181.874 87.4457 181.925 87.3516C181.974 87.2641 181.868 87.2221 181.823 87.1654C181.442 86.6791 181.714 86.1847 181.82 85.7021C181.911 85.2854 182.217 84.9663 182.413 84.5965C182.486 84.4595 182.584 84.2543 182.714 84.2845C182.862 84.3182 182.719 84.5326 182.776 84.6598Z" fill="#4D453A"/>
<path d="M176.441 78.6254C176.492 78.6154 176.649 78.6036 176.792 78.5528C177.109 78.4393 177.367 78.2956 177.017 77.9265C176.858 77.759 176.955 77.5163 176.888 77.3202C176.61 76.5086 176.577 75.6445 176.342 74.8236C176.312 74.7201 176.32 74.6035 176.326 74.4941C176.328 74.455 176.37 74.4057 176.407 74.3859C176.43 74.3739 176.491 74.399 176.513 74.4252C177.102 75.1208 177.698 75.8117 178.272 76.5197C178.508 76.8109 178.455 77.186 178.474 77.5347C178.478 77.6191 178.469 77.7104 178.566 77.7515C178.653 77.7879 178.717 77.7346 178.772 77.6797C178.974 77.4754 179.304 77.4434 179.46 77.1734C179.472 77.1523 179.546 77.1389 179.567 77.1545C179.752 77.2906 179.816 77.4987 179.819 77.7075C179.821 77.8869 179.658 77.9085 179.507 77.9109C179.359 77.9131 179.183 77.9509 179.168 78.1019C179.149 78.2831 179.327 78.1179 179.41 78.1783C179.533 78.2681 179.722 78.3227 179.744 78.4717C179.768 78.6281 179.556 78.565 179.468 78.6372C178.67 79.2968 177.796 79.072 176.923 78.8497C176.662 78.7833 176.442 78.8641 176.228 79.0092C176.133 79.0729 176.028 79.1964 175.893 79.0658C175.823 78.9974 175.735 78.9274 175.776 78.8153C175.831 78.6678 175.974 78.6487 176.105 78.6278C176.181 78.6156 176.26 78.6254 176.441 78.6254Z" fill="#4D453A"/>
</g>
<defs>
<linearGradient id="paint0_linear_10_2336" x1="119.93" y1="438" x2="119.93" y2="-95.0177" gradientUnits="userSpaceOnUse">
<stop offset="0.452722" stop-color="#EFE0B5"/>
<stop offset="0.594245" stop-color="#F8DD9E"/>
<stop offset="0.861812" stop-color="#EDE6C0"/>
<stop offset="1" stop-color="#E5EDDA"/>
</linearGradient>
<linearGradient id="paint1_linear_10_2336" x1="86.81" y1="119.374" x2="86.81" y2="55.4117" gradientUnits="userSpaceOnUse">
<stop offset="0.0209" stop-color="#EFE0B5"/>
<stop offset="0.4162" stop-color="#F8DD9E"/>
<stop offset="0.7488" stop-color="#EDE6C0"/>
<stop offset="0.9764" stop-color="#E5EDDA"/>
</linearGradient>
</defs>
</svg>
