<svg width="295" height="180" viewBox="0 0 295 180" fill="none" xmlns="http://www.w3.org/2000/svg">
<mask id="mask0_10_2586" style="mask-type:alpha" maskUnits="userSpaceOnUse" x="0" y="0" width="295" height="180">
<path d="M289.773 144.954C318.218 82.8612 209.117 2.48286 134.721 0.578522C70.9775 -1.05241 5.71524 23.0661 0.730049 93.7954C-1.52979 125.865 14.5263 164.675 47.0938 176.196C81.3042 188.299 115.196 164.407 149.084 161.541C180.651 158.881 211.86 181.984 243.773 178.107C267.46 175.23 281.322 163.401 289.773 144.954Z" fill="#A9A9A9"/>
</mask>
<g mask="url(#mask0_10_2586)">
<path d="M308.848 -95.0176H-68.9878V438H308.848V-95.0176Z" fill="#FFF2CD"/>
<path d="M343.07 281.342V50.4813C340.781 50.7971 338.49 51.0601 336.173 50.8302C332.785 50.4942 329.307 49.6207 326.069 50.9275C317.905 54.2206 309.104 53.8178 300.688 55.5952C299.768 55.7893 298.66 55.6 297.755 55.2722C292.339 53.3125 286.896 53.3252 281.239 54.1993C276.565 54.9215 271.765 54.9713 267.016 55.0446C260.299 55.1481 253.569 55.939 246.869 55.2216C242.728 54.7781 238.679 55.9987 234.584 55.4561C233.127 55.2631 231.569 55.099 230.287 54.4616C225.191 51.9273 219.716 51.9546 214.258 51.8374C211.582 51.7799 208.955 51.3703 206.313 51.0436C201.68 50.4704 197.428 51.9567 193.169 53.4258C184.33 56.4749 175.234 58.3917 165.94 59.3107C160.419 59.8566 155.233 61.6918 149.919 63.0452C147.924 63.5533 145.847 63.7646 143.936 62.9608C139.131 60.9396 134.281 61.3577 129.469 62.6086C121.021 64.8044 112.28 65.8791 104.072 68.9535C97.5112 71.4111 91.096 74.2641 84.3348 76.1705C69.635 80.3154 54.7314 83.5193 39.5824 85.5081C31.6201 86.5535 23.9723 88.9301 16.1728 90.6648C7.77245 92.5333 -0.817745 93.2733 -9.32771 94.4766C-17.9072 95.6899 -26.365 97.4417 -34.7651 99.4716V281.342H343.07Z" fill="#D1CF98"/>
<path d="M80.0181 65.4375C80.0181 74.6977 72.5112 82.2046 63.251 82.2046C53.9908 82.2046 46.4839 74.6977 46.4839 65.4375C46.4839 56.1773 53.9908 48.6704 63.251 48.6704C72.5112 48.6704 80.0181 56.1773 80.0181 65.4375Z" fill="#FFDC99"/>
<circle cx="63.2026" cy="63.7166" r="10.4695" fill="#FFD179"/>
<path d="M343.07 281.342V87.2087C335.464 86.2317 328.034 84.4721 321.004 81.0774C315.188 78.2693 309.237 78.0894 303.157 79.5863C294.26 81.7768 285.549 81.0266 276.827 78.5753C271.618 77.1115 266.235 76.4248 260.816 76.6858C252.681 77.0775 244.697 75.3219 236.614 75.196C231.201 75.1116 226.384 72.3079 221.093 72.0159C215.961 71.7325 211.808 69.5744 207.519 66.9755C201.388 63.2597 194.611 62.5377 187.453 64.149C182.314 65.3059 177.184 66.8018 171.829 66.8414C168.747 66.864 165.958 65.5664 163.021 64.9938C158.552 64.1228 154.071 65.1559 149.636 65.7927C143.321 66.6993 137.059 68.1513 130.717 68.6545C124.26 69.1667 118.079 67.0137 111.82 65.5326C105.418 64.0177 98.8384 63.1129 92.2007 62.9754C87.6771 62.8817 83.0773 62.197 78.6804 63.449C75.2348 64.4302 72.0067 63.9458 68.6222 63.5202C65.642 63.1456 62.5864 63.4123 59.5722 63.2493C56.1848 63.0661 52.9712 61.9245 49.6782 61.2194C46.0866 60.4503 42.4998 60.9624 38.9357 61.2938C33.9589 61.7562 29.1638 61.3578 24.4408 59.595C20.5042 58.1257 16.2616 58.5407 12.1694 58.0259C6.70744 57.3388 1.57 55.1989 -3.73681 53.8131C-11.4987 51.7861 -19.385 50.2365 -27.1844 48.3452C-29.7786 47.716 -32.2336 46.6098 -34.7646 45.7485V281.342H343.07Z" fill="#D6DBB2"/>
<path d="M343.07 281.342V71.4947C342.527 71.5029 341.978 71.4854 341.418 71.4323C333.219 70.6537 325.047 71.6375 316.865 71.9711C313.739 72.0986 310.636 71.7459 307.557 71.2546C303.322 70.579 299.158 70.997 295.05 72.0295C288.714 73.6226 282.585 72.9405 276.233 71.526C267.989 69.6902 259.59 68.2875 251.113 67.8888C245.842 67.641 240.794 69.274 235.855 70.8644C224.302 74.584 212.311 76.5304 200.646 79.7831C197.731 80.596 194.658 80.5724 191.647 80.6522C185.473 80.8159 179.295 80.8581 173.119 80.8932C167.8 80.9234 162.609 79.6303 157.325 79.281C153.641 79.0374 149.955 78.8204 146.27 78.5774C142.907 78.3558 139.547 78.077 136.182 77.8936C133.025 77.7215 129.909 78.2816 126.781 78.5832C121.823 79.0611 117.073 77.9325 112.31 76.8356C108.064 75.8577 103.735 75.4437 99.3969 75.5386C93.9632 75.6574 88.5326 74.9162 83.1071 75.5068C79.927 75.853 76.8072 76.6317 73.893 77.8916C67.5594 80.63 60.7245 80.9989 54.0853 82.138C42.9303 84.0517 31.5905 83.4694 20.3211 83.801C15.0805 83.9551 10.1857 82.2648 5.16652 81.2298C-2.37685 79.6743 -9.97067 79.9575 -17.5876 80.4523C-23.3229 80.825 -29.0322 81.5794 -34.7649 81.9898V281.342H343.07Z" fill="#BAC7A0"/>
<path d="M343.07 281.342V118.607C340.526 118.811 337.974 118.923 335.405 118.855C328.197 118.663 321.287 116.948 314.433 114.969C304.102 111.986 293.594 111.278 282.935 112.263C274.206 113.069 265.596 112.397 256.954 110.934C250.645 109.866 244.206 109.476 237.807 109.045C231.369 108.612 225.233 107.188 219.429 104.402C210.524 100.127 200.954 98.0162 191.423 95.7816C189.835 95.4091 188.235 96.003 186.639 96.0818C183.198 96.2515 179.817 95.6254 176.572 94.6298C171.183 92.9757 165.709 93.0407 160.231 93.4976C156.452 93.8127 152.905 92.9157 149.275 92.2745C139.447 90.5384 129.633 90.9611 119.857 92.73C116.667 93.3072 113.669 93.0509 110.839 91.3533C107.715 89.4788 104.365 88.7131 100.684 89.1262C96.2021 89.6292 91.8964 88.6138 87.792 86.909C83.5202 85.1345 79.2316 84.9031 74.7749 85.9967C71.2434 86.863 67.8238 85.9565 64.7882 84.3481C58.1319 80.8213 51.3669 80.7924 44.4211 83.008C40.6837 84.2002 37.2558 83.2776 33.8549 81.8207C26.1657 78.5271 18.0307 77.4171 9.7723 77.2985C5.77969 77.241 1.7933 77.9892 -2.2442 77.687C-6.58153 77.362 -10.7722 76.1598 -15.0959 75.7927C-17.8855 75.556 -20.6768 75.2619 -23.4585 75.701C-27.3614 76.3171 -31.0633 75.492 -34.7654 74.6074V281.342H343.07Z" fill="#B3C5A9"/>
<path d="M343.07 281.342V78.0415C334.974 81.1077 326.544 83.0978 318.051 84.8732C314.776 85.5577 311.352 84.6385 308.088 85.6139C304.403 86.7148 300.926 88.4172 297.08 89.0841C293.286 89.7419 289.433 89.228 285.661 89.9049C276.465 91.5553 267.108 92.2353 258.114 95.1252C252.361 96.9736 246.092 96.9272 240.384 99.0328C229.814 102.932 219.068 106.157 207.924 107.886C197.726 109.468 187.498 110.866 177.272 112.263C172.339 112.937 167.602 114.062 163.1 116.321C156.781 119.492 149.82 120.637 142.967 122.024C133.287 123.985 123.601 125.926 113.884 127.692C104.222 129.447 94.4505 129.684 84.6897 128.824C73.5967 127.846 62.6439 128.535 51.7251 130.616C42.5197 132.37 33.2263 133.499 23.8624 134.055C11.5063 134.788 -0.848434 135.546 -13.2343 135.361C-20.4459 135.253 -27.6098 134.515 -34.7654 133.688V281.342H343.07Z" fill="#85A888"/>
<path d="M343.07 281.342V89.2866C336.549 91.3689 330.222 93.9623 324.108 97.2022C316.192 101.397 307.774 104.189 298.598 103.39C286.432 102.33 274.941 105.902 263.279 108.323C253.973 110.256 244.619 111.749 235.093 112.111C228.003 112.381 220.91 112.315 213.818 112.981C202.059 114.085 191.012 117.267 180.125 121.847C169.834 126.175 159.243 129.976 148.161 132.016C146.657 132.292 145.07 132.466 143.559 132.314C136.389 131.592 129.489 132.845 122.67 134.872C112.684 137.841 102.458 138.957 92.0613 139.061C76.0327 139.222 60.0038 139.3 43.9791 138.992C30.4586 138.732 16.9341 138.273 3.49006 136.686C-7.33781 135.408 -18.1663 134.157 -29.0351 133.281C-30.9447 133.126 -32.8548 132.977 -34.7646 132.827V281.342H343.07Z" fill="#7C9D82"/>
<path d="M343.07 281.342V148.519C338.715 148.032 334.402 147.107 330.044 146.634C325.487 146.14 320.865 146.084 316.355 145.334C297.279 142.16 278.028 143.136 258.837 142.694C251.355 142.522 244.079 141.032 236.786 139.562C231.131 138.423 225.374 138.664 219.674 138.927C212.435 139.261 205.572 137.732 198.611 136.058C190.636 134.139 182.823 131.693 174.903 129.612C172.941 129.097 170.977 128.502 169.25 127.454C163.823 124.158 157.926 122.149 151.625 122.413C144.019 122.733 137.105 120.187 129.984 118.353C126.418 117.434 122.813 116.657 119.208 115.904C116.435 115.325 114.063 114 111.774 112.41C108.478 110.121 105.202 107.592 101.023 107.327C96.6091 107.047 92.1729 106.987 87.7726 107.877C84.7731 108.483 81.7637 107.606 78.7508 107.592C76.8548 107.583 74.9542 107.401 73.0642 107.485C69.3149 107.651 65.7208 107.108 62.2219 105.728C59.4448 104.633 56.5201 104.313 53.5316 104.343C47.997 104.399 42.4604 104.427 36.9264 104.34C33.7166 104.289 30.5673 104.531 27.5235 105.548C23.1097 107.021 18.5312 106.351 14.0325 106.647C2.44698 107.411 -9.06322 106.414 -20.5159 104.732C-24.5305 104.142 -28.3795 102.662 -32.5103 102.576C-33.2642 102.56 -34.0155 102.571 -34.7651 102.594V281.342H343.07Z" fill="#6D876D"/>
<path d="M343.07 281.342V142.475C337.183 143.141 331.308 143.961 325.352 143.878C318.944 143.788 312.644 142.774 306.31 142.03C299.178 141.191 292.031 140.848 284.868 141.501C275.691 142.339 266.555 142.501 257.445 140.711C252.559 139.752 247.605 139.982 242.86 141.41C234.833 143.826 226.874 143.843 218.752 141.945C211.306 140.205 203.719 140.416 196.128 140.918C187.214 141.507 178.46 140.677 170.172 137.075C165.623 135.098 160.81 134.421 155.971 133.89C151.363 133.385 146.963 132.149 142.701 130.447C136.763 128.075 130.614 126.773 124.252 126.569C117.477 126.352 111.002 124.866 104.609 122.707C99.029 120.823 93.0661 120.791 87.337 119.518C78.4323 117.539 69.9842 114.289 61.4849 111.106C57.0522 109.447 52.107 109.752 47.6536 107.93C39.3677 104.54 31.1596 100.961 22.6754 98.0547C14.5822 95.2821 6.15421 93.8703 -2.08971 91.7167C-6.35814 90.6016 -9.95002 87.9149 -14.1909 86.7778C-16.6817 86.11 -19.2301 85.6638 -21.7934 85.7482C-26.096 85.8901 -30.2958 85.1768 -34.5231 84.6133C-34.6042 84.6024 -34.6845 84.5958 -34.7651 84.5864V281.342H343.07Z" fill="#5D7864"/>
<path d="M343.07 281.342V166.327C335.014 166.987 326.97 167.738 319.057 169.68C313.755 170.982 308.244 171.018 302.795 171.162C295.12 171.363 287.523 172.313 279.915 173.23C275.08 173.812 270.226 174.293 265.367 174.608C259.465 174.989 253.7 176.189 247.904 177.21C243.093 178.058 238.222 178.254 233.372 178.673C229.314 179.023 225.243 179.223 221.177 179.49C218.689 179.654 216.324 179.177 214.356 177.637C209.973 174.205 204.924 173.328 199.527 173.256C195.057 173.197 190.621 172.51 186.516 170.619C179.246 167.272 171.46 165.875 163.679 164.474C160.289 163.864 156.955 162.602 153.456 162.927C141.491 164.039 130.496 159.837 119.405 156.552C113.892 154.92 108.269 154.262 102.726 153.026C96.2801 151.59 90.8709 147.709 84.8231 145.339C78.6815 142.933 73.1671 139.389 67.5124 136.115C59.9546 131.738 51.5413 129.908 43.2841 127.597C32.7102 124.638 22.2142 121.45 11.7455 118.128C4.41259 115.801 -3.47128 115.315 -10.7448 112.483C-16.8482 110.106 -23.1996 108.97 -29.7548 109.215C-31.4298 109.277 -33.0962 109.644 -34.7654 109.817V281.342H343.07Z" fill="#39503E"/>
<path d="M343.07 281.342V116.729C339.694 117.019 336.311 117.221 332.902 117.106C325.059 116.843 317.218 117.115 309.427 118.094C298.253 119.498 287.333 121.976 276.501 125.137C266.216 128.137 255.652 130.283 244.877 130.683C240.763 130.835 236.65 129.942 232.483 130.128C226.858 130.378 221.374 131.671 215.795 132.143C206.268 132.949 197.348 135.737 188.685 139.612C184.418 141.52 179.882 140.64 175.461 140.324C171.509 140.042 167.711 140.503 164.005 141.801C157.569 144.055 150.872 144.962 144.135 145.555C136.746 146.207 129.617 148.007 122.541 150.071C117.649 151.499 112.586 151.412 107.59 151.939C102.207 152.506 96.8332 153.17 91.4512 153.755C89.953 153.918 88.4377 154.066 86.9354 154.026C77.181 153.771 67.4962 154.749 57.801 155.568C51.3453 156.114 44.9081 155.78 38.4596 155.277C30.211 154.635 21.9377 154.688 13.6718 154.914C8.31367 155.061 2.95663 155.291 -2.37263 155.948C-9.89555 156.876 -17.4276 157.661 -25.0312 157.322C-28.2752 157.177 -31.52 157.046 -34.7649 156.919V281.342H343.07Z" fill="#557357"/>
<path d="M343.07 281.342V199.292C338.558 198.763 334.076 197.97 329.583 197.285C319.353 195.724 309.115 194.472 298.721 195.195C295.065 195.45 291.418 194.835 287.777 194.479C282.264 193.939 277.004 195.202 271.762 196.651C266.636 198.069 261.457 198.951 256.088 198.561C249.805 198.105 243.657 198.761 237.753 201.167C233 203.104 228.057 202.492 223.115 202.16C219.688 201.929 216.23 201.905 212.798 202.053C205.709 202.36 198.692 201.843 191.669 200.911C186.955 200.285 182.354 201.512 177.765 202.435C174.36 203.12 170.934 203.696 167.457 203.507C163.145 203.272 159.064 204.375 154.936 205.306C152.701 205.81 150.699 204.445 148.539 204.317C145.654 204.145 142.763 203.993 139.874 203.98C137.057 203.967 134.484 203.18 132.063 201.857C128.1 199.691 123.87 198.737 119.375 198.912C112.712 199.17 106.648 196.427 100.288 195.172C94.413 194.012 88.7228 191.918 82.7477 191.374C78.1538 190.955 73.5303 190.854 68.9391 190.28C58.1779 188.937 47.5467 187.041 37.1529 183.844C30.6222 181.835 23.8805 180.89 17.0148 181.208C13.9421 181.35 10.8738 181.929 7.80024 181.372C6.83787 181.198 5.76793 180.961 5.01403 180.397C-0.907978 175.971 -7.45231 174.646 -14.7356 175.748C-19.2737 176.435 -23.8055 175.252 -28.3288 174.769C-30.4289 174.546 -32.4939 174.461 -34.4171 175.581C-34.5324 175.648 -34.6487 175.704 -34.7651 175.758V281.342H343.07Z" fill="#708353"/>
<path d="M343.07 281.342V155.873C334.677 157.382 326.094 157.949 317.93 160.599C312.608 162.326 307.408 164.587 301.782 165.11C296.423 165.607 291.086 166.476 285.742 166.802C276.37 167.373 267.951 170.649 259.701 174.615C249.05 179.736 237.505 182.004 226.297 185.375C210.79 190.039 195.315 194.844 179.643 198.891C167.247 202.092 154.701 204.745 142.804 209.547C135.291 212.579 127.547 214.238 119.55 215.108C115.962 215.498 112.453 216.53 109.323 218.278C101.772 222.494 93.5935 224.434 85.1473 225.72C81.7466 226.238 78.4247 227.295 75.0829 228.167C69.9341 229.51 64.8242 229.479 59.7181 227.947C57.3486 227.236 54.9723 227.322 52.6326 228.132C46.9777 230.089 41.1106 231.029 35.2095 231.869C29.2633 232.715 23.6819 234.926 18.1896 237.171C11.317 239.979 4.39034 241.31 -2.91966 239.702C-11.4501 237.826 -19.6435 239.422 -27.823 241.736C-30.1325 242.39 -32.4395 243.065 -34.7656 243.659V281.342H343.07Z" fill="#1E3730"/>
</g>
</svg>
